<svg width="363" height="478" viewBox="0 0 363 478" fill="none" xmlns="http://www.w3.org/2000/svg">
<g opacity="0.4">
<path d="M41.8305 233.763C41.0416 230.561 44.8445 228.546 47.1764 230.877L149.631 333.332C151.963 335.664 149.947 339.467 146.745 338.678C95.158 325.958 54.5504 285.35 41.8305 233.763Z" stroke="url(#paint0_linear_3_29782)" stroke-width="15.2355"/>
<path d="M37.9574 189.983C37.9284 190.457 38.0007 190.932 38.1695 191.376C38.3384 191.82 38.6 192.223 38.9367 192.557L187.951 341.571C188.285 341.908 188.688 342.17 189.132 342.339C189.576 342.507 190.051 342.58 190.525 342.551C196.853 342.147 203.148 341.325 209.367 340.091C211.958 339.576 212.858 336.399 210.99 334.531L45.9772 169.518C44.1092 167.65 40.9317 168.55 40.4171 171.141C39.1827 177.36 38.361 183.655 37.9574 189.983Z" stroke="url(#paint1_linear_3_29782)" stroke-width="15.2355"/>
<path d="M50.1598 140.599C49.8854 141.218 49.8055 141.905 49.9306 142.569C50.0558 143.234 50.3801 143.845 50.8606 144.321L236.187 329.648C236.663 330.128 237.274 330.452 237.938 330.577C238.603 330.702 239.29 330.622 239.908 330.348C244.704 328.198 249.377 325.785 253.907 323.12C255.781 322.018 256.069 319.45 254.532 317.913L62.5945 125.976C61.0574 124.439 58.4893 124.727 57.3873 126.601C54.7229 131.131 52.3101 135.804 50.1598 140.599Z" stroke="url(#paint2_linear_3_29782)" stroke-width="15.2355"/>
<path d="M74.5905 107.891C73.3378 106.639 73.26 104.629 74.4441 103.311C100.726 74.084 138.833 55.7041 181.233 55.7041C260.525 55.7041 324.804 119.983 324.804 199.275C324.804 241.675 306.424 279.782 277.198 306.064C275.88 307.248 273.87 307.171 272.617 305.918L74.5905 107.891Z" stroke="url(#paint3_linear_3_29782)" stroke-width="15.2355"/>
</g>
<g opacity="0.4">
<path d="M41.8305 233.763C41.0416 230.561 44.8445 228.546 47.1764 230.877L149.631 333.332C151.963 335.664 149.947 339.467 146.745 338.678C95.158 325.958 54.5504 285.35 41.8305 233.763Z" stroke="url(#paint4_linear_3_29782)" stroke-opacity="0.2" stroke-width="1.69283"/>
<path d="M37.9574 189.983C37.9284 190.457 38.0007 190.932 38.1695 191.376C38.3384 191.82 38.6 192.223 38.9367 192.557L187.951 341.571C188.285 341.908 188.688 342.17 189.132 342.339C189.576 342.507 190.051 342.58 190.525 342.551C196.853 342.147 203.148 341.325 209.367 340.091C211.958 339.576 212.858 336.399 210.99 334.531L45.9772 169.518C44.1092 167.65 40.9317 168.55 40.4171 171.141C39.1827 177.36 38.361 183.655 37.9574 189.983Z" stroke="url(#paint5_linear_3_29782)" stroke-opacity="0.2" stroke-width="1.69283"/>
<path d="M50.1598 140.599C49.8854 141.218 49.8055 141.905 49.9306 142.569C50.0558 143.234 50.3801 143.845 50.8606 144.321L236.187 329.648C236.663 330.128 237.274 330.452 237.938 330.577C238.603 330.702 239.29 330.622 239.908 330.348C244.704 328.198 249.377 325.785 253.907 323.12C255.781 322.018 256.069 319.45 254.532 317.913L62.5945 125.976C61.0574 124.439 58.4893 124.727 57.3873 126.601C54.7229 131.131 52.3101 135.804 50.1598 140.599Z" stroke="url(#paint6_linear_3_29782)" stroke-opacity="0.2" stroke-width="1.69283"/>
<path d="M74.5905 107.891C73.3378 106.639 73.26 104.629 74.4441 103.311C100.726 74.084 138.833 55.7041 181.233 55.7041C260.525 55.7041 324.804 119.983 324.804 199.275C324.804 241.675 306.424 279.782 277.198 306.064C275.88 307.248 273.87 307.171 272.617 305.918L74.5905 107.891Z" stroke="url(#paint7_linear_3_29782)" stroke-opacity="0.2" stroke-width="1.69283"/>
</g>
<path d="M41.8305 233.763C41.0416 230.561 44.8445 228.546 47.1764 230.877L149.631 333.332C151.963 335.664 149.947 339.467 146.745 338.678C95.158 325.958 54.5504 285.35 41.8305 233.763Z" stroke="url(#paint8_linear_3_29782)" stroke-opacity="0.2" stroke-width="6.77132"/>
<path d="M37.9574 189.984C37.9284 190.458 38.0007 190.933 38.1695 191.377C38.3384 191.821 38.6 192.224 38.9367 192.558L187.951 341.572C188.285 341.909 188.688 342.171 189.132 342.339C189.576 342.508 190.051 342.581 190.525 342.552C196.853 342.148 203.148 341.326 209.367 340.092C211.958 339.577 212.858 336.4 210.99 334.532L45.9772 169.519C44.1092 167.651 40.9317 168.551 40.4171 171.142C39.1827 177.361 38.361 183.656 37.9574 189.984Z" stroke="url(#paint9_linear_3_29782)" stroke-opacity="0.2" stroke-width="6.77132"/>
<path d="M50.1598 140.6C49.8854 141.219 49.8055 141.906 49.9306 142.57C50.0558 143.235 50.3801 143.846 50.8606 144.322L236.187 329.649C236.663 330.129 237.274 330.453 237.938 330.578C238.603 330.703 239.29 330.623 239.908 330.349C244.704 328.199 249.377 325.786 253.907 323.121C255.781 322.019 256.069 319.451 254.532 317.914L62.5945 125.977C61.0574 124.44 58.4893 124.728 57.3873 126.602C54.7229 131.132 52.3101 135.805 50.1598 140.6Z" stroke="url(#paint10_linear_3_29782)" stroke-opacity="0.2" stroke-width="6.77132"/>
<path d="M74.5886 107.891C73.3359 106.639 73.258 104.629 74.4421 103.311C100.724 74.084 138.831 55.7041 181.231 55.7041C260.523 55.7041 324.802 119.983 324.802 199.275C324.802 241.675 306.422 279.782 277.196 306.064C275.878 307.248 273.868 307.171 272.615 305.918L74.5886 107.891Z" stroke="url(#paint11_linear_3_29782)" stroke-opacity="0.2" stroke-width="6.77132"/>
<path d="M41.8305 233.763C41.0416 230.561 44.8445 228.546 47.1764 230.877L149.631 333.332C151.963 335.664 149.947 339.467 146.745 338.678C95.158 325.958 54.5504 285.35 41.8305 233.763Z" stroke="url(#paint12_radial_3_29782)" stroke-width="0.846415"/>
<path d="M37.9574 189.984C37.9284 190.458 38.0007 190.933 38.1695 191.377C38.3384 191.821 38.6 192.224 38.9367 192.558L187.951 341.572C188.285 341.909 188.688 342.171 189.132 342.339C189.576 342.508 190.051 342.581 190.525 342.552C196.853 342.148 203.148 341.326 209.367 340.092C211.958 339.577 212.858 336.4 210.99 334.532L45.9772 169.519C44.1092 167.651 40.9317 168.551 40.4171 171.142C39.1827 177.361 38.361 183.656 37.9574 189.984Z" stroke="url(#paint13_radial_3_29782)" stroke-width="0.846415"/>
<path d="M50.1598 140.6C49.8854 141.219 49.8055 141.906 49.9306 142.57C50.0558 143.235 50.3801 143.846 50.8606 144.322L236.187 329.649C236.663 330.129 237.274 330.453 237.938 330.578C238.603 330.703 239.29 330.623 239.908 330.349C244.704 328.199 249.377 325.786 253.907 323.121C255.781 322.019 256.069 319.451 254.532 317.914L62.5945 125.977C61.0574 124.44 58.4893 124.728 57.3873 126.602C54.7229 131.132 52.3101 135.805 50.1598 140.6Z" stroke="url(#paint14_radial_3_29782)" stroke-width="0.846415"/>
<path d="M74.5886 107.891C73.3359 106.639 73.258 104.629 74.4421 103.311C100.724 74.084 138.831 55.7041 181.231 55.7041C260.523 55.7041 324.802 119.983 324.802 199.275C324.802 241.675 306.422 279.782 277.196 306.064C275.878 307.248 273.868 307.171 272.615 305.918L74.5886 107.891Z" stroke="url(#paint15_radial_3_29782)" stroke-width="0.846415"/>
<defs>
<linearGradient id="paint0_linear_3_29782" x1="181.337" y1="55.7043" x2="181.337" y2="251.226" gradientUnits="userSpaceOnUse">
<stop stop-color="#6663F6"/>
<stop offset="1" stop-color="#6663F6" stop-opacity="0"/>
</linearGradient>
<linearGradient id="paint1_linear_3_29782" x1="181.337" y1="55.704" x2="181.337" y2="251.226" gradientUnits="userSpaceOnUse">
<stop stop-color="#6663F6"/>
<stop offset="1" stop-color="#6663F6" stop-opacity="0"/>
</linearGradient>
<linearGradient id="paint2_linear_3_29782" x1="181.336" y1="55.7041" x2="181.336" y2="251.226" gradientUnits="userSpaceOnUse">
<stop stop-color="#6663F6"/>
<stop offset="1" stop-color="#6663F6" stop-opacity="0"/>
</linearGradient>
<linearGradient id="paint3_linear_3_29782" x1="181.337" y1="55.7041" x2="181.337" y2="251.226" gradientUnits="userSpaceOnUse">
<stop stop-color="#6663F6"/>
<stop offset="1" stop-color="#6663F6" stop-opacity="0"/>
</linearGradient>
<linearGradient id="paint4_linear_3_29782" x1="181.337" y1="55.7043" x2="181.337" y2="216.523" gradientUnits="userSpaceOnUse">
<stop stop-color="#6663F6"/>
<stop offset="1" stop-color="#6663F6" stop-opacity="0"/>
</linearGradient>
<linearGradient id="paint5_linear_3_29782" x1="181.337" y1="55.704" x2="181.337" y2="216.523" gradientUnits="userSpaceOnUse">
<stop stop-color="#6663F6"/>
<stop offset="1" stop-color="#6663F6" stop-opacity="0"/>
</linearGradient>
<linearGradient id="paint6_linear_3_29782" x1="181.336" y1="55.7041" x2="181.336" y2="216.523" gradientUnits="userSpaceOnUse">
<stop stop-color="#6663F6"/>
<stop offset="1" stop-color="#6663F6" stop-opacity="0"/>
</linearGradient>
<linearGradient id="paint7_linear_3_29782" x1="181.337" y1="55.7041" x2="181.337" y2="216.523" gradientUnits="userSpaceOnUse">
<stop stop-color="#6663F6"/>
<stop offset="1" stop-color="#6663F6" stop-opacity="0"/>
</linearGradient>
<linearGradient id="paint8_linear_3_29782" x1="181.337" y1="55.7043" x2="181.337" y2="260.113" gradientUnits="userSpaceOnUse">
<stop stop-color="#7877C6"/>
<stop offset="1" stop-color="#7877C6" stop-opacity="0"/>
</linearGradient>
<linearGradient id="paint9_linear_3_29782" x1="181.337" y1="55.705" x2="181.337" y2="260.114" gradientUnits="userSpaceOnUse">
<stop stop-color="#7877C6"/>
<stop offset="1" stop-color="#7877C6" stop-opacity="0"/>
</linearGradient>
<linearGradient id="paint10_linear_3_29782" x1="181.336" y1="55.705" x2="181.336" y2="260.114" gradientUnits="userSpaceOnUse">
<stop stop-color="#7877C6"/>
<stop offset="1" stop-color="#7877C6" stop-opacity="0"/>
</linearGradient>
<linearGradient id="paint11_linear_3_29782" x1="181.335" y1="55.7041" x2="181.335" y2="260.113" gradientUnits="userSpaceOnUse">
<stop stop-color="#7877C6"/>
<stop offset="1" stop-color="#7877C6" stop-opacity="0"/>
</linearGradient>
<radialGradient id="paint12_radial_3_29782" cx="0" cy="0" r="1" gradientUnits="userSpaceOnUse" gradientTransform="translate(181.337 85.7013) rotate(90) scale(197.267)">
<stop stop-color="white"/>
<stop offset="1" stop-color="white" stop-opacity="0"/>
</radialGradient>
<radialGradient id="paint13_radial_3_29782" cx="0" cy="0" r="1" gradientUnits="userSpaceOnUse" gradientTransform="translate(181.337 85.702) rotate(90) scale(197.267)">
<stop stop-color="white"/>
<stop offset="1" stop-color="white" stop-opacity="0"/>
</radialGradient>
<radialGradient id="paint14_radial_3_29782" cx="0" cy="0" r="1" gradientUnits="userSpaceOnUse" gradientTransform="translate(181.336 85.702) rotate(90) scale(197.267 197.267)">
<stop stop-color="white"/>
<stop offset="1" stop-color="white" stop-opacity="0"/>
</radialGradient>
<radialGradient id="paint15_radial_3_29782" cx="0" cy="0" r="1" gradientUnits="userSpaceOnUse" gradientTransform="translate(181.335 85.701) rotate(90) scale(197.267)">
<stop stop-color="white"/>
<stop offset="1" stop-color="white" stop-opacity="0"/>
</radialGradient>
</defs>
</svg>
