<svg width="639" height="280" viewBox="0 0 639 280" fill="none" xmlns="http://www.w3.org/2000/svg">
<rect width="639" height="280" fill="#1E1E1E"/>
<g clip-path="url(#clip0_0_1)">
<rect width="1440" height="11576" transform="translate(-594 -3115)" fill="#000212"/>
<rect width="1440" height="1257.78" transform="translate(-594 -962.078)" fill="url(#paint0_radial_0_1)"/>
<g clip-path="url(#clip1_0_1)">
<rect x="-55.3438" y="-184.328" width="749.344" height="480" rx="48" fill="url(#paint1_linear_0_1)"/>
<mask id="mask0_0_1" style="mask-type:alpha" maskUnits="userSpaceOnUse" x="-56" y="-185" width="750" height="481">
<rect x="-55.3438" y="-184.328" width="749.344" height="480" fill="black"/>
</mask>
<g mask="url(#mask0_0_1)">
<rect x="-55.3438" y="-184.328" width="749.344" height="480" rx="48" fill="url(#paint2_linear_0_1)"/>
</g>
<g opacity="0.6" filter="url(#filter0_d_0_1)">
<rect x="-0.671875" y="-0.328125" width="640" height="280.469" rx="8" fill="white" fill-opacity="0.1" shape-rendering="crispEdges"/>
<rect x="-0.171875" y="0.171875" width="639" height="279.469" rx="7.5" stroke="white" stroke-opacity="0.1" shape-rendering="crispEdges"/>
<rect x="16.3281" y="8.67188" width="154.641" height="24.4688" rx="4" fill="white" fill-opacity="0.05"/>
<path d="M25.3849 24.6719V15.9446H26.4418V23.7344H30.4986V24.6719H25.3849ZM33.1918 15.9446V24.6719H32.1349V15.9446H33.1918ZM42.2312 15.9446V24.6719H41.2085L36.4528 17.8196H36.3675V24.6719H35.3107V15.9446H36.3335L41.1062 22.8139H41.1914V15.9446H42.2312ZM47.9595 19.8395V20.777H44.1413V19.8395H47.9595ZM52.7802 15.9446V24.6719H51.7234V17.0526H51.6722L49.5415 18.4673V17.3935L51.7234 15.9446H52.7802ZM58.3583 15.9446V24.6719H57.3015V17.0526H57.2504L55.1197 18.4673V17.3935L57.3015 15.9446H58.3583ZM63.9364 15.9446V24.6719H62.8796V17.0526H62.8285L60.6978 18.4673V17.3935L62.8796 15.9446H63.9364ZM71.56 24.6719L69.1737 15.9446H70.2475L72.0714 23.0526H72.1566L74.0146 15.9446H75.2077L77.0657 23.0526H77.1509L78.9748 15.9446H80.0487L77.6623 24.6719H76.5714L74.6452 17.7173H74.5771L72.6509 24.6719H71.56ZM82.5458 24.8253C82.131 24.8253 81.7546 24.7472 81.4165 24.5909C81.0785 24.4318 80.81 24.2031 80.6112 23.9048C80.4123 23.6037 80.3129 23.2401 80.3129 22.8139C80.3129 22.4389 80.3867 22.1349 80.5344 21.902C80.6822 21.6662 80.8796 21.4815 81.1268 21.348C81.3739 21.2145 81.6467 21.1151 81.945 21.0497C82.2461 20.9815 82.5487 20.9276 82.8526 20.8878C83.2504 20.8366 83.5728 20.7983 83.82 20.7727C84.07 20.7443 84.2518 20.6974 84.3654 20.6321C84.4819 20.5668 84.5401 20.4531 84.5401 20.2912V20.2571C84.5401 19.8366 84.4251 19.5099 84.195 19.277C83.9677 19.044 83.6225 18.9276 83.1594 18.9276C82.6793 18.9276 82.3029 19.0327 82.0302 19.2429C81.7575 19.4531 81.5657 19.6776 81.4549 19.9162L80.5004 19.5753C80.6708 19.1776 80.8981 18.8679 81.1822 18.6463C81.4691 18.4219 81.7816 18.2656 82.1197 18.1776C82.4606 18.0866 82.7958 18.0412 83.1254 18.0412C83.3356 18.0412 83.5771 18.0668 83.8498 18.1179C84.1254 18.1662 84.391 18.267 84.6467 18.4205C84.9052 18.5739 85.1197 18.8054 85.2901 19.1151C85.4606 19.4247 85.5458 19.8395 85.5458 20.3594V24.6719H84.5401V23.7855H84.489C84.4208 23.9276 84.3072 24.0795 84.1481 24.2415C83.989 24.4034 83.7773 24.5412 83.5131 24.6548C83.2489 24.7685 82.9265 24.8253 82.5458 24.8253ZM82.6992 23.9219C83.0969 23.9219 83.4322 23.8438 83.7049 23.6875C83.9805 23.5312 84.1879 23.3295 84.3271 23.0824C84.4691 22.8352 84.5401 22.5753 84.5401 22.3026V21.3821C84.4975 21.4332 84.4038 21.4801 84.2589 21.5227C84.1168 21.5625 83.9521 21.598 83.7646 21.6293C83.5799 21.6577 83.3995 21.6832 83.2234 21.706C83.0501 21.7259 82.9094 21.7429 82.8015 21.7571C82.5401 21.7912 82.2958 21.8466 82.0685 21.9233C81.8441 21.9972 81.6623 22.1094 81.5231 22.2599C81.3867 22.4077 81.3185 22.6094 81.3185 22.8651C81.3185 23.2145 81.4478 23.4787 81.7063 23.6577C81.9677 23.8338 82.2987 23.9219 82.6992 23.9219ZM88.3871 15.9446V24.6719H87.3814V15.9446H88.3871ZM91.1665 22.2855L91.1495 21.0412H91.354L94.2177 18.1264H95.462L92.4109 21.2116H92.3256L91.1665 22.2855ZM90.229 24.6719V15.9446H91.2347V24.6719H90.229ZM94.3881 24.6719L91.8313 21.4332L92.5472 20.7344L95.6665 24.6719H94.3881ZM98.2393 24.6719L96.245 18.1264H97.3018L98.7166 23.1378H98.7848L100.183 18.1264H101.256L102.637 23.1207H102.705L104.12 18.1264H105.177L103.183 24.6719H102.194L100.762 19.6435H100.66L99.228 24.6719H98.2393ZM108.433 24.8253C108.018 24.8253 107.641 24.7472 107.303 24.5909C106.965 24.4318 106.697 24.2031 106.498 23.9048C106.299 23.6037 106.2 23.2401 106.2 22.8139C106.2 22.4389 106.273 22.1349 106.421 21.902C106.569 21.6662 106.766 21.4815 107.013 21.348C107.261 21.2145 107.533 21.1151 107.832 21.0497C108.133 20.9815 108.435 20.9276 108.739 20.8878C109.137 20.8366 109.46 20.7983 109.707 20.7727C109.957 20.7443 110.138 20.6974 110.252 20.6321C110.369 20.5668 110.427 20.4531 110.427 20.2912V20.2571C110.427 19.8366 110.312 19.5099 110.082 19.277C109.854 19.044 109.509 18.9276 109.046 18.9276C108.566 18.9276 108.19 19.0327 107.917 19.2429C107.644 19.4531 107.452 19.6776 107.342 19.9162L106.387 19.5753C106.558 19.1776 106.785 18.8679 107.069 18.6463C107.356 18.4219 107.668 18.2656 108.006 18.1776C108.347 18.0866 108.683 18.0412 109.012 18.0412C109.222 18.0412 109.464 18.0668 109.737 18.1179C110.012 18.1662 110.278 18.267 110.533 18.4205C110.792 18.5739 111.006 18.8054 111.177 19.1151C111.347 19.4247 111.433 19.8395 111.433 20.3594V24.6719H110.427V23.7855H110.376C110.308 23.9276 110.194 24.0795 110.035 24.2415C109.876 24.4034 109.664 24.5412 109.4 24.6548C109.136 24.7685 108.813 24.8253 108.433 24.8253ZM108.586 23.9219C108.984 23.9219 109.319 23.8438 109.592 23.6875C109.867 23.5312 110.075 23.3295 110.214 23.0824C110.356 22.8352 110.427 22.5753 110.427 22.3026V21.3821C110.384 21.4332 110.29 21.4801 110.146 21.5227C110.004 21.5625 109.839 21.598 109.651 21.6293C109.467 21.6577 109.286 21.6832 109.11 21.706C108.937 21.7259 108.796 21.7429 108.688 21.7571C108.427 21.7912 108.183 21.8466 107.955 21.9233C107.731 21.9972 107.549 22.1094 107.41 22.2599C107.273 22.4077 107.205 22.6094 107.205 22.8651C107.205 23.2145 107.335 23.4787 107.593 23.6577C107.854 23.8338 108.185 23.9219 108.586 23.9219ZM113.681 27.1264C113.511 27.1264 113.359 27.1122 113.225 27.0838C113.092 27.0582 113 27.0327 112.949 27.0071L113.204 26.1207C113.449 26.1832 113.664 26.206 113.852 26.1889C114.039 26.1719 114.206 26.0881 114.35 25.9375C114.498 25.7898 114.633 25.5497 114.755 25.2173L114.943 24.706L112.522 18.1264H113.613L115.42 23.3423H115.488L117.295 18.1264H118.386L115.608 25.6264C115.483 25.9645 115.328 26.2443 115.143 26.4659C114.958 26.6903 114.744 26.8565 114.5 26.9645C114.258 27.0724 113.985 27.1264 113.681 27.1264ZM124.094 15.9446V24.6719H123.088V15.9446H124.094ZM125.936 24.6719V18.1264H126.942V24.6719H125.936ZM126.447 17.0355C126.251 17.0355 126.082 16.9688 125.94 16.8352C125.801 16.7017 125.732 16.5412 125.732 16.3537C125.732 16.1662 125.801 16.0057 125.94 15.8722C126.082 15.7386 126.251 15.6719 126.447 15.6719C126.643 15.6719 126.811 15.7386 126.95 15.8722C127.092 16.0057 127.163 16.1662 127.163 16.3537C127.163 16.5412 127.092 16.7017 126.95 16.8352C126.811 16.9688 126.643 17.0355 126.447 17.0355ZM131.426 27.2628C130.94 27.2628 130.522 27.2003 130.173 27.0753C129.824 26.9531 129.532 26.7912 129.299 26.5895C129.069 26.3906 128.886 26.1776 128.75 25.9503L129.551 25.3878C129.642 25.5071 129.757 25.6435 129.896 25.7969C130.035 25.9531 130.225 26.0881 130.467 26.2017C130.711 26.3182 131.031 26.3764 131.426 26.3764C131.954 26.3764 132.39 26.2486 132.734 25.9929C133.078 25.7372 133.25 25.3366 133.25 24.7912V23.4616H133.164C133.091 23.581 132.985 23.7287 132.849 23.9048C132.716 24.0781 132.522 24.233 132.27 24.3693C132.02 24.5028 131.681 24.5696 131.255 24.5696C130.727 24.5696 130.252 24.4446 129.832 24.1946C129.414 23.9446 129.083 23.581 128.839 23.1037C128.598 22.6264 128.477 22.0469 128.477 21.3651C128.477 20.6946 128.595 20.1108 128.831 19.6136C129.066 19.1136 129.395 18.7273 129.815 18.4545C130.235 18.179 130.721 18.0412 131.272 18.0412C131.699 18.0412 132.037 18.1122 132.287 18.2543C132.539 18.3935 132.733 18.5526 132.866 18.7315C133.002 18.9077 133.108 19.0526 133.181 19.1662H133.284V18.1264H134.255V24.8594C134.255 25.4219 134.127 25.8793 133.872 26.2315C133.619 26.5866 133.278 26.8466 132.849 27.0114C132.423 27.179 131.949 27.2628 131.426 27.2628ZM131.392 23.6662C131.795 23.6662 132.136 23.5739 132.414 23.3892C132.693 23.2045 132.904 22.9389 133.049 22.5923C133.194 22.2457 133.267 21.831 133.267 21.348C133.267 20.8764 133.196 20.4602 133.054 20.0994C132.912 19.7386 132.701 19.456 132.423 19.2514C132.145 19.0469 131.801 18.9446 131.392 18.9446C130.966 18.9446 130.61 19.0526 130.326 19.2685C130.045 19.4844 129.833 19.7741 129.691 20.1378C129.552 20.5014 129.483 20.9048 129.483 21.348C129.483 21.8026 129.554 22.2045 129.696 22.554C129.841 22.9006 130.054 23.1733 130.335 23.3722C130.619 23.5682 130.971 23.6662 131.392 23.6662ZM137.102 20.7344V24.6719H136.096V15.9446H137.102V19.1491H137.187C137.341 18.8111 137.571 18.5426 137.877 18.3438C138.187 18.142 138.599 18.0412 139.113 18.0412C139.559 18.0412 139.95 18.1307 140.285 18.3097C140.62 18.4858 140.88 18.7571 141.065 19.1236C141.252 19.4872 141.346 19.9503 141.346 20.5128V24.6719H140.341V20.581C140.341 20.0611 140.206 19.6591 139.936 19.375C139.669 19.0881 139.298 18.9446 138.824 18.9446C138.494 18.9446 138.199 19.0142 137.937 19.1534C137.679 19.2926 137.474 19.4957 137.324 19.7628C137.176 20.0298 137.102 20.3537 137.102 20.7344ZM146.033 18.1264V18.9787H142.641V18.1264H146.033ZM143.629 16.5582H144.635V22.7969C144.635 23.081 144.676 23.294 144.759 23.4361C144.844 23.5753 144.952 23.669 145.082 23.7173C145.216 23.7628 145.357 23.7855 145.504 23.7855C145.615 23.7855 145.706 23.7798 145.777 23.7685C145.848 23.7543 145.905 23.7429 145.947 23.7344L146.152 24.6378C146.084 24.6634 145.989 24.6889 145.866 24.7145C145.744 24.7429 145.589 24.7571 145.402 24.7571C145.118 24.7571 144.839 24.696 144.567 24.5739C144.297 24.4517 144.072 24.2656 143.893 24.0156C143.717 23.7656 143.629 23.4503 143.629 23.0696V16.5582ZM147.545 24.6719V18.1264H148.551V24.6719H147.545ZM148.057 17.0355C147.861 17.0355 147.692 16.9688 147.55 16.8352C147.411 16.7017 147.341 16.5412 147.341 16.3537C147.341 16.1662 147.411 16.0057 147.55 15.8722C147.692 15.7386 147.861 15.6719 148.057 15.6719C148.253 15.6719 148.42 15.7386 148.56 15.8722C148.702 16.0057 148.773 16.1662 148.773 16.3537C148.773 16.5412 148.702 16.7017 148.56 16.8352C148.42 16.9688 148.253 17.0355 148.057 17.0355ZM151.399 20.7344V24.6719H150.393V18.1264H151.365V19.1491H151.45C151.603 18.8168 151.836 18.5497 152.149 18.348C152.461 18.1435 152.865 18.0412 153.359 18.0412C153.802 18.0412 154.19 18.1321 154.522 18.3139C154.855 18.4929 155.113 18.7656 155.298 19.1321C155.483 19.4957 155.575 19.956 155.575 20.5128V24.6719H154.569V20.581C154.569 20.0668 154.436 19.6662 154.169 19.3793C153.902 19.0895 153.535 18.9446 153.069 18.9446C152.748 18.9446 152.461 19.0142 152.208 19.1534C151.958 19.2926 151.761 19.4957 151.616 19.7628C151.471 20.0298 151.399 20.3537 151.399 20.7344ZM160.055 27.2628C159.569 27.2628 159.151 27.2003 158.802 27.0753C158.452 26.9531 158.161 26.7912 157.928 26.5895C157.698 26.3906 157.515 26.1776 157.379 25.9503L158.18 25.3878C158.271 25.5071 158.386 25.6435 158.525 25.7969C158.664 25.9531 158.854 26.0881 159.096 26.2017C159.34 26.3182 159.66 26.3764 160.055 26.3764C160.583 26.3764 161.019 26.2486 161.363 25.9929C161.707 25.7372 161.879 25.3366 161.879 24.7912V23.4616H161.793C161.719 23.581 161.614 23.7287 161.478 23.9048C161.344 24.0781 161.151 24.233 160.898 24.3693C160.648 24.5028 160.31 24.5696 159.884 24.5696C159.356 24.5696 158.881 24.4446 158.461 24.1946C158.043 23.9446 157.712 23.581 157.468 23.1037C157.227 22.6264 157.106 22.0469 157.106 21.3651C157.106 20.6946 157.224 20.1108 157.46 19.6136C157.695 19.1136 158.023 18.7273 158.444 18.4545C158.864 18.179 159.35 18.0412 159.901 18.0412C160.327 18.0412 160.665 18.1122 160.915 18.2543C161.168 18.3935 161.362 18.5526 161.495 18.7315C161.631 18.9077 161.737 19.0526 161.81 19.1662H161.913V18.1264H162.884V24.8594C162.884 25.4219 162.756 25.8793 162.501 26.2315C162.248 26.5866 161.907 26.8466 161.478 27.0114C161.052 27.179 160.577 27.2628 160.055 27.2628ZM160.021 23.6662C160.424 23.6662 160.765 23.5739 161.043 23.3892C161.322 23.2045 161.533 22.9389 161.678 22.5923C161.823 22.2457 161.896 21.831 161.896 21.348C161.896 20.8764 161.825 20.4602 161.683 20.0994C161.54 19.7386 161.33 19.456 161.052 19.2514C160.773 19.0469 160.43 18.9446 160.021 18.9446C159.594 18.9446 159.239 19.0526 158.955 19.2685C158.674 19.4844 158.462 19.7741 158.32 20.1378C158.181 20.5014 158.112 20.9048 158.112 21.348C158.112 21.8026 158.183 22.2045 158.325 22.554C158.469 22.9006 158.683 23.1733 158.964 23.3722C159.248 23.5682 159.6 23.6662 160.021 23.6662Z" fill="white" fill-opacity="0.5"/>
<g clip-path="url(#clip2_0_1)" filter="url(#filter1_d_0_1)">
<rect width="638" height="184" transform="translate(0.328125 95.1406)" fill="white" fill-opacity="0.01"/>
<rect width="638" height="46" transform="translate(0.328125 95.1406)" fill="white" fill-opacity="0.15"/>
<g clip-path="url(#clip3_0_1)">
<path d="M27.3281 117.141C27.6606 117.148 27.991 117.088 28.3001 116.966C28.6092 116.843 28.8908 116.66 29.1283 116.427C29.3658 116.195 29.5545 115.917 29.6833 115.61C29.8122 115.304 29.8786 114.975 29.8786 114.642C29.8787 114.31 29.8124 113.98 29.6837 113.674C29.555 113.367 29.3664 113.089 29.129 112.857C28.8916 112.624 28.6101 112.441 28.301 112.318C27.992 112.195 27.6616 112.136 27.3291 112.142C26.6749 112.155 26.0518 112.424 25.5936 112.891C25.1355 113.358 24.8788 113.987 24.8786 114.641C24.8785 115.295 25.1349 115.924 25.5929 116.391C26.0509 116.859 26.6739 117.128 27.3281 117.141ZM27.3281 118.141C25.9931 118.141 23.3281 119.034 23.3281 120.808V121.474C23.3281 121.841 23.5531 122.141 23.8281 122.141H25.8771C26.7811 121.232 28.2941 120.23 30.6041 120.132V119.412C30.604 119.391 30.6063 119.37 30.6111 119.349C29.7251 118.545 28.2261 118.141 27.3281 118.141ZM31.7551 120.169C31.8008 120.146 31.8521 120.137 31.9028 120.143C31.9535 120.149 32.0015 120.169 32.0411 120.201L34.2041 121.924C34.2347 121.949 34.2596 121.979 34.2771 122.014C34.2947 122.05 34.3044 122.088 34.3056 122.127C34.3069 122.166 34.2996 122.205 34.2843 122.241C34.269 122.277 34.2461 122.31 34.2171 122.336L32.0541 124.306C32.0154 124.341 31.9673 124.365 31.9156 124.373C31.8638 124.382 31.8108 124.375 31.7629 124.354C31.715 124.332 31.6742 124.298 31.6457 124.254C31.6172 124.21 31.602 124.158 31.6021 124.106V123.15C28.2741 123.283 26.3201 124.658 26.3151 124.685C26.3049 124.748 26.2726 124.806 26.2238 124.847C26.1751 124.889 26.1132 124.912 26.0491 124.912H26.0271C25.959 124.907 25.8955 124.876 25.8493 124.826C25.8031 124.775 25.7777 124.709 25.7781 124.641C25.7781 124.595 27.3271 121.313 31.6021 121.132V120.412C31.6022 120.361 31.6166 120.312 31.6436 120.269C31.6707 120.226 31.7093 120.191 31.7551 120.169Z" fill="#F7F8F8"/>
</g>
<path d="M49.9787 121.906H48.6861L52.4247 111.724H53.6974L57.4361 121.906H56.1435L53.1009 113.335H53.0213L49.9787 121.906ZM50.456 117.929H55.6662V119.023H50.456V117.929ZM64.272 115.98L63.218 116.278C63.1518 116.103 63.054 115.932 62.9247 115.766C62.7988 115.597 62.6264 115.458 62.4077 115.349C62.1889 115.239 61.9089 115.185 61.5675 115.185C61.1001 115.185 60.7107 115.292 60.3991 115.508C60.0909 115.72 59.9368 115.99 59.9368 116.318C59.9368 116.61 60.0429 116.84 60.255 117.009C60.4671 117.178 60.7985 117.319 61.2493 117.432L62.3828 117.71C63.0656 117.876 63.5743 118.129 63.9091 118.471C64.2438 118.809 64.4112 119.245 64.4112 119.778C64.4112 120.216 64.2853 120.607 64.0334 120.952C63.7848 121.296 63.4368 121.568 62.9893 121.767C62.5419 121.966 62.0215 122.065 61.4283 122.065C60.6494 122.065 60.0047 121.896 59.4943 121.558C58.9839 121.22 58.6607 120.726 58.5249 120.077L59.6385 119.798C59.7446 120.209 59.9451 120.518 60.2401 120.723C60.5384 120.929 60.9278 121.031 61.4084 121.031C61.9553 121.031 62.3894 120.915 62.7109 120.683C63.0357 120.448 63.1982 120.166 63.1982 119.838C63.1982 119.573 63.1054 119.351 62.9197 119.172C62.7341 118.99 62.4491 118.854 62.0646 118.764L60.7919 118.466C60.0926 118.3 59.5788 118.043 59.2507 117.695C58.9259 117.344 58.7635 116.905 58.7635 116.378C58.7635 115.947 58.8845 115.566 59.1264 115.234C59.3717 114.903 59.7048 114.643 60.1257 114.454C60.55 114.265 61.0305 114.17 61.5675 114.17C62.3232 114.17 62.9164 114.336 63.3473 114.668C63.7815 114.999 64.0897 115.437 64.272 115.98ZM71.5865 115.98L70.5325 116.278C70.4662 116.103 70.3684 115.932 70.2392 115.766C70.1132 115.597 69.9409 115.458 69.7221 115.349C69.5034 115.239 69.2233 115.185 68.8819 115.185C68.4146 115.185 68.0252 115.292 67.7136 115.508C67.4054 115.72 67.2512 115.99 67.2512 116.318C67.2512 116.61 67.3573 116.84 67.5694 117.009C67.7815 117.178 68.113 117.319 68.5637 117.432L69.6973 117.71C70.38 117.876 70.8888 118.129 71.2235 118.471C71.5583 118.809 71.7257 119.245 71.7257 119.778C71.7257 120.216 71.5997 120.607 71.3478 120.952C71.0993 121.296 70.7512 121.568 70.3038 121.767C69.8564 121.966 69.336 122.065 68.7427 122.065C67.9638 122.065 67.3192 121.896 66.8088 121.558C66.2984 121.22 65.9752 120.726 65.8393 120.077L66.9529 119.798C67.059 120.209 67.2595 120.518 67.5545 120.723C67.8528 120.929 68.2422 121.031 68.7228 121.031C69.2697 121.031 69.7039 120.915 70.0254 120.683C70.3502 120.448 70.5126 120.166 70.5126 119.838C70.5126 119.573 70.4198 119.351 70.2342 119.172C70.0486 118.99 69.7636 118.854 69.3791 118.764L68.1064 118.466C67.407 118.3 66.8933 118.043 66.5652 117.695C66.2404 117.344 66.0779 116.905 66.0779 116.378C66.0779 115.947 66.1989 115.566 66.4409 115.234C66.6861 114.903 67.0192 114.643 67.4402 114.454C67.8644 114.265 68.345 114.17 68.8819 114.17C69.6376 114.17 70.2309 114.336 70.6618 114.668C71.0959 114.999 71.4042 115.437 71.5865 115.98ZM73.4918 121.906V114.27H74.6651V121.906H73.4918ZM74.0884 112.997C73.8597 112.997 73.6625 112.919 73.4968 112.763C73.3344 112.608 73.2532 112.42 73.2532 112.202C73.2532 111.983 73.3344 111.796 73.4968 111.64C73.6625 111.484 73.8597 111.406 74.0884 111.406C74.3171 111.406 74.5127 111.484 74.6751 111.64C74.8408 111.796 74.9237 111.983 74.9237 112.202C74.9237 112.42 74.8408 112.608 74.6751 112.763C74.5127 112.919 74.3171 112.997 74.0884 112.997ZM79.8965 124.929C79.3297 124.929 78.8425 124.856 78.4348 124.71C78.0272 124.568 77.6874 124.379 77.4157 124.143C77.1472 123.911 76.9334 123.663 76.7743 123.398L77.709 122.741C77.815 122.881 77.9493 123.04 78.1117 123.219C78.2741 123.401 78.4962 123.558 78.7779 123.691C79.0629 123.827 79.4358 123.895 79.8965 123.895C80.513 123.895 81.0217 123.746 81.4228 123.447C81.8238 123.149 82.0243 122.682 82.0243 122.045V120.494H81.9249C81.8387 120.634 81.7161 120.806 81.557 121.011C81.4012 121.214 81.1758 121.394 80.8809 121.553C80.5892 121.709 80.1948 121.787 79.6976 121.787C79.0811 121.787 78.5276 121.641 78.0371 121.349C77.5499 121.058 77.1638 120.634 76.8787 120.077C76.597 119.52 76.4561 118.844 76.4561 118.048C76.4561 117.266 76.5937 116.585 76.8688 116.005C77.1439 115.422 77.5267 114.971 78.0172 114.653C78.5078 114.331 79.0745 114.17 79.7175 114.17C80.2147 114.17 80.6091 114.253 80.9007 114.419C81.1957 114.581 81.4211 114.767 81.5769 114.976C81.736 115.181 81.8586 115.35 81.9448 115.483H82.0641V114.27H83.1976V122.125C83.1976 122.781 83.0485 123.315 82.7502 123.726C82.4552 124.14 82.0575 124.443 81.557 124.636C81.0598 124.831 80.5063 124.929 79.8965 124.929ZM79.8567 120.733C80.3274 120.733 80.7251 120.625 81.0499 120.41C81.3747 120.194 81.6216 119.884 81.7907 119.48C81.9597 119.076 82.0442 118.592 82.0442 118.028C82.0442 117.478 81.9614 116.993 81.7956 116.572C81.6299 116.151 81.3846 115.821 81.0598 115.582C80.735 115.344 80.334 115.224 79.8567 115.224C79.3596 115.224 78.9453 115.35 78.6138 115.602C78.2857 115.854 78.0388 116.192 77.873 116.616C77.7106 117.041 77.6294 117.511 77.6294 118.028C77.6294 118.559 77.7123 119.028 77.878 119.435C78.0471 119.84 78.2956 120.158 78.6238 120.39C78.9552 120.619 79.3662 120.733 79.8567 120.733ZM86.5186 117.312V121.906H85.3453V114.27H86.4789V115.463H86.5783C86.7573 115.075 87.0291 114.764 87.3936 114.528C87.7582 114.29 88.2289 114.17 88.8056 114.17C89.3226 114.17 89.775 114.277 90.1628 114.489C90.5506 114.697 90.8522 115.016 91.0676 115.443C91.2831 115.867 91.3908 116.404 91.3908 117.054V121.906H90.2175V117.134C90.2175 116.534 90.0617 116.066 89.7502 115.732C89.4386 115.393 89.0111 115.224 88.4675 115.224C88.093 115.224 87.7582 115.306 87.4632 115.468C87.1716 115.63 86.9412 115.867 86.7722 116.179C86.6032 116.491 86.5186 116.868 86.5186 117.312ZM100.793 114.27V115.264H96.8359V114.27H100.793ZM97.9893 112.44H99.1626V119.719C99.1626 120.05 99.2107 120.299 99.3068 120.464C99.4063 120.627 99.5322 120.736 99.6847 120.793C99.8404 120.846 100.004 120.872 100.177 120.872C100.306 120.872 100.412 120.866 100.495 120.852C100.578 120.836 100.644 120.822 100.694 120.812L100.933 121.866C100.853 121.896 100.742 121.926 100.599 121.956C100.457 121.989 100.276 122.006 100.058 122.006C99.7261 122.006 99.4013 121.934 99.0831 121.792C98.7682 121.649 98.5064 121.432 98.2976 121.141C98.0921 120.849 97.9893 120.481 97.9893 120.037V112.44ZM105.578 122.065C104.889 122.065 104.284 121.901 103.764 121.573C103.247 121.245 102.842 120.786 102.551 120.196C102.262 119.606 102.118 118.917 102.118 118.128C102.118 117.332 102.262 116.638 102.551 116.045C102.842 115.451 103.247 114.991 103.764 114.663C104.284 114.335 104.889 114.17 105.578 114.17C106.268 114.17 106.871 114.335 107.388 114.663C107.908 114.991 108.313 115.451 108.601 116.045C108.893 116.638 109.039 117.332 109.039 118.128C109.039 118.917 108.893 119.606 108.601 120.196C108.313 120.786 107.908 121.245 107.388 121.573C106.871 121.901 106.268 122.065 105.578 122.065ZM105.578 121.011C106.102 121.011 106.533 120.877 106.871 120.609C107.209 120.34 107.459 119.987 107.622 119.55C107.784 119.112 107.865 118.638 107.865 118.128C107.865 117.617 107.784 117.142 107.622 116.701C107.459 116.26 107.209 115.904 106.871 115.632C106.533 115.36 106.102 115.224 105.578 115.224C105.055 115.224 104.624 115.36 104.286 115.632C103.948 115.904 103.698 116.26 103.535 116.701C103.373 117.142 103.292 117.617 103.292 118.128C103.292 118.638 103.373 119.112 103.535 119.55C103.698 119.987 103.948 120.34 104.286 120.609C104.624 120.877 105.055 121.011 105.578 121.011ZM111.685 121.986C111.44 121.986 111.229 121.898 111.053 121.722C110.878 121.547 110.79 121.336 110.79 121.091C110.79 120.846 110.878 120.635 111.053 120.46C111.229 120.284 111.44 120.196 111.685 120.196C111.93 120.196 112.141 120.284 112.316 120.46C112.492 120.635 112.58 120.846 112.58 121.091C112.58 121.253 112.538 121.402 112.455 121.538C112.376 121.674 112.268 121.784 112.132 121.866C112 121.946 111.851 121.986 111.685 121.986ZM115.503 121.986C115.258 121.986 115.047 121.898 114.872 121.722C114.696 121.547 114.608 121.336 114.608 121.091C114.608 120.846 114.696 120.635 114.872 120.46C115.047 120.284 115.258 120.196 115.503 120.196C115.748 120.196 115.959 120.284 116.134 120.46C116.31 120.635 116.398 120.846 116.398 121.091C116.398 121.253 116.356 121.402 116.274 121.538C116.194 121.674 116.086 121.784 115.95 121.866C115.818 121.946 115.669 121.986 115.503 121.986ZM119.321 121.986C119.076 121.986 118.865 121.898 118.69 121.722C118.514 121.547 118.426 121.336 118.426 121.091C118.426 120.846 118.514 120.635 118.69 120.46C118.865 120.284 119.076 120.196 119.321 120.196C119.566 120.196 119.777 120.284 119.953 120.46C120.128 120.635 120.216 120.846 120.216 121.091C120.216 121.253 120.175 121.402 120.092 121.538C120.012 121.674 119.905 121.784 119.769 121.866C119.636 121.946 119.487 121.986 119.321 121.986Z" fill="#F7F8F8"/>
<g clip-path="url(#clip4_0_1)">
<path d="M32.6711 164.674C32.6711 166.778 30.9655 168.483 28.8616 168.483L28.8613 160.864C30.9653 160.864 32.6711 162.57 32.6711 164.674Z" fill="#8A8F98"/>
<path fill-rule="evenodd" clip-rule="evenodd" d="M28.8612 170.54C32.1013 170.54 34.7279 167.914 34.7279 164.674C34.7279 161.434 32.1013 158.807 28.8612 158.807C25.6211 158.807 22.9945 161.434 22.9945 164.674C22.9945 167.914 25.6211 170.54 28.8612 170.54ZM28.8612 172.14C32.9849 172.14 36.3279 168.797 36.3279 164.674C36.3279 160.55 32.9849 157.207 28.8612 157.207C24.7375 157.207 21.3945 160.55 21.3945 164.674C21.3945 168.797 24.7375 172.14 28.8612 172.14Z" fill="#8A8F98"/>
</g>
<path d="M57.7543 160.906H56.5213C56.4484 160.552 56.3208 160.24 56.1385 159.972C55.9595 159.703 55.7408 159.478 55.4822 159.295C55.227 159.11 54.9437 158.971 54.6321 158.878C54.3205 158.785 53.9957 158.739 53.6577 158.739C53.0412 158.739 52.4827 158.894 51.9822 159.206C51.4851 159.518 51.089 159.977 50.794 160.583C50.5024 161.19 50.3565 161.934 50.3565 162.815C50.3565 163.697 50.5024 164.441 50.794 165.048C51.089 165.654 51.4851 166.113 51.9822 166.425C52.4827 166.736 53.0412 166.892 53.6577 166.892C53.9957 166.892 54.3205 166.846 54.6321 166.753C54.9437 166.66 55.227 166.522 55.4822 166.34C55.7408 166.155 55.9595 165.928 56.1385 165.659C56.3208 165.387 56.4484 165.076 56.5213 164.724H57.7543C57.6615 165.245 57.4924 165.71 57.2472 166.121C57.0019 166.532 56.697 166.882 56.3324 167.17C55.9678 167.455 55.5585 167.673 55.1044 167.822C54.6536 167.971 54.1714 168.045 53.6577 168.045C52.7893 168.045 52.017 167.833 51.3409 167.409C50.6648 166.985 50.1328 166.382 49.745 165.599C49.3572 164.817 49.1634 163.889 49.1634 162.815C49.1634 161.741 49.3572 160.813 49.745 160.031C50.1328 159.249 50.6648 158.646 51.3409 158.222C52.017 157.797 52.7893 157.585 53.6577 157.585C54.1714 157.585 54.6536 157.66 55.1044 157.809C55.5585 157.958 55.9678 158.177 56.3324 158.465C56.697 158.75 57.0019 159.098 57.2472 159.509C57.4924 159.917 57.6615 160.383 57.7543 160.906ZM60.7608 163.312V167.906H59.5875V157.724H60.7608V161.463H60.8603C61.0392 161.069 61.3077 160.755 61.6657 160.523C62.0269 160.288 62.5075 160.17 63.1074 160.17C63.6278 160.17 64.0835 160.275 64.4746 160.484C64.8657 160.689 65.169 161.006 65.3844 161.433C65.6032 161.857 65.7125 162.398 65.7125 163.054V167.906H64.5392V163.134C64.5392 162.527 64.3818 162.058 64.0669 161.727C63.7554 161.392 63.3229 161.224 62.7694 161.224C62.3849 161.224 62.0402 161.306 61.7353 161.468C61.4337 161.63 61.195 161.867 61.0194 162.179C60.847 162.491 60.7608 162.868 60.7608 163.312ZM70.1062 168.085C69.6223 168.085 69.1831 167.994 68.7887 167.812C68.3943 167.626 68.0811 167.359 67.8491 167.011C67.6171 166.66 67.5011 166.236 67.5011 165.739C67.5011 165.301 67.5872 164.946 67.7596 164.675C67.9319 164.4 68.1623 164.184 68.4506 164.028C68.739 163.873 69.0572 163.757 69.4052 163.68C69.7565 163.601 70.1095 163.538 70.4641 163.491C70.9281 163.432 71.3043 163.387 71.5927 163.357C71.8844 163.324 72.0965 163.269 72.229 163.193C72.3649 163.117 72.4329 162.984 72.4329 162.795V162.756C72.4329 162.265 72.2987 161.884 72.0302 161.612C71.765 161.34 71.3623 161.205 70.8221 161.205C70.262 161.205 69.8228 161.327 69.5046 161.572C69.1864 161.818 68.9627 162.08 68.8335 162.358L67.7198 161.96C67.9187 161.496 68.1838 161.135 68.5153 160.876C68.85 160.615 69.2146 160.432 69.609 160.33C70.0067 160.223 70.3978 160.17 70.7823 160.17C71.0276 160.17 71.3093 160.2 71.6275 160.26C71.949 160.316 72.2589 160.434 72.5572 160.613C72.8588 160.792 73.109 161.062 73.3079 161.423C73.5067 161.785 73.6062 162.268 73.6062 162.875V167.906H72.4329V166.872H72.3732C72.2937 167.038 72.1611 167.215 71.9755 167.404C71.7899 167.593 71.543 167.754 71.2347 167.886C70.9265 168.019 70.5503 168.085 70.1062 168.085ZM70.2852 167.031C70.7492 167.031 71.1403 166.94 71.4585 166.758C71.7799 166.576 72.0219 166.34 72.1843 166.052C72.35 165.763 72.4329 165.46 72.4329 165.142V164.068C72.3832 164.128 72.2738 164.183 72.1048 164.232C71.939 164.279 71.7468 164.32 71.5281 164.357C71.3126 164.39 71.1022 164.42 70.8967 164.446C70.6945 164.469 70.5304 164.489 70.4045 164.506C70.0996 164.545 69.8145 164.61 69.5494 164.7C69.2875 164.786 69.0754 164.917 68.913 165.092C68.7539 165.265 68.6744 165.5 68.6744 165.798C68.6744 166.206 68.8252 166.514 69.1268 166.723C69.4317 166.929 69.8178 167.031 70.2852 167.031ZM76.921 163.312V167.906H75.7477V160.27H76.8812V161.463H76.9806C77.1596 161.075 77.4314 160.764 77.796 160.528C78.1606 160.29 78.6312 160.17 79.2079 160.17C79.725 160.17 80.1774 160.277 80.5652 160.489C80.9529 160.697 81.2546 161.016 81.47 161.443C81.6854 161.867 81.7931 162.404 81.7931 163.054V167.906H80.6199V163.134C80.6199 162.534 80.4641 162.066 80.1525 161.732C79.841 161.393 79.4134 161.224 78.8699 161.224C78.4953 161.224 78.1606 161.306 77.8656 161.468C77.5739 161.63 77.3436 161.867 77.1745 162.179C77.0055 162.491 76.921 162.868 76.921 163.312ZM87.0195 170.929C86.4528 170.929 85.9656 170.856 85.5579 170.71C85.1502 170.568 84.8105 170.379 84.5387 170.143C84.2702 169.911 84.0565 169.663 83.8974 169.398L84.832 168.741C84.9381 168.881 85.0723 169.04 85.2347 169.219C85.3971 169.401 85.6192 169.558 85.9009 169.691C86.186 169.827 86.5588 169.895 87.0195 169.895C87.636 169.895 88.1448 169.746 88.5458 169.447C88.9469 169.149 89.1474 168.682 89.1474 168.045V166.494H89.0479C88.9618 166.634 88.8391 166.806 88.68 167.011C88.5243 167.214 88.2989 167.394 88.0039 167.553C87.7122 167.709 87.3178 167.787 86.8207 167.787C86.2042 167.787 85.6507 167.641 85.1602 167.349C84.6729 167.058 84.2868 166.634 84.0018 166.077C83.7201 165.52 83.5792 164.844 83.5792 164.048C83.5792 163.266 83.7167 162.585 83.9918 162.005C84.2669 161.422 84.6497 160.971 85.1403 160.653C85.6308 160.331 86.1976 160.17 86.8406 160.17C87.3377 160.17 87.7321 160.253 88.0238 160.419C88.3188 160.581 88.5442 160.767 88.6999 160.976C88.859 161.181 88.9817 161.35 89.0678 161.483H89.1871V160.27H90.3207V168.125C90.3207 168.781 90.1715 169.315 89.8732 169.726C89.5782 170.14 89.1805 170.443 88.68 170.636C88.1829 170.831 87.6294 170.929 87.0195 170.929ZM86.9798 166.733C87.4504 166.733 87.8481 166.625 88.1729 166.41C88.4978 166.194 88.7447 165.884 88.9137 165.48C89.0827 165.076 89.1673 164.592 89.1673 164.028C89.1673 163.478 89.0844 162.993 88.9187 162.572C88.753 162.151 88.5077 161.821 88.1829 161.582C87.8581 161.344 87.457 161.224 86.9798 161.224C86.4826 161.224 86.0683 161.35 85.7369 161.602C85.4087 161.854 85.1618 162.192 84.9961 162.616C84.8337 163.041 84.7525 163.511 84.7525 164.028C84.7525 164.559 84.8353 165.028 85.0011 165.435C85.1701 165.84 85.4187 166.158 85.7468 166.39C86.0782 166.619 86.4892 166.733 86.9798 166.733ZM95.6701 168.065C94.9343 168.065 94.2996 167.903 93.766 167.578C93.2357 167.25 92.8263 166.793 92.538 166.206C92.253 165.616 92.1104 164.93 92.1104 164.148C92.1104 163.366 92.253 162.676 92.538 162.08C92.8263 161.48 93.2274 161.012 93.7411 160.678C94.2582 160.339 94.8614 160.17 95.5508 160.17C95.9485 160.17 96.3413 160.237 96.729 160.369C97.1168 160.502 97.4698 160.717 97.788 161.016C98.1062 161.311 98.3597 161.702 98.5487 162.189C98.7376 162.676 98.832 163.276 98.832 163.989V164.486H92.9457V163.472H97.6388C97.6388 163.041 97.5527 162.656 97.3803 162.318C97.2113 161.98 96.9693 161.713 96.6545 161.518C96.3429 161.322 95.975 161.224 95.5508 161.224C95.0835 161.224 94.6791 161.34 94.3377 161.572C93.9996 161.801 93.7395 162.099 93.5572 162.467C93.3749 162.835 93.2837 163.23 93.2837 163.651V164.327C93.2837 164.903 93.3832 165.392 93.582 165.793C93.7842 166.191 94.0643 166.494 94.4222 166.703C94.7802 166.909 95.1961 167.011 95.6701 167.011C95.9783 167.011 96.2567 166.968 96.5053 166.882C96.7572 166.793 96.9743 166.66 97.1566 166.484C97.3389 166.305 97.4798 166.083 97.5792 165.818L98.7127 166.136C98.5934 166.521 98.3929 166.859 98.1112 167.151C97.8294 167.439 97.4814 167.664 97.0671 167.827C96.6528 167.986 96.1871 168.065 95.6701 168.065ZM109.963 161.98L108.909 162.278C108.843 162.103 108.745 161.932 108.616 161.766C108.49 161.597 108.318 161.458 108.099 161.349C107.88 161.239 107.6 161.185 107.259 161.185C106.792 161.185 106.402 161.292 106.091 161.508C105.782 161.72 105.628 161.99 105.628 162.318C105.628 162.61 105.734 162.84 105.946 163.009C106.158 163.178 106.49 163.319 106.941 163.432L108.074 163.71C108.757 163.876 109.266 164.129 109.6 164.471C109.935 164.809 110.103 165.245 110.103 165.778C110.103 166.216 109.977 166.607 109.725 166.952C109.476 167.296 109.128 167.568 108.681 167.767C108.233 167.966 107.713 168.065 107.12 168.065C106.341 168.065 105.696 167.896 105.186 167.558C104.675 167.22 104.352 166.726 104.216 166.077L105.33 165.798C105.436 166.209 105.636 166.518 105.931 166.723C106.23 166.929 106.619 167.031 107.1 167.031C107.647 167.031 108.081 166.915 108.402 166.683C108.727 166.448 108.89 166.166 108.89 165.838C108.89 165.573 108.797 165.351 108.611 165.172C108.426 164.99 108.141 164.854 107.756 164.764L106.483 164.466C105.784 164.3 105.27 164.043 104.942 163.695C104.617 163.344 104.455 162.905 104.455 162.378C104.455 161.947 104.576 161.566 104.818 161.234C105.063 160.903 105.396 160.643 105.817 160.454C106.241 160.265 106.722 160.17 107.259 160.17C108.015 160.17 108.608 160.336 109.039 160.668C109.473 160.999 109.781 161.437 109.963 161.98ZM115.19 160.27V161.264H111.232V160.27H115.19ZM112.386 158.44H113.559V165.719C113.559 166.05 113.607 166.299 113.703 166.464C113.803 166.627 113.929 166.736 114.081 166.793C114.237 166.846 114.401 166.872 114.573 166.872C114.703 166.872 114.809 166.866 114.892 166.852C114.974 166.836 115.041 166.822 115.09 166.812L115.329 167.866C115.249 167.896 115.138 167.926 114.996 167.956C114.853 167.989 114.673 168.006 114.454 168.006C114.123 168.006 113.798 167.934 113.48 167.792C113.165 167.649 112.903 167.432 112.694 167.141C112.489 166.849 112.386 166.481 112.386 166.037V158.44ZM119.202 168.085C118.718 168.085 118.279 167.994 117.884 167.812C117.49 167.626 117.177 167.359 116.945 167.011C116.713 166.66 116.597 166.236 116.597 165.739C116.597 165.301 116.683 164.946 116.855 164.675C117.028 164.4 117.258 164.184 117.546 164.028C117.835 163.873 118.153 163.757 118.501 163.68C118.852 163.601 119.205 163.538 119.56 163.491C120.024 163.432 120.4 163.387 120.688 163.357C120.98 163.324 121.192 163.269 121.325 163.193C121.461 163.117 121.529 162.984 121.529 162.795V162.756C121.529 162.265 121.394 161.884 121.126 161.612C120.861 161.34 120.458 161.205 119.918 161.205C119.358 161.205 118.919 161.327 118.6 161.572C118.282 161.818 118.058 162.08 117.929 162.358L116.816 161.96C117.014 161.496 117.28 161.135 117.611 160.876C117.946 160.615 118.31 160.432 118.705 160.33C119.102 160.223 119.494 160.17 119.878 160.17C120.123 160.17 120.405 160.2 120.723 160.26C121.045 160.316 121.355 160.434 121.653 160.613C121.954 160.792 122.205 161.062 122.404 161.423C122.602 161.785 122.702 162.268 122.702 162.875V167.906H121.529V166.872H121.469C121.389 167.038 121.257 167.215 121.071 167.404C120.886 167.593 120.639 167.754 120.33 167.886C120.022 168.019 119.646 168.085 119.202 168.085ZM119.381 167.031C119.845 167.031 120.236 166.94 120.554 166.758C120.876 166.576 121.118 166.34 121.28 166.052C121.446 165.763 121.529 165.46 121.529 165.142V164.068C121.479 164.128 121.369 164.183 121.2 164.232C121.035 164.279 120.843 164.32 120.624 164.357C120.408 164.39 120.198 164.42 119.992 164.446C119.79 164.469 119.626 164.489 119.5 164.506C119.195 164.545 118.91 164.61 118.645 164.7C118.383 164.786 118.171 164.917 118.009 165.092C117.85 165.265 117.77 165.5 117.77 165.798C117.77 166.206 117.921 166.514 118.222 166.723C118.527 166.929 118.914 167.031 119.381 167.031ZM128.164 160.27V161.264H124.207V160.27H128.164ZM125.36 158.44H126.534V165.719C126.534 166.05 126.582 166.299 126.678 166.464C126.777 166.627 126.903 166.736 127.056 166.793C127.212 166.846 127.376 166.872 127.548 166.872C127.677 166.872 127.783 166.866 127.866 166.852C127.949 166.836 128.015 166.822 128.065 166.812L128.304 167.866C128.224 167.896 128.113 167.926 127.971 167.956C127.828 167.989 127.647 168.006 127.429 168.006C127.097 168.006 126.772 167.934 126.454 167.792C126.139 167.649 125.877 167.432 125.669 167.141C125.463 166.849 125.36 166.481 125.36 166.037V158.44ZM134.742 164.784V160.27H135.915V167.906H134.742V166.614H134.662C134.483 167.001 134.205 167.331 133.827 167.603C133.449 167.871 132.972 168.006 132.395 168.006C131.918 168.006 131.494 167.901 131.123 167.692C130.751 167.48 130.46 167.162 130.248 166.738C130.035 166.31 129.929 165.772 129.929 165.122V160.27H131.103V165.043C131.103 165.599 131.258 166.044 131.57 166.375C131.885 166.706 132.286 166.872 132.773 166.872C133.065 166.872 133.361 166.798 133.663 166.648C133.968 166.499 134.223 166.271 134.429 165.962C134.637 165.654 134.742 165.261 134.742 164.784ZM143.473 161.98L142.419 162.278C142.353 162.103 142.255 161.932 142.126 161.766C142 161.597 141.828 161.458 141.609 161.349C141.39 161.239 141.11 161.185 140.769 161.185C140.301 161.185 139.912 161.292 139.6 161.508C139.292 161.72 139.138 161.99 139.138 162.318C139.138 162.61 139.244 162.84 139.456 163.009C139.668 163.178 140 163.319 140.45 163.432L141.584 163.71C142.267 163.876 142.776 164.129 143.11 164.471C143.445 164.809 143.612 165.245 143.612 165.778C143.612 166.216 143.486 166.607 143.235 166.952C142.986 167.296 142.638 167.568 142.191 167.767C141.743 167.966 141.223 168.065 140.629 168.065C139.851 168.065 139.206 167.896 138.695 167.558C138.185 167.22 137.862 166.726 137.726 166.077L138.84 165.798C138.946 166.209 139.146 166.518 139.441 166.723C139.74 166.929 140.129 167.031 140.61 167.031C141.156 167.031 141.591 166.915 141.912 166.683C142.237 166.448 142.399 166.166 142.399 165.838C142.399 165.573 142.307 165.351 142.121 165.172C141.935 164.99 141.65 164.854 141.266 164.764L139.993 164.466C139.294 164.3 138.78 164.043 138.452 163.695C138.127 163.344 137.965 162.905 137.965 162.378C137.965 161.947 138.086 161.566 138.328 161.234C138.573 160.903 138.906 160.643 139.327 160.454C139.751 160.265 140.232 160.17 140.769 160.17C141.524 160.17 142.118 160.336 142.548 160.668C142.983 160.999 143.291 161.437 143.473 161.98ZM146.234 167.986C145.988 167.986 145.778 167.898 145.602 167.722C145.427 167.547 145.339 167.336 145.339 167.091C145.339 166.846 145.427 166.635 145.602 166.46C145.778 166.284 145.988 166.196 146.234 166.196C146.479 166.196 146.689 166.284 146.865 166.46C147.041 166.635 147.129 166.846 147.129 167.091C147.129 167.253 147.087 167.402 147.004 167.538C146.925 167.674 146.817 167.784 146.681 167.866C146.549 167.946 146.399 167.986 146.234 167.986ZM150.052 167.986C149.807 167.986 149.596 167.898 149.42 167.722C149.245 167.547 149.157 167.336 149.157 167.091C149.157 166.846 149.245 166.635 149.42 166.46C149.596 166.284 149.807 166.196 150.052 166.196C150.297 166.196 150.508 166.284 150.683 166.46C150.859 166.635 150.947 166.846 150.947 167.091C150.947 167.253 150.905 167.402 150.822 167.538C150.743 167.674 150.635 167.784 150.499 167.866C150.367 167.946 150.218 167.986 150.052 167.986ZM153.87 167.986C153.625 167.986 153.414 167.898 153.239 167.722C153.063 167.547 152.975 167.336 152.975 167.091C152.975 166.846 153.063 166.635 153.239 166.46C153.414 166.284 153.625 166.196 153.87 166.196C154.115 166.196 154.326 166.284 154.501 166.46C154.677 166.635 154.765 166.846 154.765 167.091C154.765 167.253 154.723 167.402 154.641 167.538C154.561 167.674 154.453 167.784 154.317 167.866C154.185 167.946 154.036 167.986 153.87 167.986Z" fill="#F7F8F8"/>
<g clip-path="url(#clip5_0_1)">
<path d="M23.3281 210.141H22.3281C21.7758 210.141 21.3281 210.588 21.3281 211.141V215.141C21.3281 215.693 21.7758 216.141 22.3281 216.141H23.3281C23.8804 216.141 24.3281 215.693 24.3281 215.141V211.141C24.3281 210.588 23.8804 210.141 23.3281 210.141Z" fill="#8A8F98"/>
<path d="M28.3281 207.141H27.3281C26.7758 207.141 26.3281 207.588 26.3281 208.141V215.141C26.3281 215.693 26.7758 216.141 27.3281 216.141H28.3281C28.8804 216.141 29.3281 215.693 29.3281 215.141V208.141C29.3281 207.588 28.8804 207.141 28.3281 207.141Z" fill="#8A8F98"/>
<path d="M33.3281 204.141H32.3281C31.7758 204.141 31.3281 204.588 31.3281 205.141V215.141C31.3281 215.693 31.7758 216.141 32.3281 216.141H33.3281C33.8804 216.141 34.3281 215.693 34.3281 215.141V205.141C34.3281 204.588 33.8804 204.141 33.3281 204.141Z" fill="#8A8F98"/>
</g>
<path d="M57.7543 206.906H56.5213C56.4484 206.552 56.3208 206.24 56.1385 205.972C55.9595 205.703 55.7408 205.478 55.4822 205.295C55.227 205.11 54.9437 204.971 54.6321 204.878C54.3205 204.785 53.9957 204.739 53.6577 204.739C53.0412 204.739 52.4827 204.894 51.9822 205.206C51.4851 205.518 51.089 205.977 50.794 206.583C50.5024 207.19 50.3565 207.934 50.3565 208.815C50.3565 209.697 50.5024 210.441 50.794 211.048C51.089 211.654 51.4851 212.113 51.9822 212.425C52.4827 212.736 53.0412 212.892 53.6577 212.892C53.9957 212.892 54.3205 212.846 54.6321 212.753C54.9437 212.66 55.227 212.522 55.4822 212.34C55.7408 212.155 55.9595 211.928 56.1385 211.659C56.3208 211.387 56.4484 211.076 56.5213 210.724H57.7543C57.6615 211.245 57.4924 211.71 57.2472 212.121C57.0019 212.532 56.697 212.882 56.3324 213.17C55.9678 213.455 55.5585 213.673 55.1044 213.822C54.6536 213.971 54.1714 214.045 53.6577 214.045C52.7893 214.045 52.017 213.833 51.3409 213.409C50.6648 212.985 50.1328 212.382 49.745 211.599C49.3572 210.817 49.1634 209.889 49.1634 208.815C49.1634 207.741 49.3572 206.813 49.745 206.031C50.1328 205.249 50.6648 204.646 51.3409 204.222C52.017 203.797 52.7893 203.585 53.6577 203.585C54.1714 203.585 54.6536 203.66 55.1044 203.809C55.5585 203.958 55.9678 204.177 56.3324 204.465C56.697 204.75 57.0019 205.098 57.2472 205.509C57.4924 205.917 57.6615 206.383 57.7543 206.906ZM60.7608 209.312V213.906H59.5875V203.724H60.7608V207.463H60.8603C61.0392 207.069 61.3077 206.755 61.6657 206.523C62.0269 206.288 62.5075 206.17 63.1074 206.17C63.6278 206.17 64.0835 206.275 64.4746 206.484C64.8657 206.689 65.169 207.006 65.3844 207.433C65.6032 207.857 65.7125 208.398 65.7125 209.054V213.906H64.5392V209.134C64.5392 208.527 64.3818 208.058 64.0669 207.727C63.7554 207.392 63.3229 207.224 62.7694 207.224C62.3849 207.224 62.0402 207.306 61.7353 207.468C61.4337 207.63 61.195 207.867 61.0194 208.179C60.847 208.491 60.7608 208.868 60.7608 209.312ZM70.1062 214.085C69.6223 214.085 69.1831 213.994 68.7887 213.812C68.3943 213.626 68.0811 213.359 67.8491 213.011C67.6171 212.66 67.5011 212.236 67.5011 211.739C67.5011 211.301 67.5872 210.946 67.7596 210.675C67.9319 210.4 68.1623 210.184 68.4506 210.028C68.739 209.873 69.0572 209.757 69.4052 209.68C69.7565 209.601 70.1095 209.538 70.4641 209.491C70.9281 209.432 71.3043 209.387 71.5927 209.357C71.8844 209.324 72.0965 209.269 72.229 209.193C72.3649 209.117 72.4329 208.984 72.4329 208.795V208.756C72.4329 208.265 72.2987 207.884 72.0302 207.612C71.765 207.34 71.3623 207.205 70.8221 207.205C70.262 207.205 69.8228 207.327 69.5046 207.572C69.1864 207.818 68.9627 208.08 68.8335 208.358L67.7198 207.96C67.9187 207.496 68.1838 207.135 68.5153 206.876C68.85 206.615 69.2146 206.432 69.609 206.33C70.0067 206.223 70.3978 206.17 70.7823 206.17C71.0276 206.17 71.3093 206.2 71.6275 206.26C71.949 206.316 72.2589 206.434 72.5572 206.613C72.8588 206.792 73.109 207.062 73.3079 207.423C73.5067 207.785 73.6062 208.268 73.6062 208.875V213.906H72.4329V212.872H72.3732C72.2937 213.038 72.1611 213.215 71.9755 213.404C71.7899 213.593 71.543 213.754 71.2347 213.886C70.9265 214.019 70.5503 214.085 70.1062 214.085ZM70.2852 213.031C70.7492 213.031 71.1403 212.94 71.4585 212.758C71.7799 212.576 72.0219 212.34 72.1843 212.052C72.35 211.763 72.4329 211.46 72.4329 211.142V210.068C72.3832 210.128 72.2738 210.183 72.1048 210.232C71.939 210.279 71.7468 210.32 71.5281 210.357C71.3126 210.39 71.1022 210.42 70.8967 210.446C70.6945 210.469 70.5304 210.489 70.4045 210.506C70.0996 210.545 69.8145 210.61 69.5494 210.7C69.2875 210.786 69.0754 210.917 68.913 211.092C68.7539 211.265 68.6744 211.5 68.6744 211.798C68.6744 212.206 68.8252 212.514 69.1268 212.723C69.4317 212.929 69.8178 213.031 70.2852 213.031ZM76.921 209.312V213.906H75.7477V206.27H76.8812V207.463H76.9806C77.1596 207.075 77.4314 206.764 77.796 206.528C78.1606 206.29 78.6312 206.17 79.2079 206.17C79.725 206.17 80.1774 206.277 80.5652 206.489C80.9529 206.697 81.2546 207.016 81.47 207.443C81.6854 207.867 81.7931 208.404 81.7931 209.054V213.906H80.6199V209.134C80.6199 208.534 80.4641 208.066 80.1525 207.732C79.841 207.393 79.4134 207.224 78.8699 207.224C78.4953 207.224 78.1606 207.306 77.8656 207.468C77.5739 207.63 77.3436 207.867 77.1745 208.179C77.0055 208.491 76.921 208.868 76.921 209.312ZM87.0195 216.929C86.4528 216.929 85.9656 216.856 85.5579 216.71C85.1502 216.568 84.8105 216.379 84.5387 216.143C84.2702 215.911 84.0565 215.663 83.8974 215.398L84.832 214.741C84.9381 214.881 85.0723 215.04 85.2347 215.219C85.3971 215.401 85.6192 215.558 85.9009 215.691C86.186 215.827 86.5588 215.895 87.0195 215.895C87.636 215.895 88.1448 215.746 88.5458 215.447C88.9469 215.149 89.1474 214.682 89.1474 214.045V212.494H89.0479C88.9618 212.634 88.8391 212.806 88.68 213.011C88.5243 213.214 88.2989 213.394 88.0039 213.553C87.7122 213.709 87.3178 213.787 86.8207 213.787C86.2042 213.787 85.6507 213.641 85.1602 213.349C84.6729 213.058 84.2868 212.634 84.0018 212.077C83.7201 211.52 83.5792 210.844 83.5792 210.048C83.5792 209.266 83.7167 208.585 83.9918 208.005C84.2669 207.422 84.6497 206.971 85.1403 206.653C85.6308 206.331 86.1976 206.17 86.8406 206.17C87.3377 206.17 87.7321 206.253 88.0238 206.419C88.3188 206.581 88.5442 206.767 88.6999 206.976C88.859 207.181 88.9817 207.35 89.0678 207.483H89.1871V206.27H90.3207V214.125C90.3207 214.781 90.1715 215.315 89.8732 215.726C89.5782 216.14 89.1805 216.443 88.68 216.636C88.1829 216.831 87.6294 216.929 87.0195 216.929ZM86.9798 212.733C87.4504 212.733 87.8481 212.625 88.1729 212.41C88.4978 212.194 88.7447 211.884 88.9137 211.48C89.0827 211.076 89.1673 210.592 89.1673 210.028C89.1673 209.478 89.0844 208.993 88.9187 208.572C88.753 208.151 88.5077 207.821 88.1829 207.582C87.8581 207.344 87.457 207.224 86.9798 207.224C86.4826 207.224 86.0683 207.35 85.7369 207.602C85.4087 207.854 85.1618 208.192 84.9961 208.616C84.8337 209.041 84.7525 209.511 84.7525 210.028C84.7525 210.559 84.8353 211.028 85.0011 211.435C85.1701 211.84 85.4187 212.158 85.7468 212.39C86.0782 212.619 86.4892 212.733 86.9798 212.733ZM95.6701 214.065C94.9343 214.065 94.2996 213.903 93.766 213.578C93.2357 213.25 92.8263 212.793 92.538 212.206C92.253 211.616 92.1104 210.93 92.1104 210.148C92.1104 209.366 92.253 208.676 92.538 208.08C92.8263 207.48 93.2274 207.012 93.7411 206.678C94.2582 206.339 94.8614 206.17 95.5508 206.17C95.9485 206.17 96.3413 206.237 96.729 206.369C97.1168 206.502 97.4698 206.717 97.788 207.016C98.1062 207.311 98.3597 207.702 98.5487 208.189C98.7376 208.676 98.832 209.276 98.832 209.989V210.486H92.9457V209.472H97.6388C97.6388 209.041 97.5527 208.656 97.3803 208.318C97.2113 207.98 96.9693 207.713 96.6545 207.518C96.3429 207.322 95.975 207.224 95.5508 207.224C95.0835 207.224 94.6791 207.34 94.3377 207.572C93.9996 207.801 93.7395 208.099 93.5572 208.467C93.3749 208.835 93.2837 209.23 93.2837 209.651V210.327C93.2837 210.903 93.3832 211.392 93.582 211.793C93.7842 212.191 94.0643 212.494 94.4222 212.703C94.7802 212.909 95.1961 213.011 95.6701 213.011C95.9783 213.011 96.2567 212.968 96.5053 212.882C96.7572 212.793 96.9743 212.66 97.1566 212.484C97.3389 212.305 97.4798 212.083 97.5792 211.818L98.7127 212.136C98.5934 212.521 98.3929 212.859 98.1112 213.151C97.8294 213.439 97.4814 213.664 97.0671 213.827C96.6528 213.986 96.1871 214.065 95.6701 214.065ZM104.554 216.77V206.27H105.688V207.483H105.827C105.913 207.35 106.033 207.181 106.185 206.976C106.341 206.767 106.563 206.581 106.851 206.419C107.143 206.253 107.537 206.17 108.034 206.17C108.677 206.17 109.244 206.331 109.735 206.653C110.225 206.974 110.608 207.43 110.883 208.02C111.158 208.61 111.296 209.306 111.296 210.108C111.296 210.917 111.158 211.618 110.883 212.211C110.608 212.801 110.227 213.258 109.74 213.583C109.252 213.905 108.691 214.065 108.054 214.065C107.564 214.065 107.171 213.984 106.876 213.822C106.581 213.656 106.354 213.469 106.195 213.26C106.036 213.048 105.913 212.872 105.827 212.733H105.728V216.77H104.554ZM105.708 210.088C105.708 210.665 105.792 211.174 105.961 211.614C106.13 212.052 106.377 212.395 106.702 212.643C107.027 212.889 107.425 213.011 107.895 213.011C108.386 213.011 108.795 212.882 109.123 212.624C109.455 212.362 109.703 212.01 109.869 211.57C110.038 211.125 110.123 210.632 110.123 210.088C110.123 209.551 110.04 209.067 109.874 208.636C109.712 208.202 109.465 207.859 109.133 207.607C108.805 207.352 108.392 207.224 107.895 207.224C107.418 207.224 107.017 207.345 106.692 207.587C106.367 207.826 106.122 208.161 105.956 208.592C105.791 209.019 105.708 209.518 105.708 210.088ZM113.086 213.906V206.27H114.219V207.423H114.299C114.438 207.045 114.69 206.739 115.054 206.504C115.419 206.268 115.83 206.151 116.287 206.151C116.373 206.151 116.481 206.152 116.61 206.156C116.74 206.159 116.837 206.164 116.904 206.17V207.364C116.864 207.354 116.773 207.339 116.63 207.319C116.491 207.296 116.344 207.284 116.188 207.284C115.817 207.284 115.485 207.362 115.194 207.518C114.905 207.67 114.676 207.882 114.507 208.154C114.342 208.423 114.259 208.729 114.259 209.074V213.906H113.086ZM118.295 213.906V206.27H119.468V213.906H118.295ZM118.891 204.997C118.662 204.997 118.465 204.919 118.3 204.763C118.137 204.608 118.056 204.42 118.056 204.202C118.056 203.983 118.137 203.796 118.3 203.64C118.465 203.484 118.662 203.406 118.891 203.406C119.12 203.406 119.315 203.484 119.478 203.64C119.644 203.796 119.726 203.983 119.726 204.202C119.726 204.42 119.644 204.608 119.478 204.763C119.315 204.919 119.12 204.997 118.891 204.997ZM124.719 214.065C124.03 214.065 123.425 213.901 122.904 213.573C122.387 213.245 121.983 212.786 121.691 212.196C121.403 211.606 121.259 210.917 121.259 210.128C121.259 209.332 121.403 208.638 121.691 208.045C121.983 207.451 122.387 206.991 122.904 206.663C123.425 206.335 124.03 206.17 124.719 206.17C125.408 206.17 126.012 206.335 126.529 206.663C127.049 206.991 127.453 207.451 127.742 208.045C128.033 208.638 128.179 209.332 128.179 210.128C128.179 210.917 128.033 211.606 127.742 212.196C127.453 212.786 127.049 213.245 126.529 213.573C126.012 213.901 125.408 214.065 124.719 214.065ZM124.719 213.011C125.243 213.011 125.674 212.877 126.012 212.609C126.35 212.34 126.6 211.987 126.762 211.55C126.925 211.112 127.006 210.638 127.006 210.128C127.006 209.617 126.925 209.142 126.762 208.701C126.6 208.26 126.35 207.904 126.012 207.632C125.674 207.36 125.243 207.224 124.719 207.224C124.195 207.224 123.765 207.36 123.426 207.632C123.088 207.904 122.838 208.26 122.676 208.701C122.513 209.142 122.432 209.617 122.432 210.128C122.432 210.638 122.513 211.112 122.676 211.55C122.838 211.987 123.088 212.34 123.426 212.609C123.765 212.877 124.195 213.011 124.719 213.011ZM129.97 213.906V206.27H131.104V207.423H131.183C131.323 207.045 131.575 206.739 131.939 206.504C132.304 206.268 132.715 206.151 133.172 206.151C133.258 206.151 133.366 206.152 133.495 206.156C133.624 206.159 133.722 206.164 133.789 206.17V207.364C133.749 207.354 133.658 207.339 133.515 207.319C133.376 207.296 133.228 207.284 133.073 207.284C132.701 207.284 132.37 207.362 132.078 207.518C131.79 207.67 131.561 207.882 131.392 208.154C131.227 208.423 131.144 208.729 131.144 209.074V213.906H129.97ZM135.179 213.906V206.27H136.353V213.906H135.179ZM135.776 204.997C135.547 204.997 135.35 204.919 135.184 204.763C135.022 204.608 134.941 204.42 134.941 204.202C134.941 203.983 135.022 203.796 135.184 203.64C135.35 203.484 135.547 203.406 135.776 203.406C136.005 203.406 136.2 203.484 136.363 203.64C136.528 203.796 136.611 203.983 136.611 204.202C136.611 204.42 136.528 204.608 136.363 204.763C136.2 204.919 136.005 204.997 135.776 204.997ZM141.823 206.27V207.264H137.865V206.27H141.823ZM139.019 204.44H140.192V211.719C140.192 212.05 140.24 212.299 140.336 212.464C140.436 212.627 140.561 212.736 140.714 212.793C140.87 212.846 141.034 212.872 141.206 212.872C141.335 212.872 141.441 212.866 141.524 212.852C141.607 212.836 141.673 212.822 141.723 212.812L141.962 213.866C141.882 213.896 141.771 213.926 141.629 213.956C141.486 213.989 141.306 214.006 141.087 214.006C140.755 214.006 140.431 213.934 140.112 213.792C139.798 213.649 139.536 213.432 139.327 213.141C139.121 212.849 139.019 212.481 139.019 212.037V204.44ZM144.343 216.77C144.144 216.77 143.967 216.753 143.811 216.72C143.655 216.69 143.548 216.661 143.488 216.631L143.786 215.597C144.071 215.67 144.323 215.696 144.542 215.676C144.761 215.656 144.955 215.558 145.124 215.383C145.296 215.21 145.454 214.93 145.596 214.543L145.815 213.946L142.991 206.27H144.264L146.372 212.355H146.451L148.559 206.27H149.832L146.59 215.02C146.445 215.414 146.264 215.741 146.048 215.999C145.833 216.261 145.583 216.455 145.298 216.581C145.016 216.707 144.698 216.77 144.343 216.77ZM151.197 213.986C150.951 213.986 150.741 213.898 150.565 213.722C150.39 213.547 150.302 213.336 150.302 213.091C150.302 212.846 150.39 212.635 150.565 212.46C150.741 212.284 150.951 212.196 151.197 212.196C151.442 212.196 151.652 212.284 151.828 212.46C152.004 212.635 152.091 212.846 152.091 213.091C152.091 213.253 152.05 213.402 151.967 213.538C151.888 213.674 151.78 213.784 151.644 213.866C151.511 213.946 151.362 213.986 151.197 213.986ZM155.015 213.986C154.769 213.986 154.559 213.898 154.383 213.722C154.208 213.547 154.12 213.336 154.12 213.091C154.12 212.846 154.208 212.635 154.383 212.46C154.559 212.284 154.769 212.196 155.015 212.196C155.26 212.196 155.47 212.284 155.646 212.46C155.822 212.635 155.91 212.846 155.91 213.091C155.91 213.253 155.868 213.402 155.785 213.538C155.706 213.674 155.598 213.784 155.462 213.866C155.33 213.946 155.18 213.986 155.015 213.986ZM158.833 213.986C158.588 213.986 158.377 213.898 158.202 213.722C158.026 213.547 157.938 213.336 157.938 213.091C157.938 212.846 158.026 212.635 158.202 212.46C158.377 212.284 158.588 212.196 158.833 212.196C159.078 212.196 159.289 212.284 159.464 212.46C159.64 212.635 159.728 212.846 159.728 213.091C159.728 213.253 159.686 213.402 159.604 213.538C159.524 213.674 159.416 213.784 159.28 213.866C159.148 213.946 158.999 213.986 158.833 213.986Z" fill="#F7F8F8"/>
<g clip-path="url(#clip6_0_1)">
<path fill-rule="evenodd" clip-rule="evenodd" d="M30.5386 252.141C30.9618 252.141 31.3407 252.329 31.5681 252.621L34.3281 256.141L31.5681 259.661C31.3407 259.952 30.9618 260.141 30.5386 260.141L23.5913 260.135C22.8965 260.135 22.3281 259.626 22.3281 258.998V253.283C22.3281 252.655 22.8965 252.146 23.5913 252.146L30.5386 252.141ZM31.4531 257.141C32.0054 257.141 32.4531 256.693 32.4531 256.141C32.4531 255.588 32.0054 255.141 31.4531 255.141C30.9008 255.141 30.4531 255.588 30.4531 256.141C30.4531 256.693 30.9008 257.141 31.4531 257.141Z" fill="#8A8F98"/>
</g>
<path d="M49.9787 259.906H48.6861L52.4247 249.724H53.6974L57.4361 259.906H56.1435L53.1009 251.335H53.0213L49.9787 259.906ZM50.456 255.929H55.6662V257.023H50.456V255.929ZM61.7464 260.065C61.1101 260.065 60.5483 259.905 60.0611 259.583C59.5739 259.258 59.1927 258.801 58.9176 258.211C58.6425 257.618 58.505 256.917 58.505 256.108C58.505 255.306 58.6425 254.61 58.9176 254.02C59.1927 253.43 59.5755 252.974 60.0661 252.653C60.5566 252.331 61.1233 252.17 61.7663 252.17C62.2635 252.17 62.6563 252.253 62.9446 252.419C63.2363 252.581 63.4583 252.767 63.6108 252.976C63.7666 253.181 63.8875 253.35 63.9737 253.483H64.0732V249.724H65.2464V259.906H64.1129V258.733H63.9737C63.8875 258.872 63.7649 259.048 63.6058 259.26C63.4467 259.469 63.2197 259.656 62.9247 259.822C62.6297 259.984 62.237 260.065 61.7464 260.065ZM61.9055 259.011C62.3762 259.011 62.7739 258.889 63.0987 258.643C63.4235 258.395 63.6705 258.052 63.8395 257.614C64.0085 257.174 64.093 256.665 64.093 256.088C64.093 255.518 64.0102 255.019 63.8445 254.592C63.6787 254.161 63.4335 253.826 63.1087 253.587C62.7839 253.345 62.3828 253.224 61.9055 253.224C61.4084 253.224 60.9941 253.352 60.6626 253.607C60.3345 253.859 60.0876 254.202 59.9219 254.636C59.7595 255.067 59.6783 255.551 59.6783 256.088C59.6783 256.632 59.7611 257.125 59.9268 257.57C60.0959 258.01 60.3445 258.362 60.6726 258.624C61.004 258.882 61.415 259.011 61.9055 259.011ZM70.4418 260.065C69.8054 260.065 69.2436 259.905 68.7564 259.583C68.2692 259.258 67.888 258.801 67.6129 258.211C67.3378 257.618 67.2003 256.917 67.2003 256.108C67.2003 255.306 67.3378 254.61 67.6129 254.02C67.888 253.43 68.2708 252.974 68.7614 252.653C69.2519 252.331 69.8187 252.17 70.4616 252.17C70.9588 252.17 71.3516 252.253 71.6399 252.419C71.9316 252.581 72.1536 252.767 72.3061 252.976C72.4619 253.181 72.5829 253.35 72.669 253.483H72.7685V249.724H73.9418V259.906H72.8082V258.733H72.669C72.5829 258.872 72.4602 259.048 72.3011 259.26C72.142 259.469 71.915 259.656 71.62 259.822C71.325 259.984 70.9323 260.065 70.4418 260.065ZM70.6009 259.011C71.0715 259.011 71.4692 258.889 71.794 258.643C72.1188 258.395 72.3658 258.052 72.5348 257.614C72.7038 257.174 72.7884 256.665 72.7884 256.088C72.7884 255.518 72.7055 255.019 72.5398 254.592C72.3741 254.161 72.1288 253.826 71.804 253.587C71.4792 253.345 71.0781 253.224 70.6009 253.224C70.1037 253.224 69.6894 253.352 69.358 253.607C69.0298 253.859 68.7829 254.202 68.6172 254.636C68.4548 255.067 68.3736 255.551 68.3736 256.088C68.3736 256.632 68.4564 257.125 68.6222 257.57C68.7912 258.01 69.0398 258.362 69.3679 258.624C69.6993 258.882 70.1103 259.011 70.6009 259.011ZM81.3643 249.724V259.906H80.1911V249.724H81.3643ZM85.7605 260.085C85.2766 260.085 84.8374 259.994 84.443 259.812C84.0486 259.626 83.7354 259.359 83.5034 259.011C83.2714 258.66 83.1554 258.236 83.1554 257.739C83.1554 257.301 83.2415 256.946 83.4139 256.675C83.5862 256.4 83.8166 256.184 84.1049 256.028C84.3933 255.873 84.7115 255.757 85.0595 255.68C85.4108 255.601 85.7638 255.538 86.1184 255.491C86.5824 255.432 86.9586 255.387 87.247 255.357C87.5386 255.324 87.7508 255.269 87.8833 255.193C88.0192 255.117 88.0872 254.984 88.0872 254.795V254.756C88.0872 254.265 87.9529 253.884 87.6845 253.612C87.4193 253.34 87.0166 253.205 86.4764 253.205C85.9163 253.205 85.4771 253.327 85.1589 253.572C84.8407 253.818 84.617 254.08 84.4877 254.358L83.3741 253.96C83.573 253.496 83.8381 253.135 84.1696 252.876C84.5043 252.615 84.8689 252.432 85.2633 252.33C85.661 252.223 86.0521 252.17 86.4366 252.17C86.6819 252.17 86.9636 252.2 87.2818 252.26C87.6033 252.316 87.9132 252.434 88.2115 252.613C88.5131 252.792 88.7633 253.062 88.9622 253.423C89.161 253.785 89.2605 254.268 89.2605 254.875V259.906H88.0872V258.872H88.0275C87.948 259.038 87.8154 259.215 87.6298 259.404C87.4442 259.593 87.1973 259.754 86.889 259.886C86.5808 260.019 86.2046 260.085 85.7605 260.085ZM85.9395 259.031C86.4035 259.031 86.7946 258.94 87.1127 258.758C87.4342 258.576 87.6762 258.34 87.8386 258.052C88.0043 257.763 88.0872 257.46 88.0872 257.142V256.068C88.0375 256.128 87.9281 256.183 87.7591 256.232C87.5933 256.279 87.4011 256.32 87.1824 256.357C86.9669 256.39 86.7565 256.42 86.551 256.446C86.3488 256.469 86.1847 256.489 86.0588 256.506C85.7538 256.545 85.4688 256.61 85.2037 256.7C84.9418 256.786 84.7297 256.917 84.5673 257.092C84.4082 257.265 84.3287 257.5 84.3287 257.798C84.3287 258.206 84.4795 258.514 84.7811 258.723C85.086 258.929 85.4721 259.031 85.9395 259.031ZM91.5611 259.906V249.724H92.7344V253.483H92.8338C92.92 253.35 93.0393 253.181 93.1918 252.976C93.3475 252.767 93.5696 252.581 93.858 252.419C94.1496 252.253 94.544 252.17 95.0412 252.17C95.6842 252.17 96.2509 252.331 96.7415 252.653C97.232 252.974 97.6148 253.43 97.8899 254.02C98.165 254.61 98.3026 255.306 98.3026 256.108C98.3026 256.917 98.165 257.618 97.8899 258.211C97.6148 258.801 97.2337 259.258 96.7464 259.583C96.2592 259.905 95.6974 260.065 95.0611 260.065C94.5705 260.065 94.1778 259.984 93.8828 259.822C93.5878 259.656 93.3608 259.469 93.2017 259.26C93.0426 259.048 92.92 258.872 92.8338 258.733H92.6946V259.906H91.5611ZM92.7145 256.088C92.7145 256.665 92.799 257.174 92.968 257.614C93.1371 258.052 93.384 258.395 93.7088 258.643C94.0336 258.889 94.4313 259.011 94.902 259.011C95.3925 259.011 95.8018 258.882 96.13 258.624C96.4614 258.362 96.71 258.01 96.8757 257.57C97.0447 257.125 97.1293 256.632 97.1293 256.088C97.1293 255.551 97.0464 255.067 96.8807 254.636C96.7183 254.202 96.4714 253.859 96.1399 253.607C95.8118 253.352 95.3991 253.224 94.902 253.224C94.4247 253.224 94.0237 253.345 93.6989 253.587C93.3741 253.826 93.1288 254.161 92.9631 254.592C92.7973 255.019 92.7145 255.518 92.7145 256.088ZM103.299 260.065C102.563 260.065 101.929 259.903 101.395 259.578C100.865 259.25 100.455 258.793 100.167 258.206C99.8819 257.616 99.7393 256.93 99.7393 256.148C99.7393 255.366 99.8819 254.676 100.167 254.08C100.455 253.48 100.856 253.012 101.37 252.678C101.887 252.339 102.49 252.17 103.18 252.17C103.577 252.17 103.97 252.237 104.358 252.369C104.746 252.502 105.099 252.717 105.417 253.016C105.735 253.311 105.989 253.702 106.178 254.189C106.366 254.676 106.461 255.276 106.461 255.989V256.486H100.575V255.472H105.268C105.268 255.041 105.182 254.656 105.009 254.318C104.84 253.98 104.598 253.713 104.283 253.518C103.972 253.322 103.604 253.224 103.18 253.224C102.712 253.224 102.308 253.34 101.967 253.572C101.629 253.801 101.368 254.099 101.186 254.467C101.004 254.835 100.913 255.23 100.913 255.651V256.327C100.913 256.903 101.012 257.392 101.211 257.793C101.413 258.191 101.693 258.494 102.051 258.703C102.409 258.909 102.825 259.011 103.299 259.011C103.607 259.011 103.886 258.968 104.134 258.882C104.386 258.793 104.603 258.66 104.786 258.484C104.968 258.305 105.109 258.083 105.208 257.818L106.342 258.136C106.222 258.521 106.022 258.859 105.74 259.151C105.458 259.439 105.11 259.664 104.696 259.827C104.282 259.986 103.816 260.065 103.299 260.065ZM109.419 249.724V259.906H108.246V249.724H109.419ZM116.977 253.98L115.923 254.278C115.857 254.103 115.759 253.932 115.63 253.766C115.504 253.597 115.331 253.458 115.113 253.349C114.894 253.239 114.614 253.185 114.273 253.185C113.805 253.185 113.416 253.292 113.104 253.508C112.796 253.72 112.642 253.99 112.642 254.318C112.642 254.61 112.748 254.84 112.96 255.009C113.172 255.178 113.504 255.319 113.954 255.432L115.088 255.71C115.771 255.876 116.279 256.129 116.614 256.471C116.949 256.809 117.116 257.245 117.116 257.778C117.116 258.216 116.99 258.607 116.738 258.952C116.49 259.296 116.142 259.568 115.694 259.767C115.247 259.966 114.727 260.065 114.133 260.065C113.354 260.065 112.71 259.896 112.199 259.558C111.689 259.22 111.366 258.726 111.23 258.077L112.344 257.798C112.45 258.209 112.65 258.518 112.945 258.723C113.243 258.929 113.633 259.031 114.113 259.031C114.66 259.031 115.095 258.915 115.416 258.683C115.741 258.448 115.903 258.166 115.903 257.838C115.903 257.573 115.81 257.351 115.625 257.172C115.439 256.99 115.154 256.854 114.77 256.764L113.497 256.466C112.798 256.3 112.284 256.043 111.956 255.695C111.631 255.344 111.469 254.905 111.469 254.378C111.469 253.947 111.59 253.566 111.831 253.234C112.077 252.903 112.41 252.643 112.831 252.454C113.255 252.265 113.736 252.17 114.273 252.17C115.028 252.17 115.622 252.336 116.052 252.668C116.487 252.999 116.795 253.437 116.977 253.98ZM119.738 259.986C119.492 259.986 119.282 259.898 119.106 259.722C118.931 259.547 118.843 259.336 118.843 259.091C118.843 258.846 118.931 258.635 119.106 258.46C119.282 258.284 119.492 258.196 119.738 258.196C119.983 258.196 120.193 258.284 120.369 258.46C120.545 258.635 120.632 258.846 120.632 259.091C120.632 259.253 120.591 259.402 120.508 259.538C120.429 259.674 120.321 259.784 120.185 259.866C120.052 259.946 119.903 259.986 119.738 259.986ZM123.556 259.986C123.31 259.986 123.1 259.898 122.924 259.722C122.749 259.547 122.661 259.336 122.661 259.091C122.661 258.846 122.749 258.635 122.924 258.46C123.1 258.284 123.31 258.196 123.556 258.196C123.801 258.196 124.011 258.284 124.187 258.46C124.363 258.635 124.451 258.846 124.451 259.091C124.451 259.253 124.409 259.402 124.326 259.538C124.247 259.674 124.139 259.784 124.003 259.866C123.871 259.946 123.721 259.986 123.556 259.986ZM127.374 259.986C127.129 259.986 126.918 259.898 126.743 259.722C126.567 259.547 126.479 259.336 126.479 259.091C126.479 258.846 126.567 258.635 126.743 258.46C126.918 258.284 127.129 258.196 127.374 258.196C127.619 258.196 127.83 258.284 128.005 258.46C128.181 258.635 128.269 258.846 128.269 259.091C128.269 259.253 128.227 259.402 128.145 259.538C128.065 259.674 127.957 259.784 127.821 259.866C127.689 259.946 127.54 259.986 127.374 259.986Z" fill="#F7F8F8"/>
</g>
<rect x="19.3281" y="51.6719" width="2" height="24" rx="1" fill="#8A8F98"/>
<path d="M21.1974 58.2216V56.8153H31.0156V58.2216H26.8991V69.9062H25.3139V58.2216H21.1974ZM33.1042 73.5881C32.8485 73.5881 32.6206 73.5668 32.4203 73.5241C32.22 73.4858 32.0815 73.4474 32.0048 73.4091L32.3883 72.0795C32.7548 72.1733 33.0787 72.2074 33.3599 72.1818C33.6412 72.1562 33.8904 72.0305 34.1078 71.8047C34.3294 71.5831 34.5318 71.223 34.715 70.7244L34.9963 69.9574L31.3656 60.0881H33.002L35.7122 67.9119H35.8145L38.5247 60.0881H40.161L35.9934 71.3381C35.8059 71.8452 35.5737 72.2649 35.2967 72.5973C35.0197 72.9339 34.698 73.1832 34.3315 73.3452C33.9693 73.5071 33.5602 73.5881 33.1042 73.5881ZM42.1522 73.5881V60.0881H43.6096V61.6477H43.7885C43.8993 61.4773 44.0527 61.2599 44.2488 60.9957C44.449 60.7273 44.7346 60.4886 45.1053 60.2798C45.4803 60.0668 45.9874 59.9602 46.6266 59.9602C47.4533 59.9602 48.182 60.1669 48.8127 60.5803C49.4434 60.9936 49.9355 61.5795 50.2892 62.3381C50.6429 63.0966 50.8198 63.9915 50.8198 65.0227C50.8198 66.0625 50.6429 66.9638 50.2892 67.7266C49.9355 68.4851 49.4455 69.0732 48.8191 69.4908C48.1926 69.9041 47.4703 70.1108 46.6522 70.1108C46.0215 70.1108 45.5165 70.0064 45.1373 69.7976C44.758 69.5845 44.4661 69.3437 44.2615 69.0753C44.057 68.8026 43.8993 68.5767 43.7885 68.3977H43.6607V73.5881H42.1522ZM43.6351 64.9972C43.6351 65.7386 43.7438 66.3928 43.9611 66.9595C44.1784 67.522 44.4959 67.9631 44.9135 68.2827C45.3311 68.598 45.8425 68.7557 46.4476 68.7557C47.0783 68.7557 47.6046 68.5895 48.0265 68.2571C48.4526 67.9205 48.7722 67.4687 48.9853 66.902C49.2026 66.331 49.3113 65.696 49.3113 64.9972C49.3113 64.3068 49.2047 63.6847 48.9917 63.1307C48.7828 62.5724 48.4654 62.1314 48.0392 61.8075C47.6174 61.4794 47.0868 61.3153 46.4476 61.3153C45.834 61.3153 45.3184 61.4709 44.9007 61.782C44.4831 62.0888 44.1678 62.5192 43.9547 63.0732C43.7417 63.6229 43.6351 64.2642 43.6351 64.9972ZM57.2374 70.1108C56.2914 70.1108 55.4753 69.902 54.7892 69.4844C54.1074 69.0625 53.5811 68.4744 53.2104 67.7202C52.8439 66.9616 52.6607 66.0795 52.6607 65.0739C52.6607 64.0682 52.8439 63.1818 53.2104 62.4148C53.5811 61.6435 54.0968 61.0426 54.7573 60.6122C55.4221 60.1776 56.1976 59.9602 57.084 59.9602C57.5953 59.9602 58.1003 60.0455 58.5989 60.2159C59.0975 60.3864 59.5513 60.6634 59.9604 61.0469C60.3695 61.4261 60.6955 61.929 60.9384 62.5554C61.1813 63.1818 61.3027 63.9531 61.3027 64.8693V65.5085H53.7346V64.2045H59.7686C59.7686 63.6506 59.6578 63.1562 59.4363 62.7216C59.2189 62.2869 58.9078 61.9439 58.503 61.6925C58.1025 61.4411 57.6294 61.3153 57.084 61.3153C56.4831 61.3153 55.9632 61.4645 55.5243 61.7628C55.0897 62.0568 54.7551 62.4403 54.5208 62.9134C54.2864 63.3864 54.1692 63.8935 54.1692 64.4347V65.304C54.1692 66.0455 54.2971 66.674 54.5527 67.1896C54.8127 67.701 55.1728 68.0909 55.633 68.3594C56.0932 68.6236 56.628 68.7557 57.2374 68.7557C57.6337 68.7557 57.9917 68.7003 58.3113 68.5895C58.6351 68.4744 58.9142 68.304 59.1486 68.0781C59.383 67.848 59.5641 67.5625 59.6919 67.2216L61.1493 67.6307C60.9959 68.125 60.7381 68.5597 60.3759 68.9347C60.0137 69.3054 59.5662 69.5952 59.0336 69.804C58.5009 70.0085 57.9022 70.1108 57.2374 70.1108ZM71.5492 70.1364C70.927 70.1364 70.3624 70.0192 69.8553 69.7848C69.3482 69.5462 68.9455 69.2031 68.6472 68.7557C68.3489 68.304 68.1998 67.7585 68.1998 67.1193C68.1998 66.5568 68.3105 66.1009 68.5321 65.7514C68.7537 65.3977 69.0499 65.1207 69.4206 64.9205C69.7914 64.7202 70.2005 64.571 70.6479 64.473C71.0996 64.3707 71.5534 64.2898 72.0094 64.2301C72.606 64.1534 73.0897 64.0959 73.4604 64.0575C73.8354 64.0149 74.1081 63.9446 74.2786 63.8466C74.4533 63.7486 74.5407 63.5781 74.5407 63.3352V63.2841C74.5407 62.6534 74.3681 62.1634 74.0229 61.8139C73.682 61.4645 73.1642 61.2898 72.4696 61.2898C71.7495 61.2898 71.1848 61.4474 70.7757 61.7628C70.3667 62.0781 70.079 62.4148 69.9128 62.7727L68.481 62.2614C68.7367 61.6648 69.0776 61.2003 69.5037 60.8679C69.9341 60.5312 70.4029 60.2969 70.91 60.1648C71.4213 60.0284 71.9242 59.9602 72.4185 59.9602C72.7338 59.9602 73.0961 59.9986 73.5051 60.0753C73.9185 60.1477 74.3169 60.299 74.7005 60.5291C75.0882 60.7592 75.41 61.1065 75.6657 61.571C75.9213 62.0355 76.0492 62.6577 76.0492 63.4375V69.9062H74.5407V68.5767H74.464C74.3617 68.7898 74.1912 69.0178 73.9526 69.2607C73.714 69.5036 73.3965 69.7102 73.0002 69.8807C72.6039 70.0511 72.1202 70.1364 71.5492 70.1364ZM71.7793 68.7812C72.3759 68.7812 72.8787 68.6641 73.2878 68.4297C73.7012 68.1953 74.0123 67.8928 74.2211 67.522C74.4341 67.1513 74.5407 66.7614 74.5407 66.3523V64.9716C74.4767 65.0483 74.3361 65.1186 74.1188 65.1825C73.9057 65.2422 73.6586 65.2955 73.3773 65.3423C73.1003 65.3849 72.8297 65.4233 72.5655 65.4574C72.3056 65.4872 72.0946 65.5128 71.9327 65.5341C71.5407 65.5852 71.1742 65.6683 70.8333 65.7834C70.4966 65.8942 70.2239 66.0625 70.0151 66.2884C69.8105 66.5099 69.7083 66.8125 69.7083 67.196C69.7083 67.7202 69.9022 68.1165 70.29 68.3849C70.682 68.6491 71.1784 68.7812 71.7793 68.7812ZM87.8537 70.1108C86.9332 70.1108 86.1406 69.8935 85.4759 69.4588C84.8111 69.0241 84.2997 68.4254 83.9418 67.6626C83.5838 66.8999 83.4048 66.0284 83.4048 65.0483C83.4048 64.0511 83.5881 63.1712 83.9545 62.4084C84.3253 61.6413 84.8409 61.0426 85.5014 60.6122C86.1662 60.1776 86.9418 59.9602 87.8281 59.9602C88.5185 59.9602 89.1406 60.0881 89.6946 60.3438C90.2486 60.5994 90.7024 60.9574 91.0561 61.4176C91.4098 61.8778 91.6293 62.4148 91.7145 63.0284H90.206C90.0909 62.581 89.8352 62.1847 89.4389 61.8395C89.0469 61.4901 88.5185 61.3153 87.8537 61.3153C87.2656 61.3153 86.75 61.4687 86.3068 61.7756C85.8679 62.0781 85.5249 62.5064 85.2777 63.0604C85.0348 63.6101 84.9134 64.2557 84.9134 64.9972C84.9134 65.7557 85.0327 66.4162 85.2713 66.9787C85.5142 67.5412 85.8551 67.978 86.294 68.2891C86.7372 68.6001 87.2571 68.7557 87.8537 68.7557C88.2457 68.7557 88.6016 68.6875 88.9212 68.5511C89.2408 68.4148 89.5114 68.2188 89.733 67.9631C89.9545 67.7074 90.1122 67.4006 90.206 67.0426H91.7145C91.6293 67.6222 91.4183 68.1442 91.0817 68.6087C90.7493 69.0689 90.3082 69.4354 89.7585 69.7081C89.2131 69.9766 88.5781 70.1108 87.8537 70.1108ZM97.9084 70.1108C97.022 70.1108 96.2443 69.8999 95.5753 69.478C94.9105 69.0561 94.3906 68.4659 94.0156 67.7074C93.6449 66.9489 93.4595 66.0625 93.4595 65.0483C93.4595 64.0256 93.6449 63.1328 94.0156 62.37C94.3906 61.6072 94.9105 61.0149 95.5753 60.593C96.2443 60.1712 97.022 59.9602 97.9084 59.9602C98.7947 59.9602 99.5703 60.1712 100.235 60.593C100.904 61.0149 101.424 61.6072 101.795 62.37C102.17 63.1328 102.357 64.0256 102.357 65.0483C102.357 66.0625 102.17 66.9489 101.795 67.7074C101.424 68.4659 100.904 69.0561 100.235 69.478C99.5703 69.8999 98.7947 70.1108 97.9084 70.1108ZM97.9084 68.7557C98.5817 68.7557 99.1357 68.5831 99.5703 68.2379C100.005 67.8928 100.327 67.4389 100.536 66.8764C100.744 66.3139 100.849 65.7045 100.849 65.0483C100.849 64.392 100.744 63.7805 100.536 63.2138C100.327 62.647 100.005 62.1889 99.5703 61.8395C99.1357 61.4901 98.5817 61.3153 97.9084 61.3153C97.2351 61.3153 96.6811 61.4901 96.2464 61.8395C95.8118 62.1889 95.4901 62.647 95.2812 63.2138C95.0724 63.7805 94.968 64.392 94.968 65.0483C94.968 65.7045 95.0724 66.3139 95.2812 66.8764C95.4901 67.4389 95.8118 67.8928 96.2464 68.2379C96.6811 68.5831 97.2351 68.7557 97.9084 68.7557ZM104.66 69.9062V60.0881H106.117V61.6222H106.245C106.45 61.098 106.78 60.6911 107.236 60.4013C107.692 60.1072 108.24 59.9602 108.879 59.9602C109.526 59.9602 110.066 60.1072 110.496 60.4013C110.931 60.6911 111.269 61.098 111.512 61.6222H111.615C111.866 61.1151 112.243 60.7124 112.746 60.4141C113.249 60.1115 113.852 59.9602 114.555 59.9602C115.433 59.9602 116.151 60.2351 116.709 60.7848C117.267 61.3303 117.546 62.1804 117.546 63.3352V69.9062H116.038V63.3352C116.038 62.6108 115.84 62.093 115.443 61.782C115.047 61.4709 114.58 61.3153 114.044 61.3153C113.353 61.3153 112.818 61.5241 112.439 61.9418C112.06 62.3551 111.87 62.8793 111.87 63.5142V69.9062H110.336V63.1818C110.336 62.6236 110.155 62.174 109.793 61.8331C109.431 61.4879 108.964 61.3153 108.393 61.3153C108.001 61.3153 107.634 61.4197 107.294 61.6286C106.957 61.8374 106.684 62.1271 106.475 62.4979C106.271 62.8643 106.169 63.2884 106.169 63.7699V69.9062H104.66ZM120.305 69.9062V60.0881H121.762V61.6222H121.89C122.094 61.098 122.425 60.6911 122.881 60.4013C123.336 60.1072 123.884 59.9602 124.523 59.9602C125.171 59.9602 125.71 60.1072 126.14 60.4013C126.575 60.6911 126.914 61.098 127.157 61.6222H127.259C127.51 61.1151 127.888 60.7124 128.39 60.4141C128.893 60.1115 129.496 59.9602 130.199 59.9602C131.077 59.9602 131.795 60.2351 132.354 60.7848C132.912 61.3303 133.191 62.1804 133.191 63.3352V69.9062H131.682V63.3352C131.682 62.6108 131.484 62.093 131.088 61.782C130.692 61.4709 130.225 61.3153 129.688 61.3153C128.998 61.3153 128.463 61.5241 128.084 61.9418C127.704 62.3551 127.515 62.8793 127.515 63.5142V69.9062H125.981V63.1818C125.981 62.6236 125.8 62.174 125.437 61.8331C125.075 61.4879 124.608 61.3153 124.037 61.3153C123.645 61.3153 123.279 61.4197 122.938 61.6286C122.601 61.8374 122.329 62.1271 122.12 62.4979C121.915 62.8643 121.813 63.2884 121.813 63.7699V69.9062H120.305ZM138.838 70.1364C138.216 70.1364 137.651 70.0192 137.144 69.7848C136.637 69.5462 136.235 69.2031 135.936 68.7557C135.638 68.304 135.489 67.7585 135.489 67.1193C135.489 66.5568 135.6 66.1009 135.821 65.7514C136.043 65.3977 136.339 65.1207 136.71 64.9205C137.08 64.7202 137.49 64.571 137.937 64.473C138.389 64.3707 138.843 64.2898 139.298 64.2301C139.895 64.1534 140.379 64.0959 140.749 64.0575C141.124 64.0149 141.397 63.9446 141.568 63.8466C141.742 63.7486 141.83 63.5781 141.83 63.3352V63.2841C141.83 62.6534 141.657 62.1634 141.312 61.8139C140.971 61.4645 140.453 61.2898 139.759 61.2898C139.039 61.2898 138.474 61.4474 138.065 61.7628C137.656 62.0781 137.368 62.4148 137.202 62.7727L135.77 62.2614C136.026 61.6648 136.367 61.2003 136.793 60.8679C137.223 60.5312 137.692 60.2969 138.199 60.1648C138.71 60.0284 139.213 59.9602 139.708 59.9602C140.023 59.9602 140.385 59.9986 140.794 60.0753C141.208 60.1477 141.606 60.299 141.99 60.5291C142.377 60.7592 142.699 61.1065 142.955 61.571C143.21 62.0355 143.338 62.6577 143.338 63.4375V69.9062H141.83V68.5767H141.753C141.651 68.7898 141.48 69.0178 141.242 69.2607C141.003 69.5036 140.686 69.7102 140.289 69.8807C139.893 70.0511 139.409 70.1364 138.838 70.1364ZM139.068 68.7812C139.665 68.7812 140.168 68.6641 140.577 68.4297C140.99 68.1953 141.301 67.8928 141.51 67.522C141.723 67.1513 141.83 66.7614 141.83 66.3523V64.9716C141.766 65.0483 141.625 65.1186 141.408 65.1825C141.195 65.2422 140.948 65.2955 140.666 65.3423C140.389 65.3849 140.119 65.4233 139.855 65.4574C139.595 65.4872 139.384 65.5128 139.222 65.5341C138.83 65.5852 138.463 65.6683 138.122 65.7834C137.786 65.8942 137.513 66.0625 137.304 66.2884C137.1 66.5099 136.997 66.8125 136.997 67.196C136.997 67.7202 137.191 68.1165 137.579 68.3849C137.971 68.6491 138.468 68.7812 139.068 68.7812ZM147.6 64V69.9062H146.092V60.0881H147.549V61.6222H147.677C147.907 61.1236 148.256 60.723 148.725 60.4205C149.194 60.1136 149.799 59.9602 150.54 59.9602C151.205 59.9602 151.787 60.0966 152.286 60.3693C152.784 60.6378 153.172 61.0469 153.449 61.5966C153.726 62.142 153.864 62.8324 153.864 63.6676V69.9062H152.356V63.7699C152.356 62.9986 152.156 62.3977 151.755 61.9673C151.354 61.5327 150.805 61.3153 150.106 61.3153C149.624 61.3153 149.194 61.4197 148.815 61.6286C148.44 61.8374 148.143 62.142 147.926 62.5426C147.709 62.9432 147.6 63.429 147.6 64ZM160.328 70.1108C159.51 70.1108 158.788 69.9041 158.161 69.4908C157.535 69.0732 157.045 68.4851 156.691 67.7266C156.338 66.9638 156.161 66.0625 156.161 65.0227C156.161 63.9915 156.338 63.0966 156.691 62.3381C157.045 61.5795 157.537 60.9936 158.168 60.5803C158.798 60.1669 159.527 59.9602 160.354 59.9602C160.993 59.9602 161.498 60.0668 161.869 60.2798C162.244 60.4886 162.529 60.7273 162.725 60.9957C162.926 61.2599 163.081 61.4773 163.192 61.6477H163.32V56.8153H164.828V69.9062H163.371V68.3977H163.192C163.081 68.5767 162.923 68.8026 162.719 69.0753C162.514 69.3437 162.222 69.5845 161.843 69.7976C161.464 70.0064 160.959 70.1108 160.328 70.1108ZM160.533 68.7557C161.138 68.7557 161.649 68.598 162.067 68.2827C162.485 67.9631 162.802 67.522 163.019 66.9595C163.237 66.3928 163.345 65.7386 163.345 64.9972C163.345 64.2642 163.239 63.6229 163.026 63.0732C162.813 62.5192 162.497 62.0888 162.08 61.782C161.662 61.4709 161.146 61.3153 160.533 61.3153C159.894 61.3153 159.361 61.4794 158.935 61.8075C158.513 62.1314 158.195 62.5724 157.982 63.1307C157.774 63.6847 157.669 64.3068 157.669 64.9972C157.669 65.696 157.776 66.331 157.989 66.902C158.206 67.4687 158.526 67.9205 158.948 68.2571C159.374 68.5895 159.902 68.7557 160.533 68.7557ZM176.852 70.1108C175.965 70.1108 175.188 69.8999 174.519 69.478C173.854 69.0561 173.334 68.4659 172.959 67.7074C172.588 66.9489 172.403 66.0625 172.403 65.0483C172.403 64.0256 172.588 63.1328 172.959 62.37C173.334 61.6072 173.854 61.0149 174.519 60.593C175.188 60.1712 175.965 59.9602 176.852 59.9602C177.738 59.9602 178.514 60.1712 179.178 60.593C179.847 61.0149 180.367 61.6072 180.738 62.37C181.113 63.1328 181.301 64.0256 181.301 65.0483C181.301 66.0625 181.113 66.9489 180.738 67.7074C180.367 68.4659 179.847 69.0561 179.178 69.478C178.514 69.8999 177.738 70.1108 176.852 70.1108ZM176.852 68.7557C177.525 68.7557 178.079 68.5831 178.514 68.2379C178.948 67.8928 179.27 67.4389 179.479 66.8764C179.688 66.3139 179.792 65.7045 179.792 65.0483C179.792 64.392 179.688 63.7805 179.479 63.2138C179.27 62.647 178.948 62.1889 178.514 61.8395C178.079 61.4901 177.525 61.3153 176.852 61.3153C176.178 61.3153 175.624 61.4901 175.19 61.8395C174.755 62.1889 174.433 62.647 174.225 63.2138C174.016 63.7805 173.911 64.392 173.911 65.0483C173.911 65.7045 174.016 66.3139 174.225 66.8764C174.433 67.4389 174.755 67.8928 175.19 68.2379C175.624 68.5831 176.178 68.7557 176.852 68.7557ZM183.603 69.9062V60.0881H185.061V61.571H185.163C185.342 61.0852 185.666 60.6911 186.135 60.3885C186.603 60.0859 187.132 59.9347 187.72 59.9347C187.831 59.9347 187.969 59.9368 188.135 59.9411C188.301 59.9453 188.427 59.9517 188.512 59.9602V61.4943C188.461 61.4815 188.344 61.4624 188.161 61.4368C187.982 61.407 187.792 61.392 187.592 61.392C187.115 61.392 186.689 61.4922 186.314 61.6925C185.943 61.8885 185.649 62.1612 185.431 62.5107C185.218 62.8558 185.112 63.25 185.112 63.6932V69.9062H183.603ZM202.318 62.2869L200.963 62.6705C200.877 62.4446 200.752 62.2251 200.585 62.0121C200.423 61.7947 200.202 61.6158 199.921 61.4751C199.639 61.3345 199.279 61.2642 198.84 61.2642C198.24 61.2642 197.739 61.4027 197.338 61.6797C196.942 61.9524 196.744 62.2997 196.744 62.7216C196.744 63.0966 196.88 63.3928 197.153 63.6101C197.426 63.8274 197.852 64.0085 198.431 64.1534L199.889 64.5114C200.767 64.7244 201.421 65.0504 201.851 65.4893C202.281 65.924 202.497 66.4844 202.497 67.1705C202.497 67.733 202.335 68.2358 202.011 68.679C201.691 69.1222 201.244 69.4716 200.669 69.7273C200.093 69.983 199.424 70.1108 198.661 70.1108C197.66 70.1108 196.831 69.8935 196.175 69.4588C195.519 69.0241 195.103 68.3892 194.928 67.554L196.36 67.196C196.497 67.7244 196.754 68.1207 197.134 68.3849C197.517 68.6491 198.018 68.7812 198.636 68.7812C199.339 68.7812 199.897 68.6321 200.311 68.3338C200.728 68.0312 200.937 67.669 200.937 67.2472C200.937 66.9062 200.818 66.6207 200.579 66.3906C200.34 66.1562 199.974 65.9815 199.48 65.8665L197.843 65.483C196.944 65.2699 196.284 64.9396 195.862 64.4922C195.444 64.0405 195.235 63.4759 195.235 62.7983C195.235 62.2443 195.391 61.7543 195.702 61.3281C196.017 60.902 196.445 60.5675 196.987 60.3246C197.532 60.0817 198.15 59.9602 198.84 59.9602C199.812 59.9602 200.575 60.1733 201.129 60.5994C201.687 61.0256 202.083 61.5881 202.318 62.2869ZM208.884 70.1108C207.938 70.1108 207.122 69.902 206.436 69.4844C205.754 69.0625 205.228 68.4744 204.857 67.7202C204.49 66.9616 204.307 66.0795 204.307 65.0739C204.307 64.0682 204.49 63.1818 204.857 62.4148C205.228 61.6435 205.743 61.0426 206.404 60.6122C207.069 60.1776 207.844 59.9602 208.73 59.9602C209.242 59.9602 209.747 60.0455 210.245 60.2159C210.744 60.3864 211.198 60.6634 211.607 61.0469C212.016 61.4261 212.342 61.929 212.585 62.5554C212.828 63.1818 212.949 63.9531 212.949 64.8693V65.5085H205.381V64.2045H211.415C211.415 63.6506 211.304 63.1562 211.083 62.7216C210.865 62.2869 210.554 61.9439 210.15 61.6925C209.749 61.4411 209.276 61.3153 208.73 61.3153C208.13 61.3153 207.61 61.4645 207.171 61.7628C206.736 62.0568 206.402 62.4403 206.167 62.9134C205.933 63.3864 205.816 63.8935 205.816 64.4347V65.304C205.816 66.0455 205.944 66.674 206.199 67.1896C206.459 67.701 206.819 68.0909 207.279 68.3594C207.74 68.6236 208.275 68.7557 208.884 68.7557C209.28 68.7557 209.638 68.7003 209.958 68.5895C210.282 68.4744 210.561 68.304 210.795 68.0781C211.029 67.848 211.211 67.5625 211.338 67.2216L212.796 67.6307C212.642 68.125 212.385 68.5597 212.022 68.9347C211.66 69.3054 211.213 69.5952 210.68 69.804C210.147 70.0085 209.549 70.1108 208.884 70.1108ZM218.133 70.1364C217.511 70.1364 216.946 70.0192 216.439 69.7848C215.932 69.5462 215.529 69.2031 215.231 68.7557C214.933 68.304 214.784 67.7585 214.784 67.1193C214.784 66.5568 214.895 66.1009 215.116 65.7514C215.338 65.3977 215.634 65.1207 216.005 64.9205C216.375 64.7202 216.784 64.571 217.232 64.473C217.684 64.3707 218.137 64.2898 218.593 64.2301C219.19 64.1534 219.674 64.0959 220.044 64.0575C220.419 64.0149 220.692 63.9446 220.863 63.8466C221.037 63.7486 221.125 63.5781 221.125 63.3352V63.2841C221.125 62.6534 220.952 62.1634 220.607 61.8139C220.266 61.4645 219.748 61.2898 219.054 61.2898C218.333 61.2898 217.769 61.4474 217.36 61.7628C216.951 62.0781 216.663 62.4148 216.497 62.7727L215.065 62.2614C215.321 61.6648 215.662 61.2003 216.088 60.8679C216.518 60.5312 216.987 60.2969 217.494 60.1648C218.005 60.0284 218.508 59.9602 219.002 59.9602C219.318 59.9602 219.68 59.9986 220.089 60.0753C220.502 60.1477 220.901 60.299 221.284 60.5291C221.672 60.7592 221.994 61.1065 222.25 61.571C222.505 62.0355 222.633 62.6577 222.633 63.4375V69.9062H221.125V68.5767H221.048C220.946 68.7898 220.775 69.0178 220.537 69.2607C220.298 69.5036 219.98 69.7102 219.584 69.8807C219.188 70.0511 218.704 70.1364 218.133 70.1364ZM218.363 68.7812C218.96 68.7812 219.463 68.6641 219.872 68.4297C220.285 68.1953 220.596 67.8928 220.805 67.522C221.018 67.1513 221.125 66.7614 221.125 66.3523V64.9716C221.061 65.0483 220.92 65.1186 220.703 65.1825C220.49 65.2422 220.243 65.2955 219.961 65.3423C219.684 65.3849 219.414 65.4233 219.15 65.4574C218.89 65.4872 218.679 65.5128 218.517 65.5341C218.125 65.5852 217.758 65.6683 217.417 65.7834C217.081 65.8942 216.808 66.0625 216.599 66.2884C216.395 66.5099 216.292 66.8125 216.292 67.196C216.292 67.7202 216.486 68.1165 216.874 68.3849C217.266 68.6491 217.762 68.7812 218.363 68.7812ZM225.387 69.9062V60.0881H226.844V61.571H226.946C227.125 61.0852 227.449 60.6911 227.918 60.3885C228.387 60.0859 228.915 59.9347 229.503 59.9347C229.614 59.9347 229.752 59.9368 229.919 59.9411C230.085 59.9453 230.21 59.9517 230.296 59.9602V61.4943C230.244 61.4815 230.127 61.4624 229.944 61.4368C229.765 61.407 229.575 61.392 229.375 61.392C228.898 61.392 228.472 61.4922 228.097 61.6925C227.726 61.8885 227.432 62.1612 227.215 62.5107C227.002 62.8558 226.895 63.25 226.895 63.6932V69.9062H225.387ZM235.774 70.1108C234.853 70.1108 234.061 69.8935 233.396 69.4588C232.731 69.0241 232.22 68.4254 231.862 67.6626C231.504 66.8999 231.325 66.0284 231.325 65.0483C231.325 64.0511 231.508 63.1712 231.874 62.4084C232.245 61.6413 232.761 61.0426 233.421 60.6122C234.086 60.1776 234.862 59.9602 235.748 59.9602C236.438 59.9602 237.061 60.0881 237.615 60.3438C238.169 60.5994 238.622 60.9574 238.976 61.4176C239.33 61.8778 239.549 62.4148 239.634 63.0284H238.126C238.011 62.581 237.755 62.1847 237.359 61.8395C236.967 61.4901 236.438 61.3153 235.774 61.3153C235.186 61.3153 234.67 61.4687 234.227 61.7756C233.788 62.0781 233.445 62.5064 233.198 63.0604C232.955 63.6101 232.833 64.2557 232.833 64.9972C232.833 65.7557 232.953 66.4162 233.191 66.9787C233.434 67.5412 233.775 67.978 234.214 68.2891C234.657 68.6001 235.177 68.7557 235.774 68.7557C236.166 68.7557 236.521 68.6875 236.841 68.5511C237.161 68.4148 237.431 68.2188 237.653 67.9631C237.874 67.7074 238.032 67.4006 238.126 67.0426H239.634C239.549 67.6222 239.338 68.1442 239.002 68.6087C238.669 69.0689 238.228 69.4354 237.678 69.7081C237.133 69.9766 236.498 70.1108 235.774 70.1108ZM243.348 64V69.9062H241.84V56.8153H243.348V61.6222H243.476C243.706 61.1151 244.051 60.7124 244.512 60.4141C244.976 60.1115 245.594 59.9602 246.365 59.9602C247.034 59.9602 247.62 60.0945 248.123 60.3629C248.626 60.6271 249.016 61.0341 249.293 61.5838C249.574 62.1293 249.715 62.8239 249.715 63.6676V69.9062H248.206V63.7699C248.206 62.9901 248.004 62.3871 247.599 61.9609C247.198 61.5305 246.642 61.3153 245.931 61.3153C245.436 61.3153 244.993 61.4197 244.601 61.6286C244.213 61.8374 243.906 62.142 243.681 62.5426C243.459 62.9432 243.348 63.429 243.348 64ZM253.574 70.0085C253.259 70.0085 252.988 69.8956 252.762 69.6697C252.536 69.4439 252.423 69.1733 252.423 68.858C252.423 68.5426 252.536 68.272 252.762 68.0462C252.988 67.8203 253.259 67.7074 253.574 67.7074C253.889 67.7074 254.16 67.8203 254.386 68.0462C254.612 68.272 254.724 68.5426 254.724 68.858C254.724 69.0668 254.671 69.2585 254.565 69.4332C254.462 69.608 254.324 69.7486 254.149 69.8551C253.979 69.9574 253.787 70.0085 253.574 70.0085ZM258.483 70.0085C258.168 70.0085 257.897 69.8956 257.671 69.6697C257.445 69.4439 257.332 69.1733 257.332 68.858C257.332 68.5426 257.445 68.272 257.671 68.0462C257.897 67.8203 258.168 67.7074 258.483 67.7074C258.798 67.7074 259.069 67.8203 259.295 68.0462C259.521 68.272 259.634 68.5426 259.634 68.858C259.634 69.0668 259.58 69.2585 259.474 69.4332C259.371 69.608 259.233 69.7486 259.058 69.8551C258.888 69.9574 258.696 70.0085 258.483 70.0085ZM263.392 70.0085C263.077 70.0085 262.806 69.8956 262.58 69.6697C262.354 69.4439 262.241 69.1733 262.241 68.858C262.241 68.5426 262.354 68.272 262.58 68.0462C262.806 67.8203 263.077 67.7074 263.392 67.7074C263.707 67.7074 263.978 67.8203 264.204 68.0462C264.43 68.272 264.543 68.5426 264.543 68.858C264.543 69.0668 264.489 69.2585 264.383 69.4332C264.281 69.608 264.142 69.7486 263.967 69.8551C263.797 69.9574 263.605 70.0085 263.392 70.0085Z" fill="#81808E"/>
</g>
</g>
</g>
<defs>
<filter id="filter0_d_0_1" x="-32.6719" y="-25.3281" width="704" height="344.469" filterUnits="userSpaceOnUse" color-interpolation-filters="sRGB">
<feFlood flood-opacity="0" result="BackgroundImageFix"/>
<feColorMatrix in="SourceAlpha" type="matrix" values="0 0 0 0 0 0 0 0 0 0 0 0 0 0 0 0 0 0 127 0" result="hardAlpha"/>
<feOffset dy="7"/>
<feGaussianBlur stdDeviation="16"/>
<feComposite in2="hardAlpha" operator="out"/>
<feColorMatrix type="matrix" values="0 0 0 0 0 0 0 0 0 0 0 0 0 0 0 0 0 0 0.35 0"/>
<feBlend mode="normal" in2="BackgroundImageFix" result="effect1_dropShadow_0_1"/>
<feBlend mode="normal" in="SourceGraphic" in2="effect1_dropShadow_0_1" result="shape"/>
</filter>
<filter id="filter1_d_0_1" x="0.328125" y="94.1406" width="638" height="185" filterUnits="userSpaceOnUse" color-interpolation-filters="sRGB">
<feFlood flood-opacity="0" result="BackgroundImageFix"/>
<feColorMatrix in="SourceAlpha" type="matrix" values="0 0 0 0 0 0 0 0 0 0 0 0 0 0 0 0 0 0 127 0" result="hardAlpha"/>
<feOffset dy="-1"/>
<feComposite in2="hardAlpha" operator="out"/>
<feColorMatrix type="matrix" values="0 0 0 0 1 0 0 0 0 1 0 0 0 0 1 0 0 0 0.1 0"/>
<feBlend mode="normal" in2="BackgroundImageFix" result="effect1_dropShadow_0_1"/>
<feBlend mode="normal" in="SourceGraphic" in2="effect1_dropShadow_0_1" result="shape"/>
</filter>
<radialGradient id="paint0_radial_0_1" cx="0" cy="0" r="1" gradientTransform="matrix(720 628.891 -720 628.891 720 628.891)" gradientUnits="userSpaceOnUse">
<stop stop-color="#6663F6" stop-opacity="0.07"/>
<stop offset="1" stop-color="white" stop-opacity="0"/>
</radialGradient>
<linearGradient id="paint1_linear_0_1" x1="319.328" y1="-184.328" x2="319.328" y2="295.672" gradientUnits="userSpaceOnUse">
<stop stop-color="white" stop-opacity="0"/>
<stop offset="1" stop-color="white" stop-opacity="0.05"/>
</linearGradient>
<linearGradient id="paint2_linear_0_1" x1="319.328" y1="-184.328" x2="319.328" y2="295.672" gradientUnits="userSpaceOnUse">
<stop stop-color="white" stop-opacity="0.1"/>
<stop offset="1" stop-color="white" stop-opacity="0.07"/>
</linearGradient>
<clipPath id="clip0_0_1">
<rect width="1440" height="11576" fill="white" transform="translate(-594 -3115)"/>
</clipPath>
<clipPath id="clip1_0_1">
<rect x="-55.3438" y="-184.328" width="749.344" height="480" rx="48" fill="white"/>
</clipPath>
<clipPath id="clip2_0_1">
<rect width="638" height="184" fill="white" transform="translate(0.328125 95.1406)"/>
</clipPath>
<clipPath id="clip3_0_1">
<rect width="16" height="16" fill="white" transform="translate(20.3281 110.141)"/>
</clipPath>
<clipPath id="clip4_0_1">
<rect width="16" height="16" fill="white" transform="translate(20.3281 156.141)"/>
</clipPath>
<clipPath id="clip5_0_1">
<rect width="16" height="16" fill="white" transform="translate(20.3281 202.141)"/>
</clipPath>
<clipPath id="clip6_0_1">
<rect width="16" height="16" fill="white" transform="translate(20.3281 248.141)"/>
</clipPath>
</defs>
</svg>
