<svg width="363" height="434" viewBox="0 0 363 434" fill="none" xmlns="http://www.w3.org/2000/svg">
<mask id="mask0_3_29647" style="mask-type:alpha" maskUnits="userSpaceOnUse" x="-31" y="-92" width="426" height="526">
<rect x="-30.8438" y="-91.3281" width="425" height="524.469" fill="url(#paint0_linear_3_29647)"/>
</mask>
<g mask="url(#mask0_3_29647)">
</g>
<g clip-path="url(#clip0_3_29647)">
<g opacity="0.4">
<path d="M192.188 20.2059C192.188 19.5339 192.455 18.8895 192.93 18.4144C193.405 17.9392 194.05 17.6722 194.721 17.6719H203.59C203.929 17.6624 204.266 17.7209 204.582 17.8439C204.898 17.967 205.186 18.1521 205.429 18.3884C205.672 18.6246 205.865 18.9072 205.997 19.2194C206.129 19.5316 206.197 19.867 206.197 20.2059C206.197 20.5448 206.129 20.8802 205.997 21.1924C205.865 21.5046 205.672 21.7872 205.429 22.0234C205.186 22.2597 204.898 22.4448 204.582 22.5678C204.266 22.6909 203.929 22.7494 203.59 22.7399H194.721C194.049 22.7399 193.405 22.4729 192.93 21.9977C192.454 21.5225 192.188 20.878 192.188 20.2059Z" stroke="url(#paint1_linear_3_29647)" stroke-width="18"/>
<path d="M170.648 314.153C170.648 315.553 169.514 316.688 168.114 316.688H159.245C158.573 316.688 157.929 316.421 157.453 315.946C156.978 315.47 156.711 314.826 156.711 314.154C156.711 313.481 156.978 312.837 157.453 312.361C157.929 311.886 158.573 311.619 159.245 311.619H168.114C169.514 311.619 170.648 312.754 170.648 314.153Z" stroke="url(#paint2_linear_3_29647)" stroke-width="18"/>
<path d="M180.785 30.3416C180.785 29.6696 181.052 29.0253 181.528 28.5501C182.003 28.0749 182.647 27.8079 183.319 27.8076H213.728C214.388 27.8262 215.014 28.1013 215.474 28.5744C215.935 29.0476 216.192 29.6816 216.192 30.3416C216.192 31.0016 215.935 31.6356 215.474 32.1088C215.014 32.582 214.388 32.8571 213.728 32.8756H183.319C182.647 32.8756 182.003 32.6086 181.527 32.1334C181.052 31.6582 180.785 31.0137 180.785 30.3416Z" stroke="url(#paint3_linear_3_29647)" stroke-width="18"/>
<path d="M182.052 304.016C182.052 305.416 180.918 306.55 179.518 306.55H149.11C148.438 306.55 147.794 306.283 147.318 305.808C146.843 305.333 146.576 304.688 146.576 304.016C146.576 303.344 146.843 302.7 147.318 302.225C147.794 301.749 148.438 301.482 149.11 301.482H179.518C180.918 301.482 182.052 302.617 182.052 304.016Z" stroke="url(#paint4_linear_3_29647)" stroke-width="18"/>
<path d="M173.182 40.4783C173.182 39.8064 173.449 39.162 173.924 38.6868C174.399 38.2117 175.044 37.9446 175.716 37.9443H213.727C214.386 37.9629 215.013 38.238 215.473 38.7112C215.933 39.1844 216.19 39.8183 216.19 40.4783C216.19 41.1383 215.933 41.7723 215.473 42.2455C215.013 42.7187 214.386 42.9938 213.727 43.0123H175.716C175.044 43.0123 174.399 42.7454 173.924 42.2701C173.449 41.7949 173.182 41.1504 173.182 40.4783Z" stroke="url(#paint5_linear_3_29647)" stroke-width="18"/>
<path d="M189.654 293.881C189.654 295.281 188.52 296.415 187.12 296.415H149.11C148.438 296.415 147.794 296.148 147.318 295.672C146.843 295.197 146.576 294.553 146.576 293.881C146.576 293.209 146.843 292.564 147.318 292.089C147.794 291.614 148.438 291.347 149.11 291.347H187.12C188.52 291.347 189.654 292.482 189.654 293.881Z" stroke="url(#paint6_linear_3_29647)" stroke-width="18"/>
<path d="M165.58 50.6141C165.58 49.9421 165.847 49.2977 166.323 48.8226C166.798 48.3474 167.442 48.0803 168.114 48.0801H213.727C214.387 48.0986 215.013 48.3737 215.473 48.8469C215.933 49.3201 216.191 49.9541 216.191 50.6141C216.191 51.2741 215.933 51.908 215.473 52.3812C215.013 52.8544 214.387 53.1295 213.727 53.1481H168.114C167.442 53.1481 166.797 52.8811 166.322 52.4059C165.847 51.9307 165.58 51.2861 165.58 50.6141Z" stroke="url(#paint7_linear_3_29647)" stroke-width="18"/>
<path d="M197.256 283.745C197.256 285.145 196.122 286.279 194.722 286.279H149.11C148.438 286.279 147.794 286.012 147.318 285.537C146.843 285.062 146.576 284.417 146.576 283.745C146.576 283.073 146.843 282.428 147.318 281.953C147.794 281.478 148.438 281.211 149.11 281.211H194.722C196.122 281.211 197.256 282.346 197.256 283.745Z" stroke="url(#paint8_linear_3_29647)" stroke-width="18"/>
<path d="M157.979 60.7508C157.979 59.3508 159.113 58.2158 160.513 58.2158H213.728C214.391 58.229 215.023 58.5018 215.487 58.9757C215.952 59.4496 216.212 60.0867 216.212 60.7503C216.212 61.4139 215.952 62.0511 215.487 62.5249C215.023 62.9988 214.391 63.2716 213.728 63.2848H160.513C159.84 63.2848 159.196 63.0178 158.721 62.5426C158.245 62.0674 157.979 61.4229 157.979 60.7508Z" stroke="url(#paint9_linear_3_29647)" stroke-width="18"/>
<path d="M204.859 273.609C204.859 275.009 203.724 276.143 202.324 276.143H149.11C148.438 276.143 147.794 275.876 147.318 275.401C146.843 274.926 146.576 274.281 146.576 273.609C146.576 272.937 146.843 272.293 147.318 271.817C147.794 271.342 148.438 271.075 149.11 271.075H202.324C203.724 271.075 204.859 272.21 204.859 273.609Z" stroke="url(#paint10_linear_3_29647)" stroke-width="18"/>
<path d="M150.377 70.8865C150.377 69.4865 151.511 68.3525 152.911 68.3525H213.728C214.4 68.3525 215.045 68.6195 215.52 69.0947C215.995 69.5699 216.262 70.2145 216.262 70.8865C216.262 71.5586 215.995 72.2031 215.52 72.6783C215.045 73.1536 214.4 73.4205 213.728 73.4205H152.911C152.239 73.4205 151.594 73.1536 151.119 72.6783C150.644 72.2031 150.377 71.5586 150.377 70.8865Z" stroke="url(#paint11_linear_3_29647)" stroke-width="18"/>
<path d="M212.461 263.472C212.461 264.144 212.194 264.789 211.719 265.264C211.244 265.739 210.599 266.006 209.927 266.006H149.11C148.438 266.006 147.794 265.739 147.318 265.264C146.843 264.789 146.576 264.145 146.576 263.472C146.576 262.8 146.843 262.156 147.318 261.681C147.794 261.205 148.438 260.938 149.11 260.938H209.927C210.599 260.938 211.244 261.205 211.719 261.681C212.194 262.156 212.461 262.8 212.461 263.472Z" stroke="url(#paint12_linear_3_29647)" stroke-width="18"/>
<path d="M141.508 81.0233C141.508 79.6233 142.642 78.4893 144.042 78.4893H213.728C214.4 78.4893 215.044 78.7562 215.52 79.2314C215.995 79.7067 216.262 80.3512 216.262 81.0233C216.262 81.6953 215.995 82.3398 215.52 82.8151C215.044 83.2903 214.4 83.5573 213.728 83.5573H144.042C143.37 83.5573 142.725 83.2903 142.25 82.8151C141.775 82.3398 141.508 81.6953 141.508 81.0233Z" stroke="url(#paint13_linear_3_29647)" stroke-width="18"/>
<path d="M221.33 253.337C221.33 254.009 221.063 254.653 220.588 255.128C220.113 255.603 219.468 255.87 218.796 255.871H149.11C148.438 255.871 147.794 255.604 147.318 255.129C146.843 254.653 146.576 254.009 146.576 253.337C146.576 252.665 146.843 252.02 147.318 251.545C147.794 251.07 148.438 250.803 149.11 250.803H218.796C219.468 250.803 220.113 251.07 220.588 251.545C221.063 252.02 221.33 252.665 221.33 253.337Z" stroke="url(#paint14_linear_3_29647)" stroke-width="18"/>
<path d="M133.904 91.159C133.904 89.759 135.038 88.625 136.438 88.625H213.726C214.398 88.625 215.043 88.892 215.518 89.3672C215.993 89.8424 216.26 90.4869 216.26 91.159C216.26 91.8311 215.993 92.4756 215.518 92.9508C215.043 93.426 214.398 93.693 213.726 93.693H136.438C135.766 93.693 135.122 93.426 134.646 92.9508C134.171 92.4756 133.904 91.8311 133.904 91.159Z" stroke="url(#paint15_linear_3_29647)" stroke-width="18"/>
<path d="M228.932 243.201C228.932 243.873 228.665 244.517 228.19 244.993C227.715 245.468 227.07 245.735 226.398 245.735H149.11C148.438 245.735 147.794 245.468 147.318 244.993C146.843 244.518 146.576 243.873 146.576 243.201C146.576 242.529 146.843 241.884 147.318 241.409C147.794 240.934 148.438 240.667 149.11 240.667H226.398C227.07 240.667 227.715 240.934 228.19 241.409C228.665 241.884 228.932 242.529 228.932 243.201Z" stroke="url(#paint16_linear_3_29647)" stroke-width="18"/>
<path d="M126.303 101.295C126.303 99.8947 127.437 98.7607 128.837 98.7607H213.727C214.399 98.7607 215.043 99.0277 215.519 99.5029C215.994 99.9781 216.261 100.623 216.261 101.295C216.261 101.967 215.994 102.611 215.519 103.087C215.043 103.562 214.399 103.829 213.727 103.829H128.837C128.165 103.829 127.52 103.562 127.045 103.087C126.57 102.611 126.303 101.967 126.303 101.295Z" stroke="url(#paint17_linear_3_29647)" stroke-width="18"/>
<path d="M236.533 233.065C236.532 233.737 236.265 234.382 235.79 234.857C235.315 235.332 234.671 235.599 233.999 235.599H149.109C148.437 235.599 147.792 235.332 147.317 234.857C146.841 234.382 146.574 233.737 146.574 233.065C146.574 232.393 146.841 231.748 147.317 231.273C147.792 230.797 148.437 230.53 149.109 230.53H233.999C234.671 230.531 235.315 230.798 235.791 231.273C236.266 231.748 236.533 232.393 236.533 233.065Z" stroke="url(#paint18_linear_3_29647)" stroke-width="18"/>
<path d="M118.701 111.43C118.701 110.758 118.969 110.114 119.444 109.639C119.919 109.163 120.564 108.896 121.236 108.896H213.728C214.388 108.915 215.014 109.19 215.474 109.663C215.935 110.137 216.192 110.77 216.192 111.43C216.192 112.09 215.935 112.724 215.474 113.198C215.014 113.671 214.388 113.946 213.728 113.964H121.236C120.903 113.965 120.574 113.899 120.266 113.772C119.959 113.645 119.679 113.458 119.444 113.223C119.208 112.987 119.022 112.708 118.894 112.4C118.767 112.093 118.701 111.763 118.701 111.43Z" stroke="url(#paint19_linear_3_29647)" stroke-width="18"/>
<path d="M244.136 222.928C244.136 224.328 243.001 225.462 241.602 225.462H149.11C148.438 225.462 147.794 225.195 147.318 224.719C146.843 224.244 146.576 223.6 146.576 222.928C146.576 222.256 146.843 221.611 147.318 221.136C147.794 220.661 148.438 220.394 149.11 220.394H241.602C242.274 220.394 242.919 220.661 243.394 221.136C243.869 221.611 244.136 222.256 244.136 222.928Z" stroke="url(#paint20_linear_3_29647)" stroke-width="18"/>
<path d="M111.098 121.567C111.098 120.895 111.365 120.251 111.84 119.776C112.315 119.301 112.96 119.033 113.632 119.033H213.727C214.386 119.052 215.013 119.327 215.473 119.8C215.933 120.273 216.19 120.907 216.19 121.567C216.19 122.227 215.933 122.861 215.473 123.334C215.013 123.808 214.386 124.083 213.727 124.101H113.632C112.96 124.101 112.315 123.834 111.84 123.359C111.365 122.884 111.098 122.239 111.098 121.567Z" stroke="url(#paint21_linear_3_29647)" stroke-width="18"/>
<path d="M251.738 212.792C251.738 214.192 250.604 215.326 249.204 215.326H149.11C148.438 215.326 147.794 215.059 147.318 214.584C146.843 214.108 146.576 213.464 146.576 212.792C146.576 212.12 146.843 211.475 147.318 211C147.794 210.525 148.438 210.258 149.11 210.258H249.204C250.604 210.258 251.738 211.393 251.738 212.792Z" stroke="url(#paint22_linear_3_29647)" stroke-width="18"/>
<path d="M103.496 131.703C103.496 131.031 103.763 130.387 104.239 129.911C104.714 129.436 105.358 129.169 106.03 129.169H213.727C214.387 129.187 215.013 129.463 215.473 129.936C215.934 130.409 216.191 131.043 216.191 131.703C216.191 132.363 215.934 132.997 215.473 133.47C215.013 133.943 214.387 134.218 213.727 134.237H106.03C105.358 134.237 104.713 133.97 104.238 133.495C103.763 133.02 103.496 132.375 103.496 131.703Z" stroke="url(#paint23_linear_3_29647)" stroke-width="18"/>
<path d="M259.34 202.656C259.34 204.056 258.206 205.19 256.806 205.19H149.11C148.438 205.19 147.794 204.923 147.318 204.448C146.843 203.973 146.576 203.328 146.576 202.656C146.576 201.984 146.843 201.339 147.318 200.864C147.794 200.389 148.438 200.122 149.11 200.122H256.806C258.206 200.122 259.34 201.257 259.34 202.656Z" stroke="url(#paint24_linear_3_29647)" stroke-width="18"/>
<path d="M95.8945 141.839C95.8948 141.167 96.1619 140.522 96.637 140.047C97.1122 139.572 97.7566 139.305 98.4285 139.305H213.728C214.391 139.318 215.023 139.591 215.487 140.065C215.952 140.538 216.212 141.176 216.212 141.839C216.212 142.503 215.952 143.14 215.487 143.614C215.023 144.088 214.391 144.361 213.728 144.374H98.4285C97.7564 144.373 97.1119 144.106 96.6367 143.631C96.1615 143.155 95.8945 142.511 95.8945 141.839Z" stroke="url(#paint25_linear_3_29647)" stroke-width="18"/>
<path d="M266.942 192.52C266.942 193.92 265.808 195.054 264.408 195.054H149.11C148.777 195.054 148.448 194.989 148.14 194.861C147.833 194.734 147.554 194.547 147.318 194.312C147.083 194.077 146.896 193.797 146.769 193.49C146.642 193.183 146.576 192.853 146.576 192.52C146.576 192.188 146.642 191.858 146.769 191.551C146.896 191.243 147.083 190.964 147.318 190.729C147.554 190.493 147.833 190.307 148.14 190.179C148.448 190.052 148.777 189.986 149.11 189.986H264.408C265.808 189.986 266.942 191.121 266.942 192.52Z" stroke="url(#paint26_linear_3_29647)" stroke-width="18"/>
<path d="M88.293 151.975C88.293 150.575 89.428 149.441 90.827 149.441H280.879C281.551 149.441 282.196 149.708 282.671 150.184C283.146 150.659 283.413 151.303 283.413 151.975C283.413 152.647 283.146 153.292 282.671 153.767C282.196 154.242 281.551 154.509 280.879 154.509H90.827C90.155 154.509 89.5106 154.242 89.0355 153.767C88.5603 153.292 88.2932 152.647 88.293 151.975Z" stroke="url(#paint27_linear_3_29647)" stroke-width="18"/>
<path d="M80.6895 162.112C80.6895 160.712 81.8245 159.578 83.2235 159.578H282.144C282.817 159.578 283.461 159.845 283.936 160.32C284.411 160.796 284.678 161.44 284.678 162.112C284.678 162.784 284.411 163.429 283.936 163.904C283.461 164.379 282.817 164.646 282.144 164.646H83.2235C82.5515 164.646 81.9071 164.379 81.4319 163.904C80.9568 163.428 80.6897 162.784 80.6895 162.112Z" stroke="url(#paint28_linear_3_29647)" stroke-width="18"/>
<path d="M78.1562 172.248C78.1562 170.848 79.2912 169.714 80.6902 169.714H275.81C276.482 169.714 277.127 169.981 277.602 170.456C278.077 170.931 278.344 171.576 278.344 172.248C278.344 172.92 278.077 173.564 277.602 174.04C277.127 174.515 276.482 174.782 275.81 174.782H80.6902C80.0183 174.782 79.3739 174.515 78.8987 174.039C78.4236 173.564 78.1565 172.92 78.1562 172.248Z" stroke="url(#paint29_linear_3_29647)" stroke-width="18"/>
<path d="M89.5586 182.384C89.5586 180.984 90.6936 179.85 92.0926 179.85H275.81C276.482 179.85 277.126 180.117 277.601 180.592C278.077 181.067 278.344 181.712 278.344 182.384C278.344 183.056 278.077 183.7 277.601 184.175C277.126 184.651 276.482 184.918 275.81 184.918H92.0926C91.4206 184.917 90.7762 184.65 90.3011 184.175C89.8259 183.7 89.5589 183.056 89.5586 182.384Z" stroke="url(#paint30_linear_3_29647)" stroke-width="18"/>
</g>
<g opacity="0.4">
<path d="M192.188 20.2059C192.188 19.5339 192.455 18.8895 192.93 18.4144C193.405 17.9392 194.05 17.6722 194.721 17.6719H203.59C203.929 17.6624 204.266 17.7209 204.582 17.8439C204.898 17.967 205.186 18.1521 205.429 18.3884C205.672 18.6246 205.865 18.9072 205.997 19.2194C206.129 19.5316 206.197 19.867 206.197 20.2059C206.197 20.5448 206.129 20.8802 205.997 21.1924C205.865 21.5046 205.672 21.7872 205.429 22.0234C205.186 22.2597 204.898 22.4448 204.582 22.5678C204.266 22.6909 203.929 22.7494 203.59 22.7399H194.721C194.049 22.7399 193.405 22.4729 192.93 21.9977C192.454 21.5225 192.188 20.878 192.188 20.2059Z" stroke="url(#paint31_linear_3_29647)" stroke-opacity="0.2" stroke-width="2"/>
<path d="M170.648 314.153C170.648 315.553 169.514 316.688 168.114 316.688H159.245C158.573 316.688 157.929 316.421 157.453 315.946C156.978 315.47 156.711 314.826 156.711 314.154C156.711 313.481 156.978 312.837 157.453 312.361C157.929 311.886 158.573 311.619 159.245 311.619H168.114C169.514 311.619 170.648 312.754 170.648 314.153Z" stroke="url(#paint32_linear_3_29647)" stroke-opacity="0.2" stroke-width="2"/>
<path d="M180.785 30.3416C180.785 29.6696 181.052 29.0253 181.528 28.5501C182.003 28.0749 182.647 27.8079 183.319 27.8076H213.728C214.388 27.8262 215.014 28.1013 215.474 28.5744C215.935 29.0476 216.192 29.6816 216.192 30.3416C216.192 31.0016 215.935 31.6356 215.474 32.1088C215.014 32.582 214.388 32.8571 213.728 32.8756H183.319C182.647 32.8756 182.003 32.6086 181.527 32.1334C181.052 31.6582 180.785 31.0137 180.785 30.3416Z" stroke="url(#paint33_linear_3_29647)" stroke-opacity="0.2" stroke-width="2"/>
<path d="M182.052 304.016C182.052 305.416 180.918 306.55 179.518 306.55H149.11C148.438 306.55 147.794 306.283 147.318 305.808C146.843 305.333 146.576 304.688 146.576 304.016C146.576 303.344 146.843 302.7 147.318 302.225C147.794 301.749 148.438 301.482 149.11 301.482H179.518C180.918 301.482 182.052 302.617 182.052 304.016Z" stroke="url(#paint34_linear_3_29647)" stroke-opacity="0.2" stroke-width="2"/>
<path d="M173.182 40.4783C173.182 39.8064 173.449 39.162 173.924 38.6868C174.399 38.2117 175.044 37.9446 175.716 37.9443H213.727C214.386 37.9629 215.013 38.238 215.473 38.7112C215.933 39.1844 216.19 39.8183 216.19 40.4783C216.19 41.1383 215.933 41.7723 215.473 42.2455C215.013 42.7187 214.386 42.9938 213.727 43.0123H175.716C175.044 43.0123 174.399 42.7454 173.924 42.2701C173.449 41.7949 173.182 41.1504 173.182 40.4783Z" stroke="url(#paint35_linear_3_29647)" stroke-opacity="0.2" stroke-width="2"/>
<path d="M189.654 293.881C189.654 295.281 188.52 296.415 187.12 296.415H149.11C148.438 296.415 147.794 296.148 147.318 295.672C146.843 295.197 146.576 294.553 146.576 293.881C146.576 293.209 146.843 292.564 147.318 292.089C147.794 291.614 148.438 291.347 149.11 291.347H187.12C188.52 291.347 189.654 292.482 189.654 293.881Z" stroke="url(#paint36_linear_3_29647)" stroke-opacity="0.2" stroke-width="2"/>
<path d="M165.58 50.6141C165.58 49.9421 165.847 49.2977 166.323 48.8226C166.798 48.3474 167.442 48.0803 168.114 48.0801H213.727C214.387 48.0986 215.013 48.3737 215.473 48.8469C215.933 49.3201 216.191 49.9541 216.191 50.6141C216.191 51.2741 215.933 51.908 215.473 52.3812C215.013 52.8544 214.387 53.1295 213.727 53.1481H168.114C167.442 53.1481 166.797 52.8811 166.322 52.4059C165.847 51.9307 165.58 51.2861 165.58 50.6141Z" stroke="url(#paint37_linear_3_29647)" stroke-opacity="0.2" stroke-width="2"/>
<path d="M197.256 283.745C197.256 285.145 196.122 286.279 194.722 286.279H149.11C148.438 286.279 147.794 286.012 147.318 285.537C146.843 285.062 146.576 284.417 146.576 283.745C146.576 283.073 146.843 282.428 147.318 281.953C147.794 281.478 148.438 281.211 149.11 281.211H194.722C196.122 281.211 197.256 282.346 197.256 283.745Z" stroke="url(#paint38_linear_3_29647)" stroke-opacity="0.2" stroke-width="2"/>
<path d="M157.979 60.7508C157.979 59.3508 159.113 58.2158 160.513 58.2158H213.728C214.391 58.229 215.023 58.5018 215.487 58.9757C215.952 59.4496 216.212 60.0867 216.212 60.7503C216.212 61.4139 215.952 62.0511 215.487 62.5249C215.023 62.9988 214.391 63.2716 213.728 63.2848H160.513C159.84 63.2848 159.196 63.0178 158.721 62.5426C158.245 62.0674 157.979 61.4229 157.979 60.7508Z" stroke="url(#paint39_linear_3_29647)" stroke-opacity="0.2" stroke-width="2"/>
<path d="M204.859 273.609C204.859 275.009 203.724 276.143 202.324 276.143H149.11C148.438 276.143 147.794 275.876 147.318 275.401C146.843 274.926 146.576 274.281 146.576 273.609C146.576 272.937 146.843 272.293 147.318 271.817C147.794 271.342 148.438 271.075 149.11 271.075H202.324C203.724 271.075 204.859 272.21 204.859 273.609Z" stroke="url(#paint40_linear_3_29647)" stroke-opacity="0.2" stroke-width="2"/>
<path d="M150.377 70.8865C150.377 69.4865 151.511 68.3525 152.911 68.3525H213.728C214.4 68.3525 215.045 68.6195 215.52 69.0947C215.995 69.5699 216.262 70.2145 216.262 70.8865C216.262 71.5586 215.995 72.2031 215.52 72.6783C215.045 73.1536 214.4 73.4205 213.728 73.4205H152.911C152.239 73.4205 151.594 73.1536 151.119 72.6783C150.644 72.2031 150.377 71.5586 150.377 70.8865Z" stroke="url(#paint41_linear_3_29647)" stroke-opacity="0.2" stroke-width="2"/>
<path d="M212.461 263.472C212.461 264.144 212.194 264.789 211.719 265.264C211.244 265.739 210.599 266.006 209.927 266.006H149.11C148.438 266.006 147.794 265.739 147.318 265.264C146.843 264.789 146.576 264.145 146.576 263.472C146.576 262.8 146.843 262.156 147.318 261.681C147.794 261.205 148.438 260.938 149.11 260.938H209.927C210.599 260.938 211.244 261.205 211.719 261.681C212.194 262.156 212.461 262.8 212.461 263.472Z" stroke="url(#paint42_linear_3_29647)" stroke-opacity="0.2" stroke-width="2"/>
<path d="M141.508 81.0233C141.508 79.6233 142.642 78.4893 144.042 78.4893H213.728C214.4 78.4893 215.044 78.7562 215.52 79.2314C215.995 79.7067 216.262 80.3512 216.262 81.0233C216.262 81.6953 215.995 82.3398 215.52 82.8151C215.044 83.2903 214.4 83.5573 213.728 83.5573H144.042C143.37 83.5573 142.725 83.2903 142.25 82.8151C141.775 82.3398 141.508 81.6953 141.508 81.0233Z" stroke="url(#paint43_linear_3_29647)" stroke-opacity="0.2" stroke-width="2"/>
<path d="M221.33 253.337C221.33 254.009 221.063 254.653 220.588 255.128C220.113 255.603 219.468 255.87 218.796 255.871H149.11C148.438 255.871 147.794 255.604 147.318 255.129C146.843 254.653 146.576 254.009 146.576 253.337C146.576 252.665 146.843 252.02 147.318 251.545C147.794 251.07 148.438 250.803 149.11 250.803H218.796C219.468 250.803 220.113 251.07 220.588 251.545C221.063 252.02 221.33 252.665 221.33 253.337Z" stroke="url(#paint44_linear_3_29647)" stroke-opacity="0.2" stroke-width="2"/>
<path d="M133.904 91.159C133.904 89.759 135.038 88.625 136.438 88.625H213.726C214.398 88.625 215.043 88.892 215.518 89.3672C215.993 89.8424 216.26 90.4869 216.26 91.159C216.26 91.8311 215.993 92.4756 215.518 92.9508C215.043 93.426 214.398 93.693 213.726 93.693H136.438C135.766 93.693 135.122 93.426 134.646 92.9508C134.171 92.4756 133.904 91.8311 133.904 91.159Z" stroke="url(#paint45_linear_3_29647)" stroke-opacity="0.2" stroke-width="2"/>
<path d="M228.932 243.201C228.932 243.873 228.665 244.517 228.19 244.993C227.715 245.468 227.07 245.735 226.398 245.735H149.11C148.438 245.735 147.794 245.468 147.318 244.993C146.843 244.518 146.576 243.873 146.576 243.201C146.576 242.529 146.843 241.884 147.318 241.409C147.794 240.934 148.438 240.667 149.11 240.667H226.398C227.07 240.667 227.715 240.934 228.19 241.409C228.665 241.884 228.932 242.529 228.932 243.201Z" stroke="url(#paint46_linear_3_29647)" stroke-opacity="0.2" stroke-width="2"/>
<path d="M126.303 101.295C126.303 99.8947 127.437 98.7607 128.837 98.7607H213.727C214.399 98.7607 215.043 99.0277 215.519 99.5029C215.994 99.9781 216.261 100.623 216.261 101.295C216.261 101.967 215.994 102.611 215.519 103.087C215.043 103.562 214.399 103.829 213.727 103.829H128.837C128.165 103.829 127.52 103.562 127.045 103.087C126.57 102.611 126.303 101.967 126.303 101.295Z" stroke="url(#paint47_linear_3_29647)" stroke-opacity="0.2" stroke-width="2"/>
<path d="M236.533 233.065C236.532 233.737 236.265 234.382 235.79 234.857C235.315 235.332 234.671 235.599 233.999 235.599H149.109C148.437 235.599 147.792 235.332 147.317 234.857C146.841 234.382 146.574 233.737 146.574 233.065C146.574 232.393 146.841 231.748 147.317 231.273C147.792 230.797 148.437 230.53 149.109 230.53H233.999C234.671 230.531 235.315 230.798 235.791 231.273C236.266 231.748 236.533 232.393 236.533 233.065Z" stroke="url(#paint48_linear_3_29647)" stroke-opacity="0.2" stroke-width="2"/>
<path d="M118.701 111.43C118.701 110.758 118.969 110.114 119.444 109.639C119.919 109.163 120.564 108.896 121.236 108.896H213.728C214.388 108.915 215.014 109.19 215.474 109.663C215.935 110.137 216.192 110.77 216.192 111.43C216.192 112.09 215.935 112.724 215.474 113.198C215.014 113.671 214.388 113.946 213.728 113.964H121.236C120.903 113.965 120.574 113.899 120.266 113.772C119.959 113.645 119.679 113.458 119.444 113.223C119.208 112.987 119.022 112.708 118.894 112.4C118.767 112.093 118.701 111.763 118.701 111.43Z" stroke="url(#paint49_linear_3_29647)" stroke-opacity="0.2" stroke-width="2"/>
<path d="M244.136 222.928C244.136 224.328 243.001 225.462 241.602 225.462H149.11C148.438 225.462 147.794 225.195 147.318 224.719C146.843 224.244 146.576 223.6 146.576 222.928C146.576 222.256 146.843 221.611 147.318 221.136C147.794 220.661 148.438 220.394 149.11 220.394H241.602C242.274 220.394 242.919 220.661 243.394 221.136C243.869 221.611 244.136 222.256 244.136 222.928Z" stroke="url(#paint50_linear_3_29647)" stroke-opacity="0.2" stroke-width="2"/>
<path d="M111.098 121.567C111.098 120.895 111.365 120.251 111.84 119.776C112.315 119.301 112.96 119.033 113.632 119.033H213.727C214.386 119.052 215.013 119.327 215.473 119.8C215.933 120.273 216.19 120.907 216.19 121.567C216.19 122.227 215.933 122.861 215.473 123.334C215.013 123.808 214.386 124.083 213.727 124.101H113.632C112.96 124.101 112.315 123.834 111.84 123.359C111.365 122.884 111.098 122.239 111.098 121.567Z" stroke="url(#paint51_linear_3_29647)" stroke-opacity="0.2" stroke-width="2"/>
<path d="M251.738 212.792C251.738 214.192 250.604 215.326 249.204 215.326H149.11C148.438 215.326 147.794 215.059 147.318 214.584C146.843 214.108 146.576 213.464 146.576 212.792C146.576 212.12 146.843 211.475 147.318 211C147.794 210.525 148.438 210.258 149.11 210.258H249.204C250.604 210.258 251.738 211.393 251.738 212.792Z" stroke="url(#paint52_linear_3_29647)" stroke-opacity="0.2" stroke-width="2"/>
<path d="M103.496 131.703C103.496 131.031 103.763 130.387 104.239 129.911C104.714 129.436 105.358 129.169 106.03 129.169H213.727C214.387 129.187 215.013 129.463 215.473 129.936C215.934 130.409 216.191 131.043 216.191 131.703C216.191 132.363 215.934 132.997 215.473 133.47C215.013 133.943 214.387 134.218 213.727 134.237H106.03C105.358 134.237 104.713 133.97 104.238 133.495C103.763 133.02 103.496 132.375 103.496 131.703Z" stroke="url(#paint53_linear_3_29647)" stroke-opacity="0.2" stroke-width="2"/>
<path d="M259.34 202.656C259.34 204.056 258.206 205.19 256.806 205.19H149.11C148.438 205.19 147.794 204.923 147.318 204.448C146.843 203.973 146.576 203.328 146.576 202.656C146.576 201.984 146.843 201.339 147.318 200.864C147.794 200.389 148.438 200.122 149.11 200.122H256.806C258.206 200.122 259.34 201.257 259.34 202.656Z" stroke="url(#paint54_linear_3_29647)" stroke-opacity="0.2" stroke-width="2"/>
<path d="M95.8945 141.839C95.8948 141.167 96.1619 140.522 96.637 140.047C97.1122 139.572 97.7566 139.305 98.4285 139.305H213.728C214.391 139.318 215.023 139.591 215.487 140.065C215.952 140.538 216.212 141.176 216.212 141.839C216.212 142.503 215.952 143.14 215.487 143.614C215.023 144.088 214.391 144.361 213.728 144.374H98.4285C97.7564 144.373 97.1119 144.106 96.6367 143.631C96.1615 143.155 95.8945 142.511 95.8945 141.839Z" stroke="url(#paint55_linear_3_29647)" stroke-opacity="0.2" stroke-width="2"/>
<path d="M266.942 192.52C266.942 193.92 265.808 195.054 264.408 195.054H149.11C148.777 195.054 148.448 194.989 148.14 194.861C147.833 194.734 147.554 194.547 147.318 194.312C147.083 194.077 146.896 193.797 146.769 193.49C146.642 193.183 146.576 192.853 146.576 192.52C146.576 192.188 146.642 191.858 146.769 191.551C146.896 191.243 147.083 190.964 147.318 190.729C147.554 190.493 147.833 190.307 148.14 190.179C148.448 190.052 148.777 189.986 149.11 189.986H264.408C265.808 189.986 266.942 191.121 266.942 192.52Z" stroke="url(#paint56_linear_3_29647)" stroke-opacity="0.2" stroke-width="2"/>
<path d="M88.293 151.975C88.293 150.575 89.428 149.441 90.827 149.441H280.879C281.551 149.441 282.196 149.708 282.671 150.184C283.146 150.659 283.413 151.303 283.413 151.975C283.413 152.647 283.146 153.292 282.671 153.767C282.196 154.242 281.551 154.509 280.879 154.509H90.827C90.155 154.509 89.5106 154.242 89.0355 153.767C88.5603 153.292 88.2932 152.647 88.293 151.975Z" stroke="url(#paint57_linear_3_29647)" stroke-opacity="0.2" stroke-width="2"/>
<path d="M80.6895 162.112C80.6895 160.712 81.8245 159.578 83.2235 159.578H282.144C282.817 159.578 283.461 159.845 283.936 160.32C284.411 160.796 284.678 161.44 284.678 162.112C284.678 162.784 284.411 163.429 283.936 163.904C283.461 164.379 282.817 164.646 282.144 164.646H83.2235C82.5515 164.646 81.9071 164.379 81.4319 163.904C80.9568 163.428 80.6897 162.784 80.6895 162.112Z" stroke="url(#paint58_linear_3_29647)" stroke-opacity="0.2" stroke-width="2"/>
<path d="M78.1562 172.248C78.1562 170.848 79.2912 169.714 80.6902 169.714H275.81C276.482 169.714 277.127 169.981 277.602 170.456C278.077 170.931 278.344 171.576 278.344 172.248C278.344 172.92 278.077 173.564 277.602 174.04C277.127 174.515 276.482 174.782 275.81 174.782H80.6902C80.0183 174.782 79.3739 174.515 78.8987 174.039C78.4236 173.564 78.1565 172.92 78.1562 172.248Z" stroke="url(#paint59_linear_3_29647)" stroke-opacity="0.2" stroke-width="2"/>
<path d="M89.5586 182.384C89.5586 180.984 90.6936 179.85 92.0926 179.85H275.81C276.482 179.85 277.126 180.117 277.601 180.592C278.077 181.067 278.344 181.712 278.344 182.384C278.344 183.056 278.077 183.7 277.601 184.175C277.126 184.651 276.482 184.918 275.81 184.918H92.0926C91.4206 184.917 90.7762 184.65 90.3011 184.175C89.8259 183.7 89.5589 183.056 89.5586 182.384Z" stroke="url(#paint60_linear_3_29647)" stroke-opacity="0.2" stroke-width="2"/>
</g>
<path d="M192.188 20.2059C192.188 19.5339 192.455 18.8895 192.93 18.4144C193.405 17.9392 194.05 17.6722 194.721 17.6719H203.59C203.929 17.6624 204.266 17.7209 204.582 17.8439C204.898 17.967 205.186 18.1521 205.429 18.3884C205.672 18.6246 205.865 18.9072 205.997 19.2194C206.129 19.5316 206.197 19.867 206.197 20.2059C206.197 20.5448 206.129 20.8802 205.997 21.1924C205.865 21.5046 205.672 21.7872 205.429 22.0234C205.186 22.2597 204.898 22.4448 204.582 22.5678C204.266 22.6909 203.929 22.7494 203.59 22.7399H194.721C194.049 22.7399 193.405 22.4729 192.93 21.9977C192.454 21.5225 192.188 20.878 192.188 20.2059Z" stroke="url(#paint61_linear_3_29647)" stroke-opacity="0.2" stroke-width="8"/>
<path d="M170.648 314.153C170.648 315.553 169.514 316.688 168.114 316.688H159.245C158.573 316.688 157.929 316.421 157.453 315.946C156.978 315.47 156.711 314.826 156.711 314.154C156.711 313.481 156.978 312.837 157.453 312.361C157.929 311.886 158.573 311.619 159.245 311.619H168.114C169.514 311.619 170.648 312.754 170.648 314.153Z" stroke="url(#paint62_linear_3_29647)" stroke-opacity="0.2" stroke-width="8"/>
<path d="M180.785 30.3416C180.785 29.6696 181.052 29.0253 181.528 28.5501C182.003 28.0749 182.647 27.8079 183.319 27.8076H213.728C214.388 27.8262 215.014 28.1013 215.474 28.5744C215.935 29.0476 216.192 29.6816 216.192 30.3416C216.192 31.0016 215.935 31.6356 215.474 32.1088C215.014 32.582 214.388 32.8571 213.728 32.8756H183.319C182.647 32.8756 182.003 32.6086 181.527 32.1334C181.052 31.6582 180.785 31.0137 180.785 30.3416Z" stroke="url(#paint63_linear_3_29647)" stroke-opacity="0.2" stroke-width="8"/>
<path d="M182.052 304.016C182.052 305.416 180.918 306.55 179.518 306.55H149.11C148.438 306.55 147.794 306.283 147.318 305.808C146.843 305.333 146.576 304.688 146.576 304.016C146.576 303.344 146.843 302.7 147.318 302.225C147.794 301.749 148.438 301.482 149.11 301.482H179.518C180.918 301.482 182.052 302.617 182.052 304.016Z" stroke="url(#paint64_linear_3_29647)" stroke-opacity="0.2" stroke-width="8"/>
<path d="M173.182 40.4783C173.182 39.8064 173.449 39.162 173.924 38.6868C174.399 38.2117 175.044 37.9446 175.716 37.9443H213.727C214.386 37.9629 215.013 38.238 215.473 38.7112C215.933 39.1844 216.19 39.8183 216.19 40.4783C216.19 41.1383 215.933 41.7723 215.473 42.2455C215.013 42.7187 214.386 42.9938 213.727 43.0123H175.716C175.044 43.0123 174.399 42.7454 173.924 42.2701C173.449 41.7949 173.182 41.1504 173.182 40.4783Z" stroke="url(#paint65_linear_3_29647)" stroke-opacity="0.2" stroke-width="8"/>
<path d="M189.654 293.881C189.654 295.281 188.52 296.415 187.12 296.415H149.11C148.438 296.415 147.794 296.148 147.318 295.672C146.843 295.197 146.576 294.553 146.576 293.881C146.576 293.209 146.843 292.564 147.318 292.089C147.794 291.614 148.438 291.347 149.11 291.347H187.12C188.52 291.347 189.654 292.482 189.654 293.881Z" stroke="url(#paint66_linear_3_29647)" stroke-opacity="0.2" stroke-width="8"/>
<path d="M165.58 50.6141C165.58 49.9421 165.847 49.2977 166.323 48.8226C166.798 48.3474 167.442 48.0803 168.114 48.0801H213.727C214.387 48.0986 215.013 48.3737 215.473 48.8469C215.933 49.3201 216.191 49.9541 216.191 50.6141C216.191 51.2741 215.933 51.908 215.473 52.3812C215.013 52.8544 214.387 53.1295 213.727 53.1481H168.114C167.442 53.1481 166.797 52.8811 166.322 52.4059C165.847 51.9307 165.58 51.2861 165.58 50.6141Z" stroke="url(#paint67_linear_3_29647)" stroke-opacity="0.2" stroke-width="8"/>
<path d="M197.256 283.745C197.256 285.145 196.122 286.279 194.722 286.279H149.11C148.438 286.279 147.794 286.012 147.318 285.537C146.843 285.062 146.576 284.417 146.576 283.745C146.576 283.073 146.843 282.428 147.318 281.953C147.794 281.478 148.438 281.211 149.11 281.211H194.722C196.122 281.211 197.256 282.346 197.256 283.745Z" stroke="url(#paint68_linear_3_29647)" stroke-opacity="0.2" stroke-width="8"/>
<path d="M157.979 60.7508C157.979 59.3508 159.113 58.2158 160.513 58.2158H213.728C214.391 58.229 215.023 58.5018 215.487 58.9757C215.952 59.4496 216.212 60.0867 216.212 60.7503C216.212 61.4139 215.952 62.0511 215.487 62.5249C215.023 62.9988 214.391 63.2716 213.728 63.2848H160.513C159.84 63.2848 159.196 63.0178 158.721 62.5426C158.245 62.0674 157.979 61.4229 157.979 60.7508Z" stroke="url(#paint69_linear_3_29647)" stroke-opacity="0.2" stroke-width="8"/>
<path d="M204.859 273.609C204.859 275.009 203.724 276.143 202.324 276.143H149.11C148.438 276.143 147.794 275.876 147.318 275.401C146.843 274.926 146.576 274.281 146.576 273.609C146.576 272.937 146.843 272.293 147.318 271.817C147.794 271.342 148.438 271.075 149.11 271.075H202.324C203.724 271.075 204.859 272.21 204.859 273.609Z" stroke="url(#paint70_linear_3_29647)" stroke-opacity="0.2" stroke-width="8"/>
<path d="M150.377 70.8865C150.377 69.4865 151.511 68.3525 152.911 68.3525H213.728C214.4 68.3525 215.045 68.6195 215.52 69.0947C215.995 69.5699 216.262 70.2145 216.262 70.8865C216.262 71.5586 215.995 72.2031 215.52 72.6783C215.045 73.1536 214.4 73.4205 213.728 73.4205H152.911C152.239 73.4205 151.594 73.1536 151.119 72.6783C150.644 72.2031 150.377 71.5586 150.377 70.8865Z" stroke="url(#paint71_linear_3_29647)" stroke-opacity="0.2" stroke-width="8"/>
<path d="M212.461 263.472C212.461 264.144 212.194 264.789 211.719 265.264C211.244 265.739 210.599 266.006 209.927 266.006H149.11C148.438 266.006 147.794 265.739 147.318 265.264C146.843 264.789 146.576 264.145 146.576 263.472C146.576 262.8 146.843 262.156 147.318 261.681C147.794 261.205 148.438 260.938 149.11 260.938H209.927C210.599 260.938 211.244 261.205 211.719 261.681C212.194 262.156 212.461 262.8 212.461 263.472Z" stroke="url(#paint72_linear_3_29647)" stroke-opacity="0.2" stroke-width="8"/>
<path d="M141.508 81.0233C141.508 79.6233 142.642 78.4893 144.042 78.4893H213.728C214.4 78.4893 215.044 78.7562 215.52 79.2314C215.995 79.7067 216.262 80.3512 216.262 81.0233C216.262 81.6953 215.995 82.3398 215.52 82.8151C215.044 83.2903 214.4 83.5573 213.728 83.5573H144.042C143.37 83.5573 142.725 83.2903 142.25 82.8151C141.775 82.3398 141.508 81.6953 141.508 81.0233Z" stroke="url(#paint73_linear_3_29647)" stroke-opacity="0.2" stroke-width="8"/>
<path d="M221.33 253.337C221.33 254.009 221.063 254.653 220.588 255.128C220.113 255.603 219.468 255.87 218.796 255.871H149.11C148.438 255.871 147.794 255.604 147.318 255.129C146.843 254.653 146.576 254.009 146.576 253.337C146.576 252.665 146.843 252.02 147.318 251.545C147.794 251.07 148.438 250.803 149.11 250.803H218.796C219.468 250.803 220.113 251.07 220.588 251.545C221.063 252.02 221.33 252.665 221.33 253.337Z" stroke="url(#paint74_linear_3_29647)" stroke-opacity="0.2" stroke-width="8"/>
<path d="M133.904 91.159C133.904 89.759 135.038 88.625 136.438 88.625H213.726C214.398 88.625 215.043 88.892 215.518 89.3672C215.993 89.8424 216.26 90.4869 216.26 91.159C216.26 91.8311 215.993 92.4756 215.518 92.9508C215.043 93.426 214.398 93.693 213.726 93.693H136.438C135.766 93.693 135.122 93.426 134.646 92.9508C134.171 92.4756 133.904 91.8311 133.904 91.159Z" stroke="url(#paint75_linear_3_29647)" stroke-opacity="0.2" stroke-width="8"/>
<path d="M228.932 243.201C228.932 243.873 228.665 244.517 228.19 244.993C227.715 245.468 227.07 245.735 226.398 245.735H149.11C148.438 245.735 147.794 245.468 147.318 244.993C146.843 244.518 146.576 243.873 146.576 243.201C146.576 242.529 146.843 241.884 147.318 241.409C147.794 240.934 148.438 240.667 149.11 240.667H226.398C227.07 240.667 227.715 240.934 228.19 241.409C228.665 241.884 228.932 242.529 228.932 243.201Z" stroke="url(#paint76_linear_3_29647)" stroke-opacity="0.2" stroke-width="8"/>
<path d="M126.303 101.295C126.303 99.8947 127.437 98.7607 128.837 98.7607H213.727C214.399 98.7607 215.043 99.0277 215.519 99.5029C215.994 99.9781 216.261 100.623 216.261 101.295C216.261 101.967 215.994 102.611 215.519 103.087C215.043 103.562 214.399 103.829 213.727 103.829H128.837C128.165 103.829 127.52 103.562 127.045 103.087C126.57 102.611 126.303 101.967 126.303 101.295Z" stroke="url(#paint77_linear_3_29647)" stroke-opacity="0.2" stroke-width="8"/>
<path d="M236.533 233.065C236.532 233.737 236.265 234.382 235.79 234.857C235.315 235.332 234.671 235.599 233.999 235.599H149.109C148.437 235.599 147.792 235.332 147.317 234.857C146.841 234.382 146.574 233.737 146.574 233.065C146.574 232.393 146.841 231.748 147.317 231.273C147.792 230.797 148.437 230.53 149.109 230.53H233.999C234.671 230.531 235.315 230.798 235.791 231.273C236.266 231.748 236.533 232.393 236.533 233.065Z" stroke="url(#paint78_linear_3_29647)" stroke-opacity="0.2" stroke-width="8"/>
<path d="M118.701 111.43C118.701 110.758 118.969 110.114 119.444 109.639C119.919 109.163 120.564 108.896 121.236 108.896H213.728C214.388 108.915 215.014 109.19 215.474 109.663C215.935 110.137 216.192 110.77 216.192 111.43C216.192 112.09 215.935 112.724 215.474 113.198C215.014 113.671 214.388 113.946 213.728 113.964H121.236C120.903 113.965 120.574 113.899 120.266 113.772C119.959 113.645 119.679 113.458 119.444 113.223C119.208 112.987 119.022 112.708 118.894 112.4C118.767 112.093 118.701 111.763 118.701 111.43Z" stroke="url(#paint79_linear_3_29647)" stroke-opacity="0.2" stroke-width="8"/>
<path d="M244.136 222.928C244.136 224.328 243.001 225.462 241.602 225.462H149.11C148.438 225.462 147.794 225.195 147.318 224.719C146.843 224.244 146.576 223.6 146.576 222.928C146.576 222.256 146.843 221.611 147.318 221.136C147.794 220.661 148.438 220.394 149.11 220.394H241.602C242.274 220.394 242.919 220.661 243.394 221.136C243.869 221.611 244.136 222.256 244.136 222.928Z" stroke="url(#paint80_linear_3_29647)" stroke-opacity="0.2" stroke-width="8"/>
<path d="M111.098 121.567C111.098 120.895 111.365 120.251 111.84 119.776C112.315 119.301 112.96 119.033 113.632 119.033H213.727C214.386 119.052 215.013 119.327 215.473 119.8C215.933 120.273 216.19 120.907 216.19 121.567C216.19 122.227 215.933 122.861 215.473 123.334C215.013 123.808 214.386 124.083 213.727 124.101H113.632C112.96 124.101 112.315 123.834 111.84 123.359C111.365 122.884 111.098 122.239 111.098 121.567Z" stroke="url(#paint81_linear_3_29647)" stroke-opacity="0.2" stroke-width="8"/>
<path d="M251.738 212.792C251.738 214.192 250.604 215.326 249.204 215.326H149.11C148.438 215.326 147.794 215.059 147.318 214.584C146.843 214.108 146.576 213.464 146.576 212.792C146.576 212.12 146.843 211.475 147.318 211C147.794 210.525 148.438 210.258 149.11 210.258H249.204C250.604 210.258 251.738 211.393 251.738 212.792Z" stroke="url(#paint82_linear_3_29647)" stroke-opacity="0.2" stroke-width="8"/>
<path d="M103.496 131.703C103.496 131.031 103.763 130.387 104.239 129.911C104.714 129.436 105.358 129.169 106.03 129.169H213.727C214.387 129.187 215.013 129.463 215.473 129.936C215.934 130.409 216.191 131.043 216.191 131.703C216.191 132.363 215.934 132.997 215.473 133.47C215.013 133.943 214.387 134.218 213.727 134.237H106.03C105.358 134.237 104.713 133.97 104.238 133.495C103.763 133.02 103.496 132.375 103.496 131.703Z" stroke="url(#paint83_linear_3_29647)" stroke-opacity="0.2" stroke-width="8"/>
<path d="M259.34 202.656C259.34 204.056 258.206 205.19 256.806 205.19H149.11C148.438 205.19 147.794 204.923 147.318 204.448C146.843 203.973 146.576 203.328 146.576 202.656C146.576 201.984 146.843 201.339 147.318 200.864C147.794 200.389 148.438 200.122 149.11 200.122H256.806C258.206 200.122 259.34 201.257 259.34 202.656Z" stroke="url(#paint84_linear_3_29647)" stroke-opacity="0.2" stroke-width="8"/>
<path d="M95.8945 141.839C95.8948 141.167 96.1619 140.522 96.637 140.047C97.1122 139.572 97.7566 139.305 98.4285 139.305H213.728C214.391 139.318 215.023 139.591 215.487 140.065C215.952 140.538 216.212 141.176 216.212 141.839C216.212 142.503 215.952 143.14 215.487 143.614C215.023 144.088 214.391 144.361 213.728 144.374H98.4285C97.7564 144.373 97.1119 144.106 96.6367 143.631C96.1615 143.155 95.8945 142.511 95.8945 141.839Z" stroke="url(#paint85_linear_3_29647)" stroke-opacity="0.2" stroke-width="8"/>
<path d="M266.942 192.52C266.942 193.92 265.808 195.054 264.408 195.054H149.11C148.777 195.054 148.448 194.989 148.14 194.861C147.833 194.734 147.554 194.547 147.318 194.312C147.083 194.077 146.896 193.797 146.769 193.49C146.642 193.183 146.576 192.853 146.576 192.52C146.576 192.188 146.642 191.858 146.769 191.551C146.896 191.243 147.083 190.964 147.318 190.729C147.554 190.493 147.833 190.307 148.14 190.179C148.448 190.052 148.777 189.986 149.11 189.986H264.408C265.808 189.986 266.942 191.121 266.942 192.52Z" stroke="url(#paint86_linear_3_29647)" stroke-opacity="0.2" stroke-width="8"/>
<path d="M88.293 151.975C88.293 150.575 89.428 149.441 90.827 149.441H280.879C281.551 149.441 282.196 149.708 282.671 150.184C283.146 150.659 283.413 151.303 283.413 151.975C283.413 152.647 283.146 153.292 282.671 153.767C282.196 154.242 281.551 154.509 280.879 154.509H90.827C90.155 154.509 89.5106 154.242 89.0355 153.767C88.5603 153.292 88.2932 152.647 88.293 151.975Z" stroke="url(#paint87_linear_3_29647)" stroke-opacity="0.2" stroke-width="8"/>
<path d="M80.6895 162.112C80.6895 160.712 81.8245 159.578 83.2235 159.578H282.144C282.817 159.578 283.461 159.845 283.936 160.32C284.411 160.796 284.678 161.44 284.678 162.112C284.678 162.784 284.411 163.429 283.936 163.904C283.461 164.379 282.817 164.646 282.144 164.646H83.2235C82.5515 164.646 81.9071 164.379 81.4319 163.904C80.9568 163.428 80.6897 162.784 80.6895 162.112Z" stroke="url(#paint88_linear_3_29647)" stroke-opacity="0.2" stroke-width="8"/>
<path d="M78.1562 172.248C78.1562 170.848 79.2912 169.714 80.6902 169.714H275.81C276.482 169.714 277.127 169.981 277.602 170.456C278.077 170.931 278.344 171.576 278.344 172.248C278.344 172.92 278.077 173.564 277.602 174.04C277.127 174.515 276.482 174.782 275.81 174.782H80.6902C80.0183 174.782 79.3739 174.515 78.8987 174.039C78.4236 173.564 78.1565 172.92 78.1562 172.248Z" stroke="url(#paint89_linear_3_29647)" stroke-opacity="0.2" stroke-width="8"/>
<path d="M89.5586 182.384C89.5586 180.984 90.6936 179.85 92.0926 179.85H275.81C276.482 179.85 277.126 180.117 277.601 180.592C278.077 181.067 278.344 181.712 278.344 182.384C278.344 183.056 278.077 183.7 277.601 184.175C277.126 184.651 276.482 184.918 275.81 184.918H92.0926C91.4206 184.917 90.7762 184.65 90.3011 184.175C89.8259 183.7 89.5589 183.056 89.5586 182.384Z" stroke="url(#paint90_linear_3_29647)" stroke-opacity="0.2" stroke-width="8"/>
<path d="M192.188 20.2059C192.188 19.5339 192.455 18.8895 192.93 18.4144C193.405 17.9392 194.05 17.6722 194.721 17.6719H203.59C203.929 17.6624 204.266 17.7209 204.582 17.8439C204.898 17.967 205.186 18.1521 205.429 18.3884C205.672 18.6246 205.865 18.9072 205.997 19.2194C206.129 19.5316 206.197 19.867 206.197 20.2059C206.197 20.5448 206.129 20.8802 205.997 21.1924C205.865 21.5046 205.672 21.7872 205.429 22.0234C205.186 22.2597 204.898 22.4448 204.582 22.5678C204.266 22.6909 203.929 22.7494 203.59 22.7399H194.721C194.049 22.7399 193.405 22.4729 192.93 21.9977C192.454 21.5225 192.188 20.878 192.188 20.2059Z" stroke="url(#paint91_radial_3_29647)"/>
<path d="M180.785 30.3416C180.785 29.6696 181.052 29.0253 181.528 28.5501C182.003 28.0749 182.647 27.8079 183.319 27.8076H213.728C214.388 27.8262 215.014 28.1013 215.474 28.5744C215.935 29.0476 216.192 29.6816 216.192 30.3416C216.192 31.0016 215.935 31.6356 215.474 32.1088C215.014 32.582 214.388 32.8571 213.728 32.8756H183.319C182.647 32.8756 182.003 32.6086 181.527 32.1334C181.052 31.6582 180.785 31.0137 180.785 30.3416Z" stroke="url(#paint92_radial_3_29647)"/>
<path d="M173.182 40.4783C173.182 39.8064 173.449 39.162 173.924 38.6868C174.399 38.2117 175.044 37.9446 175.716 37.9443H213.727C214.386 37.9629 215.013 38.238 215.473 38.7112C215.933 39.1844 216.19 39.8183 216.19 40.4783C216.19 41.1383 215.933 41.7723 215.473 42.2455C215.013 42.7187 214.386 42.9938 213.727 43.0123H175.716C175.044 43.0123 174.399 42.7454 173.924 42.2701C173.449 41.7949 173.182 41.1504 173.182 40.4783Z" stroke="url(#paint93_radial_3_29647)"/>
<path d="M165.58 50.6141C165.58 49.9421 165.847 49.2977 166.323 48.8226C166.798 48.3474 167.442 48.0803 168.114 48.0801H213.727C214.387 48.0986 215.013 48.3737 215.473 48.8469C215.933 49.3201 216.191 49.9541 216.191 50.6141C216.191 51.2741 215.933 51.908 215.473 52.3812C215.013 52.8544 214.387 53.1295 213.727 53.1481H168.114C167.442 53.1481 166.797 52.8811 166.322 52.4059C165.847 51.9307 165.58 51.2861 165.58 50.6141Z" stroke="url(#paint94_radial_3_29647)"/>
<path d="M157.979 60.7508C157.979 59.3508 159.113 58.2158 160.513 58.2158H213.728C214.391 58.229 215.023 58.5018 215.487 58.9757C215.952 59.4496 216.212 60.0867 216.212 60.7503C216.212 61.4139 215.952 62.0511 215.487 62.5249C215.023 62.9988 214.391 63.2716 213.728 63.2848H160.513C159.84 63.2848 159.196 63.0178 158.721 62.5426C158.245 62.0674 157.979 61.4229 157.979 60.7508Z" stroke="url(#paint95_radial_3_29647)"/>
<path d="M150.377 70.8865C150.377 69.4865 151.511 68.3525 152.911 68.3525H213.728C214.4 68.3525 215.045 68.6195 215.52 69.0947C215.995 69.5699 216.262 70.2145 216.262 70.8865C216.262 71.5586 215.995 72.2031 215.52 72.6783C215.045 73.1536 214.4 73.4205 213.728 73.4205H152.911C152.239 73.4205 151.594 73.1536 151.119 72.6783C150.644 72.2031 150.377 71.5586 150.377 70.8865Z" stroke="url(#paint96_radial_3_29647)"/>
<path d="M141.508 81.0233C141.508 79.6233 142.642 78.4893 144.042 78.4893H213.728C214.4 78.4893 215.044 78.7562 215.52 79.2314C215.995 79.7067 216.262 80.3512 216.262 81.0233C216.262 81.6953 215.995 82.3398 215.52 82.8151C215.044 83.2903 214.4 83.5573 213.728 83.5573H144.042C143.37 83.5573 142.725 83.2903 142.25 82.8151C141.775 82.3398 141.508 81.6953 141.508 81.0233Z" stroke="url(#paint97_radial_3_29647)"/>
<path d="M133.904 91.159C133.904 89.759 135.038 88.625 136.438 88.625H213.726C214.398 88.625 215.043 88.892 215.518 89.3672C215.993 89.8424 216.26 90.4869 216.26 91.159C216.26 91.8311 215.993 92.4756 215.518 92.9508C215.043 93.426 214.398 93.693 213.726 93.693H136.438C135.766 93.693 135.122 93.426 134.646 92.9508C134.171 92.4756 133.904 91.8311 133.904 91.159Z" stroke="url(#paint98_radial_3_29647)"/>
<path d="M126.303 101.295C126.303 99.8947 127.437 98.7607 128.837 98.7607H213.727C214.399 98.7607 215.043 99.0277 215.519 99.5029C215.994 99.9781 216.261 100.623 216.261 101.295C216.261 101.967 215.994 102.611 215.519 103.087C215.043 103.562 214.399 103.829 213.727 103.829H128.837C128.165 103.829 127.52 103.562 127.045 103.087C126.57 102.611 126.303 101.967 126.303 101.295Z" stroke="url(#paint99_radial_3_29647)"/>
<path d="M118.701 111.43C118.701 110.758 118.969 110.114 119.444 109.639C119.919 109.163 120.564 108.896 121.236 108.896H213.728C214.388 108.915 215.014 109.19 215.474 109.663C215.935 110.137 216.192 110.77 216.192 111.43C216.192 112.09 215.935 112.724 215.474 113.198C215.014 113.671 214.388 113.946 213.728 113.964H121.236C120.903 113.965 120.574 113.899 120.266 113.772C119.959 113.645 119.679 113.458 119.444 113.223C119.208 112.987 119.022 112.708 118.894 112.4C118.767 112.093 118.701 111.763 118.701 111.43Z" stroke="url(#paint100_radial_3_29647)"/>
<path d="M111.098 121.567C111.098 120.895 111.365 120.251 111.84 119.776C112.315 119.301 112.96 119.033 113.632 119.033H213.727C214.386 119.052 215.013 119.327 215.473 119.8C215.933 120.273 216.19 120.907 216.19 121.567C216.19 122.227 215.933 122.861 215.473 123.334C215.013 123.808 214.386 124.083 213.727 124.101H113.632C112.96 124.101 112.315 123.834 111.84 123.359C111.365 122.884 111.098 122.239 111.098 121.567Z" stroke="url(#paint101_radial_3_29647)"/>
<path d="M103.496 131.703C103.496 131.031 103.763 130.387 104.239 129.911C104.714 129.436 105.358 129.169 106.03 129.169H213.727C214.387 129.187 215.013 129.463 215.473 129.936C215.934 130.409 216.191 131.043 216.191 131.703C216.191 132.363 215.934 132.997 215.473 133.47C215.013 133.943 214.387 134.218 213.727 134.237H106.03C105.358 134.237 104.713 133.97 104.238 133.495C103.763 133.02 103.496 132.375 103.496 131.703Z" stroke="url(#paint102_radial_3_29647)"/>
<path d="M95.8945 141.839C95.8948 141.167 96.1619 140.522 96.637 140.047C97.1122 139.572 97.7566 139.305 98.4285 139.305H213.728C214.391 139.318 215.023 139.591 215.487 140.065C215.952 140.538 216.212 141.176 216.212 141.839C216.212 142.503 215.952 143.14 215.487 143.614C215.023 144.088 214.391 144.361 213.728 144.374H98.4285C97.7564 144.373 97.1119 144.106 96.6367 143.631C96.1615 143.155 95.8945 142.511 95.8945 141.839Z" stroke="url(#paint103_radial_3_29647)"/>
<path d="M88.293 151.975C88.293 150.575 89.428 149.441 90.827 149.441H280.879C281.551 149.441 282.196 149.708 282.671 150.184C283.146 150.659 283.413 151.303 283.413 151.975C283.413 152.647 283.146 153.292 282.671 153.767C282.196 154.242 281.551 154.509 280.879 154.509H90.827C90.155 154.509 89.5106 154.242 89.0355 153.767C88.5603 153.292 88.2932 152.647 88.293 151.975Z" stroke="url(#paint104_radial_3_29647)"/>
<path d="M80.6895 162.112C80.6895 160.712 81.8245 159.578 83.2235 159.578H282.144C282.817 159.578 283.461 159.845 283.936 160.32C284.411 160.796 284.678 161.44 284.678 162.112C284.678 162.784 284.411 163.429 283.936 163.904C283.461 164.379 282.817 164.646 282.144 164.646H83.2235C82.5515 164.646 81.9071 164.379 81.4319 163.904C80.9568 163.428 80.6897 162.784 80.6895 162.112Z" stroke="url(#paint105_radial_3_29647)"/>
<path d="M78.1562 172.248C78.1562 170.848 79.2912 169.714 80.6902 169.714H275.81C276.482 169.714 277.127 169.981 277.602 170.456C278.077 170.931 278.344 171.576 278.344 172.248C278.344 172.92 278.077 173.564 277.602 174.04C277.127 174.515 276.482 174.782 275.81 174.782H80.6902C80.0183 174.782 79.3739 174.515 78.8987 174.039C78.4236 173.564 78.1565 172.92 78.1562 172.248Z" stroke="url(#paint106_radial_3_29647)"/>
<path d="M89.5586 182.384C89.5586 180.984 90.6936 179.85 92.0926 179.85H275.81C276.482 179.85 277.126 180.117 277.601 180.592C278.077 181.067 278.344 181.712 278.344 182.384C278.344 183.056 278.077 183.7 277.601 184.175C277.126 184.651 276.482 184.918 275.81 184.918H92.0926C91.4206 184.917 90.7762 184.65 90.3011 184.175C89.8259 183.7 89.5589 183.056 89.5586 182.384Z" stroke="url(#paint107_radial_3_29647)"/>
<path d="M266.942 192.52C266.942 193.92 265.808 195.054 264.408 195.054H149.11C148.777 195.054 148.448 194.989 148.14 194.861C147.833 194.734 147.554 194.547 147.318 194.312C147.083 194.077 146.896 193.797 146.769 193.49C146.642 193.183 146.576 192.853 146.576 192.52C146.576 192.188 146.642 191.858 146.769 191.551C146.896 191.243 147.083 190.964 147.318 190.729C147.554 190.493 147.833 190.307 148.14 190.179C148.448 190.052 148.777 189.986 149.11 189.986H264.408C265.808 189.986 266.942 191.121 266.942 192.52Z" stroke="url(#paint108_radial_3_29647)"/>
<path d="M259.34 202.656C259.34 204.056 258.206 205.19 256.806 205.19H149.11C148.438 205.19 147.794 204.923 147.318 204.448C146.843 203.973 146.576 203.328 146.576 202.656C146.576 201.984 146.843 201.339 147.318 200.864C147.794 200.389 148.438 200.122 149.11 200.122H256.806C258.206 200.122 259.34 201.257 259.34 202.656Z" stroke="url(#paint109_radial_3_29647)"/>
<path d="M251.738 212.792C251.738 214.192 250.604 215.326 249.204 215.326H149.11C148.438 215.326 147.794 215.059 147.318 214.584C146.843 214.108 146.576 213.464 146.576 212.792C146.576 212.12 146.843 211.475 147.318 211C147.794 210.525 148.438 210.258 149.11 210.258H249.204C250.604 210.258 251.738 211.393 251.738 212.792Z" stroke="url(#paint110_radial_3_29647)"/>
<path d="M244.136 222.928C244.136 224.328 243.001 225.462 241.602 225.462H149.11C148.438 225.462 147.794 225.195 147.318 224.719C146.843 224.244 146.576 223.6 146.576 222.928C146.576 222.256 146.843 221.611 147.318 221.136C147.794 220.661 148.438 220.394 149.11 220.394H241.602C242.274 220.394 242.919 220.661 243.394 221.136C243.869 221.611 244.136 222.256 244.136 222.928Z" stroke="url(#paint111_radial_3_29647)"/>
<path d="M236.533 233.065C236.532 233.737 236.265 234.382 235.79 234.857C235.315 235.332 234.671 235.599 233.999 235.599H149.109C148.437 235.599 147.792 235.332 147.317 234.857C146.841 234.382 146.574 233.737 146.574 233.065C146.574 232.393 146.841 231.748 147.317 231.273C147.792 230.797 148.437 230.53 149.109 230.53H233.999C234.671 230.531 235.315 230.798 235.791 231.273C236.266 231.748 236.533 232.393 236.533 233.065Z" stroke="url(#paint112_radial_3_29647)"/>
<path d="M228.932 243.201C228.932 243.873 228.665 244.517 228.19 244.993C227.715 245.468 227.07 245.735 226.398 245.735H149.11C148.438 245.735 147.794 245.468 147.318 244.993C146.843 244.518 146.576 243.873 146.576 243.201C146.576 242.529 146.843 241.884 147.318 241.409C147.794 240.934 148.438 240.667 149.11 240.667H226.398C227.07 240.667 227.715 240.934 228.19 241.409C228.665 241.884 228.932 242.529 228.932 243.201Z" stroke="url(#paint113_radial_3_29647)"/>
<path d="M221.33 253.337C221.33 254.009 221.063 254.653 220.588 255.128C220.113 255.603 219.468 255.87 218.796 255.871H149.11C148.438 255.871 147.794 255.604 147.318 255.129C146.843 254.653 146.576 254.009 146.576 253.337C146.576 252.665 146.843 252.02 147.318 251.545C147.794 251.07 148.438 250.803 149.11 250.803H218.796C219.468 250.803 220.113 251.07 220.588 251.545C221.063 252.02 221.33 252.665 221.33 253.337Z" stroke="url(#paint114_radial_3_29647)"/>
<path d="M212.461 263.472C212.461 264.144 212.194 264.789 211.719 265.264C211.244 265.739 210.599 266.006 209.927 266.006H149.11C148.438 266.006 147.794 265.739 147.318 265.264C146.843 264.789 146.576 264.145 146.576 263.472C146.576 262.8 146.843 262.156 147.318 261.681C147.794 261.205 148.438 260.938 149.11 260.938H209.927C210.599 260.938 211.244 261.205 211.719 261.681C212.194 262.156 212.461 262.8 212.461 263.472Z" stroke="url(#paint115_radial_3_29647)"/>
<path d="M204.859 273.609C204.859 275.009 203.724 276.143 202.324 276.143H149.11C148.438 276.143 147.794 275.876 147.318 275.401C146.843 274.926 146.576 274.281 146.576 273.609C146.576 272.937 146.843 272.293 147.318 271.817C147.794 271.342 148.438 271.075 149.11 271.075H202.324C203.724 271.075 204.859 272.21 204.859 273.609Z" stroke="url(#paint116_radial_3_29647)"/>
<path d="M197.256 283.745C197.256 285.145 196.122 286.279 194.722 286.279H149.11C148.438 286.279 147.794 286.012 147.318 285.537C146.843 285.062 146.576 284.417 146.576 283.745C146.576 283.073 146.843 282.428 147.318 281.953C147.794 281.478 148.438 281.211 149.11 281.211H194.722C196.122 281.211 197.256 282.346 197.256 283.745Z" stroke="url(#paint117_radial_3_29647)"/>
<path d="M189.654 293.881C189.654 295.281 188.52 296.415 187.12 296.415H149.11C148.438 296.415 147.794 296.148 147.318 295.672C146.843 295.197 146.576 294.553 146.576 293.881C146.576 293.209 146.843 292.564 147.318 292.089C147.794 291.614 148.438 291.347 149.11 291.347H187.12C188.52 291.347 189.654 292.482 189.654 293.881Z" stroke="url(#paint118_radial_3_29647)"/>
<path d="M182.052 304.016C182.052 305.416 180.918 306.55 179.518 306.55H149.11C148.438 306.55 147.794 306.283 147.318 305.808C146.843 305.333 146.576 304.688 146.576 304.016C146.576 303.344 146.843 302.7 147.318 302.225C147.794 301.749 148.438 301.482 149.11 301.482H179.518C180.918 301.482 182.052 302.617 182.052 304.016Z" stroke="url(#paint119_radial_3_29647)"/>
<path d="M170.648 314.153C170.648 315.553 169.514 316.688 168.114 316.688H159.245C158.573 316.688 157.929 316.421 157.453 315.946C156.978 315.47 156.711 314.826 156.711 314.154C156.711 313.481 156.978 312.837 157.453 312.361C157.929 311.886 158.573 311.619 159.245 311.619H168.114C169.514 311.619 170.648 312.754 170.648 314.153Z" stroke="url(#paint120_radial_3_29647)"/>
</g>
<defs>
<linearGradient id="paint0_linear_3_29647" x1="181.656" y1="-91.3281" x2="181.656" y2="433.141" gradientUnits="userSpaceOnUse">
<stop/>
<stop offset="0.7" stop-opacity="0"/>
</linearGradient>
<linearGradient id="paint1_linear_3_29647" x1="-30.8433" y1="-91.3281" x2="-29.8433" y2="-91.3281" gradientUnits="userSpaceOnUse">
<stop stop-color="#7877C6"/>
<stop offset="1" stop-color="#6663F6"/>
</linearGradient>
<linearGradient id="paint2_linear_3_29647" x1="-30.8436" y1="-91.3279" x2="-29.8436" y2="-91.3279" gradientUnits="userSpaceOnUse">
<stop stop-color="#7877C6"/>
<stop offset="1" stop-color="#6663F6"/>
</linearGradient>
<linearGradient id="paint3_linear_3_29647" x1="-30.8428" y1="-91.3284" x2="-29.8428" y2="-91.3284" gradientUnits="userSpaceOnUse">
<stop stop-color="#7877C6"/>
<stop offset="1" stop-color="#6663F6"/>
</linearGradient>
<linearGradient id="paint4_linear_3_29647" x1="-30.8428" y1="-91.3281" x2="-29.8428" y2="-91.3281" gradientUnits="userSpaceOnUse">
<stop stop-color="#7877C6"/>
<stop offset="1" stop-color="#6663F6"/>
</linearGradient>
<linearGradient id="paint5_linear_3_29647" x1="-30.8444" y1="-91.3275" x2="-29.8444" y2="-91.3275" gradientUnits="userSpaceOnUse">
<stop stop-color="#7877C6"/>
<stop offset="1" stop-color="#6663F6"/>
</linearGradient>
<linearGradient id="paint6_linear_3_29647" x1="-30.8428" y1="-91.3301" x2="-29.8428" y2="-91.3301" gradientUnits="userSpaceOnUse">
<stop stop-color="#7877C6"/>
<stop offset="1" stop-color="#6663F6"/>
</linearGradient>
<linearGradient id="paint7_linear_3_29647" x1="-30.8439" y1="-91.3277" x2="-29.8439" y2="-91.3277" gradientUnits="userSpaceOnUse">
<stop stop-color="#7877C6"/>
<stop offset="1" stop-color="#6663F6"/>
</linearGradient>
<linearGradient id="paint8_linear_3_29647" x1="-30.8428" y1="-91.3276" x2="-29.8428" y2="-91.3276" gradientUnits="userSpaceOnUse">
<stop stop-color="#7877C6"/>
<stop offset="1" stop-color="#6663F6"/>
</linearGradient>
<linearGradient id="paint9_linear_3_29647" x1="-30.8435" y1="-91.3282" x2="-29.8435" y2="-91.3282" gradientUnits="userSpaceOnUse">
<stop stop-color="#7877C6"/>
<stop offset="1" stop-color="#6663F6"/>
</linearGradient>
<linearGradient id="paint10_linear_3_29647" x1="-30.8428" y1="-91.3273" x2="-29.8428" y2="-91.3273" gradientUnits="userSpaceOnUse">
<stop stop-color="#7877C6"/>
<stop offset="1" stop-color="#6663F6"/>
</linearGradient>
<linearGradient id="paint11_linear_3_29647" x1="-30.843" y1="-91.3283" x2="-29.843" y2="-91.3283" gradientUnits="userSpaceOnUse">
<stop stop-color="#7877C6"/>
<stop offset="1" stop-color="#6663F6"/>
</linearGradient>
<linearGradient id="paint12_linear_3_29647" x1="-30.8428" y1="-91.3281" x2="-29.8428" y2="-91.3281" gradientUnits="userSpaceOnUse">
<stop stop-color="#7877C6"/>
<stop offset="1" stop-color="#6663F6"/>
</linearGradient>
<linearGradient id="paint13_linear_3_29647" x1="-30.8432" y1="-91.3275" x2="-29.8432" y2="-91.3275" gradientUnits="userSpaceOnUse">
<stop stop-color="#7877C6"/>
<stop offset="1" stop-color="#6663F6"/>
</linearGradient>
<linearGradient id="paint14_linear_3_29647" x1="-30.8428" y1="-91.3278" x2="-29.8428" y2="-91.3278" gradientUnits="userSpaceOnUse">
<stop stop-color="#7877C6"/>
<stop offset="1" stop-color="#6663F6"/>
</linearGradient>
<linearGradient id="paint15_linear_3_29647" x1="-30.8447" y1="-91.3278" x2="-29.8447" y2="-91.3278" gradientUnits="userSpaceOnUse">
<stop stop-color="#7877C6"/>
<stop offset="1" stop-color="#6663F6"/>
</linearGradient>
<linearGradient id="paint16_linear_3_29647" x1="-30.8428" y1="-91.3276" x2="-29.8428" y2="-91.3276" gradientUnits="userSpaceOnUse">
<stop stop-color="#7877C6"/>
<stop offset="1" stop-color="#6663F6"/>
</linearGradient>
<linearGradient id="paint17_linear_3_29647" x1="-30.8443" y1="-91.328" x2="-29.8443" y2="-91.328" gradientUnits="userSpaceOnUse">
<stop stop-color="#7877C6"/>
<stop offset="1" stop-color="#6663F6"/>
</linearGradient>
<linearGradient id="paint18_linear_3_29647" x1="-30.8443" y1="-91.3278" x2="-29.8443" y2="-91.3278" gradientUnits="userSpaceOnUse">
<stop stop-color="#7877C6"/>
<stop offset="1" stop-color="#6663F6"/>
</linearGradient>
<linearGradient id="paint19_linear_3_29647" x1="-30.8428" y1="-91.3282" x2="-29.8428" y2="-91.3282" gradientUnits="userSpaceOnUse">
<stop stop-color="#7877C6"/>
<stop offset="1" stop-color="#6663F6"/>
</linearGradient>
<linearGradient id="paint20_linear_3_29647" x1="-30.8428" y1="-91.3299" x2="-29.8428" y2="-91.3299" gradientUnits="userSpaceOnUse">
<stop stop-color="#7877C6"/>
<stop offset="1" stop-color="#6663F6"/>
</linearGradient>
<linearGradient id="paint21_linear_3_29647" x1="-30.8443" y1="-91.3281" x2="-29.8443" y2="-91.3281" gradientUnits="userSpaceOnUse">
<stop stop-color="#7877C6"/>
<stop offset="1" stop-color="#6663F6"/>
</linearGradient>
<linearGradient id="paint22_linear_3_29647" x1="-30.8428" y1="-91.3278" x2="-29.8428" y2="-91.3278" gradientUnits="userSpaceOnUse">
<stop stop-color="#7877C6"/>
<stop offset="1" stop-color="#6663F6"/>
</linearGradient>
<linearGradient id="paint23_linear_3_29647" x1="-30.8439" y1="-91.3284" x2="-29.8439" y2="-91.3284" gradientUnits="userSpaceOnUse">
<stop stop-color="#7877C6"/>
<stop offset="1" stop-color="#6663F6"/>
</linearGradient>
<linearGradient id="paint24_linear_3_29647" x1="-30.8428" y1="-91.3276" x2="-29.8428" y2="-91.3276" gradientUnits="userSpaceOnUse">
<stop stop-color="#7877C6"/>
<stop offset="1" stop-color="#6663F6"/>
</linearGradient>
<linearGradient id="paint25_linear_3_29647" x1="-30.8435" y1="-91.3283" x2="-29.8435" y2="-91.3283" gradientUnits="userSpaceOnUse">
<stop stop-color="#7877C6"/>
<stop offset="1" stop-color="#6663F6"/>
</linearGradient>
<linearGradient id="paint26_linear_3_29647" x1="-30.8428" y1="-91.3273" x2="-29.8428" y2="-91.3273" gradientUnits="userSpaceOnUse">
<stop stop-color="#7877C6"/>
<stop offset="1" stop-color="#6663F6"/>
</linearGradient>
<linearGradient id="paint27_linear_3_29647" x1="-30.843" y1="-91.3283" x2="-29.843" y2="-91.3283" gradientUnits="userSpaceOnUse">
<stop stop-color="#7877C6"/>
<stop offset="1" stop-color="#6663F6"/>
</linearGradient>
<linearGradient id="paint28_linear_3_29647" x1="-30.8446" y1="-91.3276" x2="-29.8446" y2="-91.3276" gradientUnits="userSpaceOnUse">
<stop stop-color="#7877C6"/>
<stop offset="1" stop-color="#6663F6"/>
</linearGradient>
<linearGradient id="paint29_linear_3_29647" x1="-30.8437" y1="-91.3278" x2="-29.8437" y2="-91.3278" gradientUnits="userSpaceOnUse">
<stop stop-color="#7877C6"/>
<stop offset="1" stop-color="#6663F6"/>
</linearGradient>
<linearGradient id="paint30_linear_3_29647" x1="-30.8444" y1="-91.328" x2="-29.8444" y2="-91.328" gradientUnits="userSpaceOnUse">
<stop stop-color="#7877C6"/>
<stop offset="1" stop-color="#6663F6"/>
</linearGradient>
<linearGradient id="paint31_linear_3_29647" x1="-30.8433" y1="-91.3281" x2="-29.8433" y2="-91.3281" gradientUnits="userSpaceOnUse">
<stop stop-color="#7877C6"/>
<stop offset="1" stop-color="#6663F6"/>
</linearGradient>
<linearGradient id="paint32_linear_3_29647" x1="-30.8436" y1="-91.3279" x2="-29.8436" y2="-91.3279" gradientUnits="userSpaceOnUse">
<stop stop-color="#7877C6"/>
<stop offset="1" stop-color="#6663F6"/>
</linearGradient>
<linearGradient id="paint33_linear_3_29647" x1="-30.8428" y1="-91.3284" x2="-29.8428" y2="-91.3284" gradientUnits="userSpaceOnUse">
<stop stop-color="#7877C6"/>
<stop offset="1" stop-color="#6663F6"/>
</linearGradient>
<linearGradient id="paint34_linear_3_29647" x1="-30.8428" y1="-91.3281" x2="-29.8428" y2="-91.3281" gradientUnits="userSpaceOnUse">
<stop stop-color="#7877C6"/>
<stop offset="1" stop-color="#6663F6"/>
</linearGradient>
<linearGradient id="paint35_linear_3_29647" x1="-30.8444" y1="-91.3275" x2="-29.8444" y2="-91.3275" gradientUnits="userSpaceOnUse">
<stop stop-color="#7877C6"/>
<stop offset="1" stop-color="#6663F6"/>
</linearGradient>
<linearGradient id="paint36_linear_3_29647" x1="-30.8428" y1="-91.3301" x2="-29.8428" y2="-91.3301" gradientUnits="userSpaceOnUse">
<stop stop-color="#7877C6"/>
<stop offset="1" stop-color="#6663F6"/>
</linearGradient>
<linearGradient id="paint37_linear_3_29647" x1="-30.8439" y1="-91.3277" x2="-29.8439" y2="-91.3277" gradientUnits="userSpaceOnUse">
<stop stop-color="#7877C6"/>
<stop offset="1" stop-color="#6663F6"/>
</linearGradient>
<linearGradient id="paint38_linear_3_29647" x1="-30.8428" y1="-91.3276" x2="-29.8428" y2="-91.3276" gradientUnits="userSpaceOnUse">
<stop stop-color="#7877C6"/>
<stop offset="1" stop-color="#6663F6"/>
</linearGradient>
<linearGradient id="paint39_linear_3_29647" x1="-30.8435" y1="-91.3282" x2="-29.8435" y2="-91.3282" gradientUnits="userSpaceOnUse">
<stop stop-color="#7877C6"/>
<stop offset="1" stop-color="#6663F6"/>
</linearGradient>
<linearGradient id="paint40_linear_3_29647" x1="-30.8428" y1="-91.3273" x2="-29.8428" y2="-91.3273" gradientUnits="userSpaceOnUse">
<stop stop-color="#7877C6"/>
<stop offset="1" stop-color="#6663F6"/>
</linearGradient>
<linearGradient id="paint41_linear_3_29647" x1="-30.843" y1="-91.3283" x2="-29.843" y2="-91.3283" gradientUnits="userSpaceOnUse">
<stop stop-color="#7877C6"/>
<stop offset="1" stop-color="#6663F6"/>
</linearGradient>
<linearGradient id="paint42_linear_3_29647" x1="-30.8428" y1="-91.3281" x2="-29.8428" y2="-91.3281" gradientUnits="userSpaceOnUse">
<stop stop-color="#7877C6"/>
<stop offset="1" stop-color="#6663F6"/>
</linearGradient>
<linearGradient id="paint43_linear_3_29647" x1="-30.8432" y1="-91.3275" x2="-29.8432" y2="-91.3275" gradientUnits="userSpaceOnUse">
<stop stop-color="#7877C6"/>
<stop offset="1" stop-color="#6663F6"/>
</linearGradient>
<linearGradient id="paint44_linear_3_29647" x1="-30.8428" y1="-91.3278" x2="-29.8428" y2="-91.3278" gradientUnits="userSpaceOnUse">
<stop stop-color="#7877C6"/>
<stop offset="1" stop-color="#6663F6"/>
</linearGradient>
<linearGradient id="paint45_linear_3_29647" x1="-30.8447" y1="-91.3278" x2="-29.8447" y2="-91.3278" gradientUnits="userSpaceOnUse">
<stop stop-color="#7877C6"/>
<stop offset="1" stop-color="#6663F6"/>
</linearGradient>
<linearGradient id="paint46_linear_3_29647" x1="-30.8428" y1="-91.3276" x2="-29.8428" y2="-91.3276" gradientUnits="userSpaceOnUse">
<stop stop-color="#7877C6"/>
<stop offset="1" stop-color="#6663F6"/>
</linearGradient>
<linearGradient id="paint47_linear_3_29647" x1="-30.8443" y1="-91.328" x2="-29.8443" y2="-91.328" gradientUnits="userSpaceOnUse">
<stop stop-color="#7877C6"/>
<stop offset="1" stop-color="#6663F6"/>
</linearGradient>
<linearGradient id="paint48_linear_3_29647" x1="-30.8443" y1="-91.3278" x2="-29.8443" y2="-91.3278" gradientUnits="userSpaceOnUse">
<stop stop-color="#7877C6"/>
<stop offset="1" stop-color="#6663F6"/>
</linearGradient>
<linearGradient id="paint49_linear_3_29647" x1="-30.8428" y1="-91.3282" x2="-29.8428" y2="-91.3282" gradientUnits="userSpaceOnUse">
<stop stop-color="#7877C6"/>
<stop offset="1" stop-color="#6663F6"/>
</linearGradient>
<linearGradient id="paint50_linear_3_29647" x1="-30.8428" y1="-91.3299" x2="-29.8428" y2="-91.3299" gradientUnits="userSpaceOnUse">
<stop stop-color="#7877C6"/>
<stop offset="1" stop-color="#6663F6"/>
</linearGradient>
<linearGradient id="paint51_linear_3_29647" x1="-30.8443" y1="-91.3281" x2="-29.8443" y2="-91.3281" gradientUnits="userSpaceOnUse">
<stop stop-color="#7877C6"/>
<stop offset="1" stop-color="#6663F6"/>
</linearGradient>
<linearGradient id="paint52_linear_3_29647" x1="-30.8428" y1="-91.3278" x2="-29.8428" y2="-91.3278" gradientUnits="userSpaceOnUse">
<stop stop-color="#7877C6"/>
<stop offset="1" stop-color="#6663F6"/>
</linearGradient>
<linearGradient id="paint53_linear_3_29647" x1="-30.8439" y1="-91.3284" x2="-29.8439" y2="-91.3284" gradientUnits="userSpaceOnUse">
<stop stop-color="#7877C6"/>
<stop offset="1" stop-color="#6663F6"/>
</linearGradient>
<linearGradient id="paint54_linear_3_29647" x1="-30.8428" y1="-91.3276" x2="-29.8428" y2="-91.3276" gradientUnits="userSpaceOnUse">
<stop stop-color="#7877C6"/>
<stop offset="1" stop-color="#6663F6"/>
</linearGradient>
<linearGradient id="paint55_linear_3_29647" x1="-30.8435" y1="-91.3283" x2="-29.8435" y2="-91.3283" gradientUnits="userSpaceOnUse">
<stop stop-color="#7877C6"/>
<stop offset="1" stop-color="#6663F6"/>
</linearGradient>
<linearGradient id="paint56_linear_3_29647" x1="-30.8428" y1="-91.3273" x2="-29.8428" y2="-91.3273" gradientUnits="userSpaceOnUse">
<stop stop-color="#7877C6"/>
<stop offset="1" stop-color="#6663F6"/>
</linearGradient>
<linearGradient id="paint57_linear_3_29647" x1="-30.843" y1="-91.3283" x2="-29.843" y2="-91.3283" gradientUnits="userSpaceOnUse">
<stop stop-color="#7877C6"/>
<stop offset="1" stop-color="#6663F6"/>
</linearGradient>
<linearGradient id="paint58_linear_3_29647" x1="-30.8446" y1="-91.3276" x2="-29.8446" y2="-91.3276" gradientUnits="userSpaceOnUse">
<stop stop-color="#7877C6"/>
<stop offset="1" stop-color="#6663F6"/>
</linearGradient>
<linearGradient id="paint59_linear_3_29647" x1="-30.8437" y1="-91.3278" x2="-29.8437" y2="-91.3278" gradientUnits="userSpaceOnUse">
<stop stop-color="#7877C6"/>
<stop offset="1" stop-color="#6663F6"/>
</linearGradient>
<linearGradient id="paint60_linear_3_29647" x1="-30.8444" y1="-91.328" x2="-29.8444" y2="-91.328" gradientUnits="userSpaceOnUse">
<stop stop-color="#7877C6"/>
<stop offset="1" stop-color="#6663F6"/>
</linearGradient>
<linearGradient id="paint61_linear_3_29647" x1="-30.8433" y1="-91.3281" x2="-29.8433" y2="-91.3281" gradientUnits="userSpaceOnUse">
<stop stop-color="#7877C6"/>
<stop offset="1" stop-color="#6663F6"/>
</linearGradient>
<linearGradient id="paint62_linear_3_29647" x1="-30.8436" y1="-91.3279" x2="-29.8436" y2="-91.3279" gradientUnits="userSpaceOnUse">
<stop stop-color="#7877C6"/>
<stop offset="1" stop-color="#6663F6"/>
</linearGradient>
<linearGradient id="paint63_linear_3_29647" x1="-30.8428" y1="-91.3284" x2="-29.8428" y2="-91.3284" gradientUnits="userSpaceOnUse">
<stop stop-color="#7877C6"/>
<stop offset="1" stop-color="#6663F6"/>
</linearGradient>
<linearGradient id="paint64_linear_3_29647" x1="-30.8428" y1="-91.3281" x2="-29.8428" y2="-91.3281" gradientUnits="userSpaceOnUse">
<stop stop-color="#7877C6"/>
<stop offset="1" stop-color="#6663F6"/>
</linearGradient>
<linearGradient id="paint65_linear_3_29647" x1="-30.8444" y1="-91.3275" x2="-29.8444" y2="-91.3275" gradientUnits="userSpaceOnUse">
<stop stop-color="#7877C6"/>
<stop offset="1" stop-color="#6663F6"/>
</linearGradient>
<linearGradient id="paint66_linear_3_29647" x1="-30.8428" y1="-91.3301" x2="-29.8428" y2="-91.3301" gradientUnits="userSpaceOnUse">
<stop stop-color="#7877C6"/>
<stop offset="1" stop-color="#6663F6"/>
</linearGradient>
<linearGradient id="paint67_linear_3_29647" x1="-30.8439" y1="-91.3277" x2="-29.8439" y2="-91.3277" gradientUnits="userSpaceOnUse">
<stop stop-color="#7877C6"/>
<stop offset="1" stop-color="#6663F6"/>
</linearGradient>
<linearGradient id="paint68_linear_3_29647" x1="-30.8428" y1="-91.3276" x2="-29.8428" y2="-91.3276" gradientUnits="userSpaceOnUse">
<stop stop-color="#7877C6"/>
<stop offset="1" stop-color="#6663F6"/>
</linearGradient>
<linearGradient id="paint69_linear_3_29647" x1="-30.8435" y1="-91.3282" x2="-29.8435" y2="-91.3282" gradientUnits="userSpaceOnUse">
<stop stop-color="#7877C6"/>
<stop offset="1" stop-color="#6663F6"/>
</linearGradient>
<linearGradient id="paint70_linear_3_29647" x1="-30.8428" y1="-91.3273" x2="-29.8428" y2="-91.3273" gradientUnits="userSpaceOnUse">
<stop stop-color="#7877C6"/>
<stop offset="1" stop-color="#6663F6"/>
</linearGradient>
<linearGradient id="paint71_linear_3_29647" x1="-30.843" y1="-91.3283" x2="-29.843" y2="-91.3283" gradientUnits="userSpaceOnUse">
<stop stop-color="#7877C6"/>
<stop offset="1" stop-color="#6663F6"/>
</linearGradient>
<linearGradient id="paint72_linear_3_29647" x1="-30.8428" y1="-91.3281" x2="-29.8428" y2="-91.3281" gradientUnits="userSpaceOnUse">
<stop stop-color="#7877C6"/>
<stop offset="1" stop-color="#6663F6"/>
</linearGradient>
<linearGradient id="paint73_linear_3_29647" x1="-30.8432" y1="-91.3275" x2="-29.8432" y2="-91.3275" gradientUnits="userSpaceOnUse">
<stop stop-color="#7877C6"/>
<stop offset="1" stop-color="#6663F6"/>
</linearGradient>
<linearGradient id="paint74_linear_3_29647" x1="-30.8428" y1="-91.3278" x2="-29.8428" y2="-91.3278" gradientUnits="userSpaceOnUse">
<stop stop-color="#7877C6"/>
<stop offset="1" stop-color="#6663F6"/>
</linearGradient>
<linearGradient id="paint75_linear_3_29647" x1="-30.8447" y1="-91.3278" x2="-29.8447" y2="-91.3278" gradientUnits="userSpaceOnUse">
<stop stop-color="#7877C6"/>
<stop offset="1" stop-color="#6663F6"/>
</linearGradient>
<linearGradient id="paint76_linear_3_29647" x1="-30.8428" y1="-91.3276" x2="-29.8428" y2="-91.3276" gradientUnits="userSpaceOnUse">
<stop stop-color="#7877C6"/>
<stop offset="1" stop-color="#6663F6"/>
</linearGradient>
<linearGradient id="paint77_linear_3_29647" x1="-30.8443" y1="-91.328" x2="-29.8443" y2="-91.328" gradientUnits="userSpaceOnUse">
<stop stop-color="#7877C6"/>
<stop offset="1" stop-color="#6663F6"/>
</linearGradient>
<linearGradient id="paint78_linear_3_29647" x1="-30.8443" y1="-91.3278" x2="-29.8443" y2="-91.3278" gradientUnits="userSpaceOnUse">
<stop stop-color="#7877C6"/>
<stop offset="1" stop-color="#6663F6"/>
</linearGradient>
<linearGradient id="paint79_linear_3_29647" x1="-30.8428" y1="-91.3282" x2="-29.8428" y2="-91.3282" gradientUnits="userSpaceOnUse">
<stop stop-color="#7877C6"/>
<stop offset="1" stop-color="#6663F6"/>
</linearGradient>
<linearGradient id="paint80_linear_3_29647" x1="-30.8428" y1="-91.3299" x2="-29.8428" y2="-91.3299" gradientUnits="userSpaceOnUse">
<stop stop-color="#7877C6"/>
<stop offset="1" stop-color="#6663F6"/>
</linearGradient>
<linearGradient id="paint81_linear_3_29647" x1="-30.8443" y1="-91.3281" x2="-29.8443" y2="-91.3281" gradientUnits="userSpaceOnUse">
<stop stop-color="#7877C6"/>
<stop offset="1" stop-color="#6663F6"/>
</linearGradient>
<linearGradient id="paint82_linear_3_29647" x1="-30.8428" y1="-91.3278" x2="-29.8428" y2="-91.3278" gradientUnits="userSpaceOnUse">
<stop stop-color="#7877C6"/>
<stop offset="1" stop-color="#6663F6"/>
</linearGradient>
<linearGradient id="paint83_linear_3_29647" x1="-30.8439" y1="-91.3284" x2="-29.8439" y2="-91.3284" gradientUnits="userSpaceOnUse">
<stop stop-color="#7877C6"/>
<stop offset="1" stop-color="#6663F6"/>
</linearGradient>
<linearGradient id="paint84_linear_3_29647" x1="-30.8428" y1="-91.3276" x2="-29.8428" y2="-91.3276" gradientUnits="userSpaceOnUse">
<stop stop-color="#7877C6"/>
<stop offset="1" stop-color="#6663F6"/>
</linearGradient>
<linearGradient id="paint85_linear_3_29647" x1="-30.8435" y1="-91.3283" x2="-29.8435" y2="-91.3283" gradientUnits="userSpaceOnUse">
<stop stop-color="#7877C6"/>
<stop offset="1" stop-color="#6663F6"/>
</linearGradient>
<linearGradient id="paint86_linear_3_29647" x1="-30.8428" y1="-91.3273" x2="-29.8428" y2="-91.3273" gradientUnits="userSpaceOnUse">
<stop stop-color="#7877C6"/>
<stop offset="1" stop-color="#6663F6"/>
</linearGradient>
<linearGradient id="paint87_linear_3_29647" x1="-30.843" y1="-91.3283" x2="-29.843" y2="-91.3283" gradientUnits="userSpaceOnUse">
<stop stop-color="#7877C6"/>
<stop offset="1" stop-color="#6663F6"/>
</linearGradient>
<linearGradient id="paint88_linear_3_29647" x1="-30.8446" y1="-91.3276" x2="-29.8446" y2="-91.3276" gradientUnits="userSpaceOnUse">
<stop stop-color="#7877C6"/>
<stop offset="1" stop-color="#6663F6"/>
</linearGradient>
<linearGradient id="paint89_linear_3_29647" x1="-30.8437" y1="-91.3278" x2="-29.8437" y2="-91.3278" gradientUnits="userSpaceOnUse">
<stop stop-color="#7877C6"/>
<stop offset="1" stop-color="#6663F6"/>
</linearGradient>
<linearGradient id="paint90_linear_3_29647" x1="-30.8444" y1="-91.328" x2="-29.8444" y2="-91.328" gradientUnits="userSpaceOnUse">
<stop stop-color="#7877C6"/>
<stop offset="1" stop-color="#6663F6"/>
</linearGradient>
<radialGradient id="paint91_radial_3_29647" cx="0" cy="0" r="1" gradientUnits="userSpaceOnUse" gradientTransform="translate(181.419 48.9339) rotate(90) scale(288.739 199.426)">
<stop stop-color="white"/>
<stop offset="1" stop-color="white" stop-opacity="0"/>
</radialGradient>
<radialGradient id="paint92_radial_3_29647" cx="0" cy="0" r="1" gradientUnits="userSpaceOnUse" gradientTransform="translate(181.419 48.9336) rotate(90) scale(288.739 199.426)">
<stop stop-color="white"/>
<stop offset="1" stop-color="white" stop-opacity="0"/>
</radialGradient>
<radialGradient id="paint93_radial_3_29647" cx="0" cy="0" r="1" gradientUnits="userSpaceOnUse" gradientTransform="translate(181.418 48.9343) rotate(90) scale(288.739 199.426)">
<stop stop-color="white"/>
<stop offset="1" stop-color="white" stop-opacity="0"/>
</radialGradient>
<radialGradient id="paint94_radial_3_29647" cx="0" cy="0" r="1" gradientUnits="userSpaceOnUse" gradientTransform="translate(181.418 48.9341) rotate(90) scale(288.739 199.426)">
<stop stop-color="white"/>
<stop offset="1" stop-color="white" stop-opacity="0"/>
</radialGradient>
<radialGradient id="paint95_radial_3_29647" cx="0" cy="0" r="1" gradientUnits="userSpaceOnUse" gradientTransform="translate(181.419 48.9338) rotate(90) scale(288.739 199.426)">
<stop stop-color="white"/>
<stop offset="1" stop-color="white" stop-opacity="0"/>
</radialGradient>
<radialGradient id="paint96_radial_3_29647" cx="0" cy="0" r="1" gradientUnits="userSpaceOnUse" gradientTransform="translate(181.419 48.9336) rotate(90) scale(288.739 199.426)">
<stop stop-color="white"/>
<stop offset="1" stop-color="white" stop-opacity="0"/>
</radialGradient>
<radialGradient id="paint97_radial_3_29647" cx="0" cy="0" r="1" gradientUnits="userSpaceOnUse" gradientTransform="translate(181.419 48.9343) rotate(90) scale(288.739 199.426)">
<stop stop-color="white"/>
<stop offset="1" stop-color="white" stop-opacity="0"/>
</radialGradient>
<radialGradient id="paint98_radial_3_29647" cx="0" cy="0" r="1" gradientUnits="userSpaceOnUse" gradientTransform="translate(181.417 48.9341) rotate(90) scale(288.739 199.426)">
<stop stop-color="white"/>
<stop offset="1" stop-color="white" stop-opacity="0"/>
</radialGradient>
<radialGradient id="paint99_radial_3_29647" cx="0" cy="0" r="1" gradientUnits="userSpaceOnUse" gradientTransform="translate(181.418 48.9338) rotate(90) scale(288.739 199.426)">
<stop stop-color="white"/>
<stop offset="1" stop-color="white" stop-opacity="0"/>
</radialGradient>
<radialGradient id="paint100_radial_3_29647" cx="0" cy="0" r="1" gradientUnits="userSpaceOnUse" gradientTransform="translate(181.419 48.9336) rotate(90) scale(288.739 199.426)">
<stop stop-color="white"/>
<stop offset="1" stop-color="white" stop-opacity="0"/>
</radialGradient>
<radialGradient id="paint101_radial_3_29647" cx="0" cy="0" r="1" gradientUnits="userSpaceOnUse" gradientTransform="translate(181.418 48.9341) rotate(90) scale(288.739 199.426)">
<stop stop-color="white"/>
<stop offset="1" stop-color="white" stop-opacity="0"/>
</radialGradient>
<radialGradient id="paint102_radial_3_29647" cx="0" cy="0" r="1" gradientUnits="userSpaceOnUse" gradientTransform="translate(181.418 48.9338) rotate(90) scale(288.739 199.426)">
<stop stop-color="white"/>
<stop offset="1" stop-color="white" stop-opacity="0"/>
</radialGradient>
<radialGradient id="paint103_radial_3_29647" cx="0" cy="0" r="1" gradientUnits="userSpaceOnUse" gradientTransform="translate(181.419 48.9337) rotate(90) scale(288.739 199.426)">
<stop stop-color="white"/>
<stop offset="1" stop-color="white" stop-opacity="0"/>
</radialGradient>
<radialGradient id="paint104_radial_3_29647" cx="0" cy="0" r="1" gradientUnits="userSpaceOnUse" gradientTransform="translate(181.419 48.9335) rotate(90) scale(288.739 199.426)">
<stop stop-color="white"/>
<stop offset="1" stop-color="white" stop-opacity="0"/>
</radialGradient>
<radialGradient id="paint105_radial_3_29647" cx="0" cy="0" r="1" gradientUnits="userSpaceOnUse" gradientTransform="translate(181.417 48.9343) rotate(90) scale(288.739 199.426)">
<stop stop-color="white"/>
<stop offset="1" stop-color="white" stop-opacity="0"/>
</radialGradient>
<radialGradient id="paint106_radial_3_29647" cx="0" cy="0" r="1" gradientUnits="userSpaceOnUse" gradientTransform="translate(181.418 48.934) rotate(90) scale(288.739 199.426)">
<stop stop-color="white"/>
<stop offset="1" stop-color="white" stop-opacity="0"/>
</radialGradient>
<radialGradient id="paint107_radial_3_29647" cx="0" cy="0" r="1" gradientUnits="userSpaceOnUse" gradientTransform="translate(181.418 48.9338) rotate(90) scale(288.739 199.426)">
<stop stop-color="white"/>
<stop offset="1" stop-color="white" stop-opacity="0"/>
</radialGradient>
<radialGradient id="paint108_radial_3_29647" cx="0" cy="0" r="1" gradientUnits="userSpaceOnUse" gradientTransform="translate(181.419 48.9345) rotate(90) scale(288.739 199.426)">
<stop stop-color="white"/>
<stop offset="1" stop-color="white" stop-opacity="0"/>
</radialGradient>
<radialGradient id="paint109_radial_3_29647" cx="0" cy="0" r="1" gradientUnits="userSpaceOnUse" gradientTransform="translate(181.419 48.9343) rotate(90) scale(288.739 199.426)">
<stop stop-color="white"/>
<stop offset="1" stop-color="white" stop-opacity="0"/>
</radialGradient>
<radialGradient id="paint110_radial_3_29647" cx="0" cy="0" r="1" gradientUnits="userSpaceOnUse" gradientTransform="translate(181.419 48.934) rotate(90) scale(288.739 199.426)">
<stop stop-color="white"/>
<stop offset="1" stop-color="white" stop-opacity="0"/>
</radialGradient>
<radialGradient id="paint111_radial_3_29647" cx="0" cy="0" r="1" gradientUnits="userSpaceOnUse" gradientTransform="translate(181.419 48.9328) rotate(90) scale(288.74 199.426)">
<stop stop-color="white"/>
<stop offset="1" stop-color="white" stop-opacity="0"/>
</radialGradient>
<radialGradient id="paint112_radial_3_29647" cx="0" cy="0" r="1" gradientUnits="userSpaceOnUse" gradientTransform="translate(181.418 48.9343) rotate(90) scale(288.739 199.426)">
<stop stop-color="white"/>
<stop offset="1" stop-color="white" stop-opacity="0"/>
</radialGradient>
<radialGradient id="paint113_radial_3_29647" cx="0" cy="0" r="1" gradientUnits="userSpaceOnUse" gradientTransform="translate(181.419 48.9343) rotate(90) scale(288.739 199.426)">
<stop stop-color="white"/>
<stop offset="1" stop-color="white" stop-opacity="0"/>
</radialGradient>
<radialGradient id="paint114_radial_3_29647" cx="0" cy="0" r="1" gradientUnits="userSpaceOnUse" gradientTransform="translate(181.419 48.934) rotate(90) scale(288.739 199.426)">
<stop stop-color="white"/>
<stop offset="1" stop-color="white" stop-opacity="0"/>
</radialGradient>
<radialGradient id="paint115_radial_3_29647" cx="0" cy="0" r="1" gradientUnits="userSpaceOnUse" gradientTransform="translate(181.419 48.9338) rotate(90) scale(288.739 199.426)">
<stop stop-color="white"/>
<stop offset="1" stop-color="white" stop-opacity="0"/>
</radialGradient>
<radialGradient id="paint116_radial_3_29647" cx="0" cy="0" r="1" gradientUnits="userSpaceOnUse" gradientTransform="translate(181.419 48.9345) rotate(90) scale(288.739 199.426)">
<stop stop-color="white"/>
<stop offset="1" stop-color="white" stop-opacity="0"/>
</radialGradient>
<radialGradient id="paint117_radial_3_29647" cx="0" cy="0" r="1" gradientUnits="userSpaceOnUse" gradientTransform="translate(181.419 48.9343) rotate(90) scale(288.739 199.426)">
<stop stop-color="white"/>
<stop offset="1" stop-color="white" stop-opacity="0"/>
</radialGradient>
<radialGradient id="paint118_radial_3_29647" cx="0" cy="0" r="1" gradientUnits="userSpaceOnUse" gradientTransform="translate(181.419 48.9325) rotate(90) scale(288.74 199.426)">
<stop stop-color="white"/>
<stop offset="1" stop-color="white" stop-opacity="0"/>
</radialGradient>
<radialGradient id="paint119_radial_3_29647" cx="0" cy="0" r="1" gradientUnits="userSpaceOnUse" gradientTransform="translate(181.419 48.9338) rotate(90) scale(288.739 199.426)">
<stop stop-color="white"/>
<stop offset="1" stop-color="white" stop-opacity="0"/>
</radialGradient>
<radialGradient id="paint120_radial_3_29647" cx="0" cy="0" r="1" gradientUnits="userSpaceOnUse" gradientTransform="translate(181.418 48.9341) rotate(90) scale(288.739 199.426)">
<stop stop-color="white"/>
<stop offset="1" stop-color="white" stop-opacity="0"/>
</radialGradient>
<clipPath id="clip0_3_29647">
<rect width="425" height="518" fill="white" transform="translate(-30.8438 -91.3281)"/>
</clipPath>
</defs>
</svg>
